<svg xmlns="http://www.w3.org/2000/svg" width="17" height="17" viewBox="0 0 17 17"><defs><style>.a{fill:#4878ff;stroke:rgba(0,0,0,0);stroke-miterlimit:10;}</style></defs><g transform="translate(-162.5 -760.5)"><path class="a" d="M11,13H2a2,2,0,0,1-2-2V2A2,2,0,0,1,2,0H4V8A1,1,0,0,0,5,9h8v2A2,2,0,0,1,11,13ZM2,1A1,1,0,0,0,1,2v9a1,1,0,0,0,1,1h9a1,1,0,0,0,1-1V10H5A2,2,0,0,1,3,8V1Z" transform="translate(163 764)"/><path class="a" d="M11,13H2a2,2,0,0,1-2-2V2A2,2,0,0,1,2,0h9a2,2,0,0,1,2,2v9A2,2,0,0,1,11,13ZM2,1A1,1,0,0,0,1,2v9a1,1,0,0,0,1,1h9a1,1,0,0,0,1-1V2a1,1,0,0,0-1-1Z" transform="translate(166 761)"/></g></svg>