<svg xmlns="http://www.w3.org/2000/svg" width="60" height="60" viewBox="0 0 60 60">
  <g id="CreateWatchlist_NewFeature" transform="translate(-44 -27)">
    <rect id="Rectangle_2" data-name="Rectangle 2" width="60" height="60" transform="translate(44 27)" fill="none"/>
    <g id="Group_2" data-name="Group 2" transform="translate(-710 -228.379)">
      <g id="create-watchlist" transform="translate(754 252.377)">
        <path id="Path_9" data-name="Path 9" d="M10.78,15.213A4.763,4.763,0,0,0,6,19.926V53.5a4.17,4.17,0,0,0,4.183,4.123H50.817A4.171,4.171,0,0,0,55,53.5V26.405a4.17,4.17,0,0,0-4.183-4.123H47.83v-5.89a1.234,1.234,0,0,0-1.195-1.179H10.78Zm0,2.357H45.44v4.712H10.781a2.356,2.356,0,1,1,0-4.712Zm0,7.068a4.8,4.8,0,0,1-2.39-.644V53.5a1.751,1.751,0,0,0,1.793,1.767H50.817A1.751,1.751,0,0,0,52.61,53.5V46.431H35.28a2.986,2.986,0,0,1-2.987-2.945V36.42a2.987,2.987,0,0,1,2.988-2.945H52.61V26.406a1.751,1.751,0,0,0-1.793-1.767l-11.91,0H38.9c-9.038,0-18.94-.006-28.12,0ZM35.28,35.83H52.61v8.246H35.28a.568.568,0,0,1-.6-.589V36.42a.569.569,0,0,1,.6-.59Zm3.586,4.123a2.39,2.39,0,1,1,2.39,2.356A2.373,2.373,0,0,1,38.866,39.953Z" fill="#203d8b"/>
        <g id="Group_1" data-name="Group 1">
          <path id="Intersection_1" data-name="Intersection 1" d="M-749.2-236.877l-1.895-1.909a6.6,6.6,0,0,1-1.548-6.776,6.54,6.54,0,0,1,5.368-4.379A6.522,6.522,0,0,1-741-247.024h0a.06.06,0,0,0,.057.04.06.06,0,0,0,.058-.04,6.521,6.521,0,0,1,6.277-2.925,6.541,6.541,0,0,1,5.369,4.384,6.6,6.6,0,0,1-1.555,6.779l-1.893,1.908Z" transform="translate(770 259)" fill="#02adff"/>
        </g>
      </g>
    </g>
  </g>
</svg>
