<svg width="18" height="18" fill="none" xmlns="http://www.w3.org/2000/svg">
    <path fill-rule="evenodd" clip-rule="evenodd" d="M1 9c0-4.413 3.587-8 8-8s8 3.587 8 8-3.587 8-8 8-8-3.587-8-8zm8.69 4.985v-1.01c1.045-.185 1.904-.994 2.022-2.089A2.356 2.356 0 0 0 9.37 8.31h-.742a.974.974 0 0 1-.976-1.077c.05-.506.522-.876 1.027-.876h.859c.32 0 .59.236.657.539.017.1.1.151.185.151h.994c.118 0 .219-.084.202-.202a2.053 2.053 0 0 0-1.903-1.836v-.976c0-.101-.101-.186-.202-.186h-.977c-.118 0-.202.085-.202.186v.993a2.36 2.36 0 0 0-2.021 2.56c.117 1.213 1.212 2.106 2.442 2.106h.64a.974.974 0 0 1 .977 1.077c-.051.506-.523.876-1.028.876h-.859a.684.684 0 0 1-.657-.539c-.016-.084-.1-.135-.185-.135h-.994c-.117 0-.219.085-.202.203.101.993.91 1.768 1.903 1.835v.977c0 .118.102.202.203.202h.976a.205.205 0 0 0 .203-.202z" fill="#fff"/>
</svg>
