<svg width="60" height="60" viewBox="0 0 60 60" xmlns="http://www.w3.org/2000/svg" xmlns:xlink="http://www.w3.org/1999/xlink">
    <defs>
        <path id="a" d="M0 0h34v18H0z"/>
    </defs>
    <g fill="none" fill-rule="evenodd">
        <path d="M0 0h60v60H0z"/>
        <path d="M10.78 14.213c-2.627 0-4.78 2.122-4.78 4.713V52.5c0 2.264 1.886 4.123 4.183 4.123h40.634c2.297 0 4.183-1.86 4.183-4.123V25.405c0-2.264-1.886-4.123-4.183-4.123H47.83v-5.89c0-.617-.57-1.179-1.195-1.179H10.78zm0 2.357H45.44v4.712H10.78c-1.344 0-2.39-1.03-2.39-2.356 0-1.326 1.046-2.356 2.39-2.356zm-2.39 6.424a4.794 4.794 0 0 0 2.39.644c13.46-.012 28.469 0 40.037 0 1.014 0 1.793.768 1.793 1.767v7.069H35.28c-1.634 0-2.987 1.334-2.987 2.945v7.068c0 1.612 1.353 2.946 2.987 2.946h17.33V52.5c0 1-.78 1.767-1.793 1.767H10.183c-1.014 0-1.793-.768-1.793-1.767V22.994zM35.28 34.83h17.33v8.246H35.28c-.351 0-.597-.242-.597-.589V35.42c0-.347.246-.59.597-.59zm5.976 1.767c-1.32 0-2.39 1.055-2.39 2.356s1.07 2.356 2.39 2.356 2.39-1.055 2.39-2.356-1.07-2.356-2.39-2.356z" fill="#213D8B" fill-rule="nonzero"/>
        <g transform="translate(13 3)">
            <mask id="b" fill="#fff">
                <use xlink:href="#a"/>
            </mask>
            <g mask="url(#b)">
                <path d="M16.998 7.976a6.52 6.52 0 0 0-6.274-2.918 6.542 6.542 0 0 0-5.368 4.38c-.812 2.371-.21 5 1.548 6.776L16.963 26.35a.122.122 0 0 0 .185 0l10.056-10.135a6.598 6.598 0 0 0 1.556-6.779 6.542 6.542 0 0 0-5.37-4.384 6.52 6.52 0 0 0-6.277 2.925.061.061 0 0 1-.115 0z" fill="#02ADFF" fill-rule="nonzero"/>
            </g>
        </g>
    </g>
</svg>
