<svg xmlns="http://www.w3.org/2000/svg" width="240.001" height="108.467" viewBox="0 0 240.001 108.467">
  <g id="Group_17" data-name="Group 17" transform="translate(-837.1 -152)">
    <g id="Group_16" data-name="Group 16" transform="translate(837.1 156.367)">
      <path id="Path_33" data-name="Path 33" d="M3.552,1.638A2.3,2.3,0,0,1,.918-.478a3.905,3.905,0,0,1,.987-2.3L25.611-33.026,3.269-61.342a3.757,3.757,0,0,1-.987-2.3q0-2.164,2.587-2.164H14.982q4.7,0,8.231,4.468L36.105-44.973,48.987-61.342q3.481-4.422,8.231-4.468H67.332q2.587,0,2.587,2.164a3.905,3.905,0,0,1-.988,2.3L46.584-33.026,70.294-2.783A3.576,3.576,0,0,1,71.282-.8a2.313,2.313,0,0,1-.734,1.851,2.313,2.313,0,0,1-1.9.6H58.629q-4.7,0-8.184-4.422L36.1-21.077,21.755-2.783Q18.278,1.638,13.57,1.638Zm75.4-4.326v-58.56a4.41,4.41,0,0,1,1.317-3.245,4.3,4.3,0,0,1,3.151-1.317H109.71q20.414,0,29.7,8.16T148.7-32.063q0,17.426-9.289,25.563t-29.7,8.138H83.417A4.424,4.424,0,0,1,80.266.392a4.072,4.072,0,0,1-1.317-3.08Zm17.732-8.983h12.511q12.652,0,17.215-4.609t4.563-15.78q0-11.17-4.563-15.8T109.192-52.5H96.681Zm66.507,5.362q-8.7-8.326-8.7-25.753t8.725-25.775q8.725-8.349,26.175-8.349h10.488a32.912,32.912,0,0,1,18.886,5.55,17.409,17.409,0,0,1,8.208,15.192,4.587,4.587,0,0,1-1.646,3.974,5.46,5.46,0,0,1-3.2,1.2h-5.6q-4.327,0-6.726-5.174-3.481-7.432-11.57-7.432h-8.372q-10.3,0-13.969,4.422T172.22-32.086q0,11.947,3.669,16.392t13.969,4.445h9.359q8.09,0,11.524-7.432,2.4-5.22,6.773-5.22h5.6a4.221,4.221,0,0,1,3.5,1.646,5.667,5.667,0,0,1,1.294,3.574,17.366,17.366,0,0,1-8.184,15.169,32.9,32.9,0,0,1-18.861,5.527H189.386q-17.449,0-26.2-8.326Z" transform="translate(-0.77 66.192)" fill="#fff"/>
      <path id="Path_32" data-name="Path 32" d="M19.053-1.466Q16.4.863,11.254.863T3.441-1.472Q.774-3.807.774-8.867t2.667-7.39q2.667-2.329,7.812-2.329t7.805,2.329q2.661,2.329,2.661,7.39T19.053-1.466ZM15.5-13.517a5.258,5.258,0,0,0-4.248-1.561A5.273,5.273,0,0,0,7-13.512,7.05,7.05,0,0,0,5.679-8.861,7.023,7.023,0,0,0,7-4.212a5.291,5.291,0,0,0,4.254,1.555A5.267,5.267,0,0,0,15.5-4.212a7.047,7.047,0,0,0,1.314-4.644A7.075,7.075,0,0,0,15.5-13.512Zm8.885-3.447a1.189,1.189,0,0,1,.364-.872,1.189,1.189,0,0,1,.872-.364H36.2q3.89,0,5.737,2.242A4.765,4.765,0,0,1,42.964-12.8a4.227,4.227,0,0,1-1.756,3.35,4.42,4.42,0,0,1,2.5,4.163A4.981,4.981,0,0,1,41.71-1a8.06,8.06,0,0,1-4.9,1.462H25.623A1.2,1.2,0,0,1,24.752.1a1.168,1.168,0,0,1-.364-.865Zm4.9,13.911h7.442a1.949,1.949,0,0,0,1.534-.6,2.376,2.376,0,0,0,.533-1.64,2.376,2.376,0,0,0-.533-1.64,1.949,1.949,0,0,0-1.535-.6H29.292Zm0-7.9h6.96a1.789,1.789,0,0,0,1.314-.488A1.833,1.833,0,0,0,38.06-12.8a1.855,1.855,0,0,0-.494-1.372,1.775,1.775,0,0,0-1.314-.494h-6.96ZM45.307-4.317a1.269,1.269,0,0,1,.455-1.1,1.511,1.511,0,0,1,.885-.332h1.548a1.926,1.926,0,0,1,1.782,1.275Q50.592-3.2,52.722-3.2l4.553.093q2.29,0,2.29-1.495,0-1.132-2.8-1.782-1.249-.3-2.758-.592t-3-.735a18.556,18.556,0,0,1-2.738-1.041A5.325,5.325,0,0,1,46.25-10.4a4.034,4.034,0,0,1-.774-2.465,4.753,4.753,0,0,1,1.86-4.026q1.86-1.412,6.4-1.412l3.3.075a8.714,8.714,0,0,1,4.807,1.372,4.008,4.008,0,0,1,2.14,3.428,1.287,1.287,0,0,1-.455,1.106,1.479,1.479,0,0,1-.872.338H61.113a1.927,1.927,0,0,1-1.782-1.282q-.612-1.282-2.745-1.282l-3.916-.078q-2.29,0-2.29,1.495,0,.819,1.451,1.34a23.936,23.936,0,0,0,3.513.917q2.062.4,4.143.96a8.622,8.622,0,0,1,3.53,1.843,4.087,4.087,0,0,1,1.451,3.194A4.748,4.748,0,0,1,62.6-.847Q60.731.564,56.206.564L52.264.486A8.746,8.746,0,0,1,47.453-.886a4.006,4.006,0,0,1-2.147-3.428ZM67.128-.789v-16.2a1.147,1.147,0,0,1,.364-.859,1.214,1.214,0,0,1,.872-.351h15a1.168,1.168,0,0,1,.865.364,1.2,1.2,0,0,1,.358.872v1.223a1.179,1.179,0,0,1-.358.865,1.179,1.179,0,0,1-.865.358H72.028v3.785h9.758a1.179,1.179,0,0,1,.865.358,1.179,1.179,0,0,1,.358.865v1.223a1.179,1.179,0,0,1-.358.865,1.179,1.179,0,0,1-.865.358H72.028v3.838h11.3a1.153,1.153,0,0,1,.845.351,1.168,1.168,0,0,1,.351.859V-.763A1.168,1.168,0,0,1,84.164.1a1.2,1.2,0,0,1-.872.358H68.359A1.2,1.2,0,0,1,67.487.1a1.2,1.2,0,0,1-.36-.891ZM106.352-.1q0,.561-.663.561h-3.122A2.137,2.137,0,0,1,101.48.1a2.631,2.631,0,0,1-.907-.866L98.362-4.22a3.918,3.918,0,0,0-3.306-2.141H91.885v5.6A1.179,1.179,0,0,1,91.527.1a1.179,1.179,0,0,1-.865.358h-2.45A1.2,1.2,0,0,1,87.341.1a1.168,1.168,0,0,1-.364-.865v-16.2a1.214,1.214,0,0,1,.351-.872,1.147,1.147,0,0,1,.859-.364H98.919a7.338,7.338,0,0,1,4.885,1.6,5.347,5.347,0,0,1,1.906,4.319q0,3.785-4.9,4.749a3.814,3.814,0,0,1,1.444.98,14.156,14.156,0,0,1,1.522,2.023L106.14-.763a1.362,1.362,0,0,1,.207.661ZM91.885-10.039h5.542a5.028,5.028,0,0,0,2.362-.533,1.79,1.79,0,0,0,1.021-1.7,1.79,1.79,0,0,0-1.021-1.7,5.028,5.028,0,0,0-2.362-.533H91.885ZM106.739-17.1a.76.76,0,0,1-.078-.345.8.8,0,0,1,.241-.467.852.852,0,0,1,.683-.28h2.849a1.7,1.7,0,0,1,1.548,1.236L117.016-5.75l5.035-11.211A1.719,1.719,0,0,1,123.6-18.2h2.849a.848.848,0,0,1,.689.28.809.809,0,0,1,.235.467.888.888,0,0,1-.065.345L119.813-.867A1.977,1.977,0,0,1,117.949.459h-1.868a1.977,1.977,0,0,1-1.86-1.327ZM126.8-.737l3.27-12.385q1.327-5.061,8.639-5.074h7.012a1.018,1.018,0,0,1,.8.364,1.245,1.245,0,0,1,.319.845V-.737a1.127,1.127,0,0,1-.364.852A1.224,1.224,0,0,1,145.6.46h-2.446a1.189,1.189,0,0,1-.878-.345,1.189,1.189,0,0,1-.345-.878V-4.041h-9.249l-.877,3.278a1.531,1.531,0,0,1-.586.878,1.569,1.569,0,0,1-.963.345H127.7a.855.855,0,0,1-.729-.292.857.857,0,0,1-.215-.514,2.011,2.011,0,0,1,.047-.391Zm6.845-6.986h8.287v-6.791h-3.71a3.493,3.493,0,0,0-2.18.709,3.462,3.462,0,0,0-1.256,1.906Zm15.313-8.014V-16.96a1.2,1.2,0,0,1,.351-.885,1.2,1.2,0,0,1,.885-.351H166.7a1.2,1.2,0,0,1,.885.351,1.2,1.2,0,0,1,.351.885v1.223a1.178,1.178,0,0,1-.351.878,1.215,1.215,0,0,1-.885.345h-5.8V-.737a1.136,1.136,0,0,1-.358.852,1.2,1.2,0,0,1-.865.345h-2.459a1.2,1.2,0,0,1-.865-.345A1.136,1.136,0,0,1,156-.737V-14.514h-5.8a1.215,1.215,0,0,1-.885-.345,1.178,1.178,0,0,1-.354-.878ZM186.878-1.466q-2.654,2.329-7.8,2.329t-7.812-2.336q-2.667-2.336-2.667-7.4t2.667-7.39q2.667-2.329,7.812-2.329t7.805,2.329q2.661,2.329,2.661,7.39T186.878-1.466Zm-3.55-12.051a5.26,5.26,0,0,0-4.248-1.561,5.28,5.28,0,0,0-4.254,1.561,7.05,7.05,0,0,0-1.32,4.651,7.022,7.022,0,0,0,1.318,4.654,5.291,5.291,0,0,0,4.254,1.555,5.27,5.27,0,0,0,4.248-1.555,7.048,7.048,0,0,0,1.314-4.644,7.075,7.075,0,0,0-1.314-4.656ZM211.582-.1q0,.561-.663.561H207.8A2.136,2.136,0,0,1,206.71.1a2.631,2.631,0,0,1-.9-.865l-2.211-3.457a3.918,3.918,0,0,0-3.3-2.14h-3.176v5.6a1.179,1.179,0,0,1-.358.865,1.179,1.179,0,0,1-.865.358h-2.446A1.2,1.2,0,0,1,192.574.1a1.168,1.168,0,0,1-.364-.865v-16.2a1.214,1.214,0,0,1,.351-.872,1.147,1.147,0,0,1,.859-.364h10.733a7.338,7.338,0,0,1,4.885,1.6,5.348,5.348,0,0,1,1.906,4.319q0,3.785-4.9,4.749a3.814,3.814,0,0,1,1.446.98,14.156,14.156,0,0,1,1.522,2.023l2.365,3.762a1.361,1.361,0,0,1,.211.661Zm-14.466-9.937h5.542a5.028,5.028,0,0,0,2.361-.533,1.79,1.79,0,0,0,1.021-1.7,1.79,1.79,0,0,0-1.021-1.7,5.028,5.028,0,0,0-2.361-.533h-5.542Zm14.636-7.533q0-.624.676-.624H214.9a2.536,2.536,0,0,1,2.264,1.236l4.215,6.488,4.2-6.492a2.556,2.556,0,0,1,2.264-1.236h2.485q.663,0,.663.624a1.147,1.147,0,0,1-.208.612L223.827-6.2V-.737a1.136,1.136,0,0,1-.358.852A1.2,1.2,0,0,1,222.6.46h-2.451a1.224,1.224,0,0,1-.872-.345,1.127,1.127,0,0,1-.364-.852V-6.2L211.97-16.961a1.1,1.1,0,0,1-.218-.611Z" transform="translate(-0.774 103.236)" fill="#fff"/>
    </g>
    <rect id="Rectangle_38" data-name="Rectangle 38" width="37.369" height="15.882" rx="4" transform="translate(1039.732 152)" fill="#4878ff"/>
    <text id="BETA" transform="translate(1044.403 163.934)" fill="#fff" font-size="11" font-family="Inter"><tspan x="0" y="0">BETA</tspan></text>
  </g>
</svg>
