<svg xmlns="http://www.w3.org/2000/svg" width="164.197" height="73.104" viewBox="0 0 164.197 73.104">
  <g id="Group_392" data-name="Group 392" transform="translate(-86.382 -137)">
    <g id="Group_16" data-name="Group 16" transform="translate(86.382 140.046)">
      <path id="Path_33" data-name="Path 33" d="M2.69-20.543A1.55,1.55,0,0,1,.918-21.967a2.628,2.628,0,0,1,.665-1.551L17.536-43.872,2.5-62.928a2.529,2.529,0,0,1-.665-1.551q0-1.456,1.741-1.456h6.806a6.934,6.934,0,0,1,5.54,3.007L24.6-51.912l8.669-11.016a6.991,6.991,0,0,1,5.54-3.007h6.806q1.741,0,1.741,1.456a2.628,2.628,0,0,1-.665,1.551L31.651-43.872,47.607-23.518a2.407,2.407,0,0,1,.665,1.332,1.557,1.557,0,0,1-.494,1.245,1.557,1.557,0,0,1-1.279.4H39.757a6.869,6.869,0,0,1-5.508-2.976L24.595-35.83,14.941-23.518a6.867,6.867,0,0,1-5.508,2.975Zm50.741-2.912v-39.41a2.968,2.968,0,0,1,.886-2.184,2.892,2.892,0,0,1,2.121-.887H74.134q13.738,0,19.99,5.492t6.251,17.22q0,11.728-6.251,17.2t-19.99,5.477H56.439a2.978,2.978,0,0,1-2.121-.839,2.741,2.741,0,0,1-.886-2.073ZM65.366-29.5h8.42q8.515,0,11.585-3.1t3.071-10.62q0-7.518-3.071-10.636T73.785-56.976h-8.42Zm44.759,3.609q-5.856-5.6-5.856-17.331t5.872-17.346q5.872-5.619,17.615-5.619h7.059a22.149,22.149,0,0,1,12.71,3.735,11.716,11.716,0,0,1,5.524,10.224,3.087,3.087,0,0,1-1.108,2.675,3.675,3.675,0,0,1-2.153.807h-3.767q-2.912,0-4.527-3.482a8.013,8.013,0,0,0-7.787-5h-5.635q-6.932,0-9.4,2.976T116.2-43.239q0,8.04,2.469,11.032t9.4,2.991h6.3a7.952,7.952,0,0,0,7.755-5q1.615-3.513,4.558-3.513h3.767a2.841,2.841,0,0,1,2.358,1.108,3.814,3.814,0,0,1,.871,2.405,11.687,11.687,0,0,1-5.508,10.209,22.143,22.143,0,0,1-12.693,3.72h-7.724q-11.743,0-17.631-5.6Z" transform="translate(-0.819 66.192)" fill="#fff"/>
      <path id="Path_32" data-name="Path 32" d="M13.076-7.064A7.738,7.738,0,0,1,7.827-5.5,7.761,7.761,0,0,1,2.569-7.069Q.774-8.64.774-12.046t1.795-4.973a7.775,7.775,0,0,1,5.257-1.567,7.757,7.757,0,0,1,5.253,1.567q1.791,1.567,1.791,4.973T13.076-7.064Zm-2.389-8.11a3.539,3.539,0,0,0-2.859-1.051,3.549,3.549,0,0,0-2.864,1.054,4.744,4.744,0,0,0-.889,3.13,4.726,4.726,0,0,0,.889,3.129A3.561,3.561,0,0,0,7.827-7.867a3.545,3.545,0,0,0,2.858-1.046,4.742,4.742,0,0,0,.884-3.125,4.761,4.761,0,0,0-.884-3.134Zm5.98-2.32a.8.8,0,0,1,.245-.587.8.8,0,0,1,.587-.245h7.117a4.715,4.715,0,0,1,3.861,1.509,3.206,3.206,0,0,1,.692,2.123,2.845,2.845,0,0,1-1.182,2.255,2.974,2.974,0,0,1,1.681,2.8,3.352,3.352,0,0,1-1.344,2.885,5.424,5.424,0,0,1-3.3.984H17.5a.808.808,0,0,1-.587-.241.786.786,0,0,1-.245-.582Zm3.3,9.362h5.008a1.312,1.312,0,0,0,1.032-.4,1.6,1.6,0,0,0,.359-1.1,1.6,1.6,0,0,0-.359-1.1,1.312,1.312,0,0,0-1.033-.4H19.966Zm0-5.315H24.65a1.2,1.2,0,0,0,.884-.328,1.234,1.234,0,0,0,.333-.919,1.249,1.249,0,0,0-.333-.924,1.2,1.2,0,0,0-.884-.333H19.966ZM30.744-8.983a.854.854,0,0,1,.306-.74,1.017,1.017,0,0,1,.6-.223h1.042a1.3,1.3,0,0,1,1.2.858q.414.859,1.847.859l3.064.063q1.541,0,1.541-1.006,0-.762-1.882-1.2-.841-.2-1.856-.4t-2.018-.495a12.488,12.488,0,0,1-1.843-.7,3.584,3.584,0,0,1-1.362-1.11,2.715,2.715,0,0,1-.521-1.659,3.2,3.2,0,0,1,1.252-2.71,7.336,7.336,0,0,1,4.307-.95l2.223.05a5.865,5.865,0,0,1,3.235.924,2.7,2.7,0,0,1,1.44,2.307.866.866,0,0,1-.306.744,1,1,0,0,1-.587.228H41.382a1.3,1.3,0,0,1-1.2-.863q-.412-.863-1.847-.863L35.7-15.919q-1.541,0-1.541,1.006,0,.551.976.9a16.109,16.109,0,0,0,2.364.617q1.388.269,2.788.646a5.8,5.8,0,0,1,2.376,1.24,2.751,2.751,0,0,1,.976,2.15,3.2,3.2,0,0,1-1.257,2.71,7.342,7.342,0,0,1-4.3.95l-2.653-.053a5.886,5.886,0,0,1-3.238-.924,2.7,2.7,0,0,1-1.445-2.307ZM45.429-6.609v-10.9a.772.772,0,0,1,.245-.578.817.817,0,0,1,.587-.236H56.353a.786.786,0,0,1,.582.245.808.808,0,0,1,.241.587v.823a.793.793,0,0,1-.241.582.793.793,0,0,1-.582.241H48.727V-13.3h6.567a.793.793,0,0,1,.582.241.793.793,0,0,1,.241.582v.823a.793.793,0,0,1-.241.582.793.793,0,0,1-.582.241H48.727v2.583h7.608a.776.776,0,0,1,.569.236.786.786,0,0,1,.236.578v.841a.786.786,0,0,1-.245.582.808.808,0,0,1-.587.241H46.258a.808.808,0,0,1-.587-.241.807.807,0,0,1-.242-.6Zm26.4.464q0,.377-.446.377h-2.1a1.438,1.438,0,0,1-.731-.241,1.77,1.77,0,0,1-.61-.583L66.449-8.918a2.637,2.637,0,0,0-2.225-1.441H62.091v3.767a.793.793,0,0,1-.241.582.793.793,0,0,1-.582.241H59.619a.808.808,0,0,1-.587-.241.786.786,0,0,1-.245-.582v-10.9a.817.817,0,0,1,.236-.587.772.772,0,0,1,.578-.245h7.223a4.939,4.939,0,0,1,3.288,1.077,3.6,3.6,0,0,1,1.283,2.907q0,2.548-3.3,3.2a2.566,2.566,0,0,1,.972.66A9.527,9.527,0,0,1,70.09-9.124l1.594,2.532a.917.917,0,0,1,.14.445Zm-9.736-6.689h3.73a3.384,3.384,0,0,0,1.589-.359A1.2,1.2,0,0,0,68.1-14.34a1.2,1.2,0,0,0-.687-1.147,3.384,3.384,0,0,0-1.589-.359h-3.73Zm10-4.755a.512.512,0,0,1-.053-.232.539.539,0,0,1,.162-.314.573.573,0,0,1,.46-.189h1.918a1.141,1.141,0,0,1,1.042.832L79-9.948l3.388-7.545a1.157,1.157,0,0,1,1.042-.832h1.918a.571.571,0,0,1,.464.189.544.544,0,0,1,.158.314.6.6,0,0,1-.044.232L80.886-6.661a1.33,1.33,0,0,1-1.254.892H78.374a1.33,1.33,0,0,1-1.252-.893Zm13.5,11.015,2.2-8.335q.893-3.406,5.814-3.415h4.719a.685.685,0,0,1,.538.245.838.838,0,0,1,.214.569V-6.574A.758.758,0,0,1,98.829-6a.824.824,0,0,1-.587.232H96.6A.8.8,0,0,1,96-6a.8.8,0,0,1-.232-.591V-8.8H89.549l-.59,2.206A1.03,1.03,0,0,1,88.564-6a1.056,1.056,0,0,1-.648.232H86.191a.575.575,0,0,1-.49-.2.577.577,0,0,1-.145-.346,1.353,1.353,0,0,1,.031-.263Zm4.607-4.7h5.577v-4.57h-2.5a2.351,2.351,0,0,0-1.467.477,2.33,2.33,0,0,0-.845,1.283ZM100.5-16.669v-.823a.807.807,0,0,1,.236-.6.807.807,0,0,1,.6-.236h11.111a.807.807,0,0,1,.6.236.807.807,0,0,1,.236.6v.823a.793.793,0,0,1-.236.591.817.817,0,0,1-.6.232h-3.9v9.272A.764.764,0,0,1,108.3-6a.809.809,0,0,1-.582.232h-1.655A.809.809,0,0,1,105.477-6a.765.765,0,0,1-.241-.573v-9.272h-3.9a.817.817,0,0,1-.6-.232.793.793,0,0,1-.238-.591Zm25.52,9.6A7.74,7.74,0,0,1,120.772-5.5a7.76,7.76,0,0,1-5.257-1.572q-1.8-1.572-1.795-4.978t1.795-4.973a7.775,7.775,0,0,1,5.257-1.567,7.757,7.757,0,0,1,5.253,1.567q1.791,1.567,1.791,4.973T126.02-7.064Zm-2.389-8.11a3.54,3.54,0,0,0-2.859-1.051,3.554,3.554,0,0,0-2.863,1.051,4.744,4.744,0,0,0-.888,3.13,4.726,4.726,0,0,0,.887,3.132,3.561,3.561,0,0,0,2.863,1.046,3.547,3.547,0,0,0,2.859-1.046,4.743,4.743,0,0,0,.884-3.125,4.761,4.761,0,0,0-.884-3.134Zm19.015,9.028q0,.377-.446.377h-2.1a1.438,1.438,0,0,1-.731-.241,1.77,1.77,0,0,1-.609-.582L137.27-8.919a2.637,2.637,0,0,0-2.224-1.44h-2.138v3.767a.793.793,0,0,1-.241.582.793.793,0,0,1-.582.241H130.44a.808.808,0,0,1-.587-.241.786.786,0,0,1-.245-.582v-10.9a.817.817,0,0,1,.236-.587.772.772,0,0,1,.578-.245h7.223a4.939,4.939,0,0,1,3.288,1.077,3.6,3.6,0,0,1,1.283,2.907q0,2.548-3.3,3.2a2.566,2.566,0,0,1,.973.66,9.526,9.526,0,0,1,1.024,1.361L142.5-6.592a.916.916,0,0,1,.142.445Zm-9.736-6.688h3.73a3.384,3.384,0,0,0,1.589-.359,1.2,1.2,0,0,0,.687-1.147,1.2,1.2,0,0,0-.687-1.147,3.384,3.384,0,0,0-1.589-.359h-3.73Zm9.85-5.069q0-.42.455-.42h1.664a1.707,1.707,0,0,1,1.523.832l2.837,4.366,2.829-4.369a1.72,1.72,0,0,1,1.523-.832h1.672q.446,0,.446.42a.772.772,0,0,1-.14.412l-4.684,7.241v3.679a.764.764,0,0,1-.241.573.808.808,0,0,1-.582.232h-1.65A.824.824,0,0,1,147.827-6a.758.758,0,0,1-.245-.573v-3.677l-4.675-7.241a.742.742,0,0,1-.147-.411Z" transform="translate(-0.774 75.555)" fill="#fff"/>
    </g>
    <rect id="Rectangle_38" data-name="Rectangle 38" width="27.579" height="11.721" rx="4" transform="translate(223 137)" fill="#4878ff"/>
    <text id="BETA" transform="translate(226 147)" fill="#fff" font-size="9" font-family="Inter"><tspan x="0" y="0">BETA</tspan></text>
  </g>
</svg>
