<svg xmlns="http://www.w3.org/2000/svg" width="26" height="26" viewBox="0 0 26 26">
    <g fill="none" fill-rule="evenodd">
        <g>
            <path d="M197 44H223V70H197z" transform="translate(-197.000000, -44.000000)"/>
            <g fill="#000" fill-rule="nonzero">
                <g>
                    <path d="M5.639.112c-.156.022-.297.105-.394.234L2.667 3.558l-1.34-1.392C1.174 2.004.95 1.94.74 1.998c-.21.058-.373.23-.427.448-.053.219.01.45.168.606l1.8 1.869c.12.122.282.188.45.18.167-.007.323-.087.432-.22l3-3.737c.166-.194.199-.475.082-.705-.117-.23-.36-.36-.607-.327zm1.865 2.813c-.331 0-.6.28-.6.623 0 .344.269.623.6.623h6.6c.332 0 .6-.279.6-.623s-.268-.623-.6-.623h-6.6zM5.64 6.965c-.156.021-.297.105-.394.233L2.667 10.41l-1.34-1.392C1.174 8.857.95 8.792.74 8.851c-.21.058-.373.23-.427.448-.053.218.01.45.168.605l1.8 1.87c.12.122.282.187.45.18.167-.007.323-.087.432-.22l3-3.738c.166-.194.199-.475.082-.704-.117-.23-.36-.36-.607-.327zm1.865 2.813c-.331 0-.6.279-.6.623s.269.623.6.623h6.6c.332 0 .6-.28.6-.623 0-.344-.268-.623-.6-.623h-6.6zm-1.865 4.04c-.156.02-.297.104-.394.233l-2.578 3.212-1.34-1.392c-.152-.162-.376-.226-.586-.168-.21.058-.373.23-.427.448-.053.219.01.45.168.606l1.8 1.869c.12.122.282.188.45.18.167-.007.323-.087.432-.22l3-3.737c.166-.194.199-.475.082-.705-.117-.23-.36-.36-.607-.327zm1.865 2.812c-.331 0-.6.279-.6.623s.269.623.6.623h6.6c.332 0 .6-.279.6-.623s-.268-.623-.6-.623h-6.6z" transform="translate(-197.000000, -44.000000) translate(203.000000, 47.000000)"/>
                </g>
            </g>
        </g>
    </g>
</svg>
