<svg width="12" height="12" viewBox="0 0 12 12" xmlns="http://www.w3.org/2000/svg">
    <g fill-rule="nonzero" fill="none">
        <path d="M6 0c3.308 0 6 2.692 6 6s-2.692 6-6 6C2.69 12 0 9.308 0 6s2.692-6 6-6" fill="#FFE1E1"/>
        <path d="M6.732 7.588 6.882 2h-1.76l.146 5.588h1.464zM6 10c.182 0 .348-.038.498-.114a.989.989 0 0 0 .363-.307.719.719 0 0 0 .139-.43c0-.231-.1-.43-.298-.594A1.065 1.065 0 0 0 6 8.307a1.06 1.06 0 0 0-.707.248A.754.754 0 0 0 5 9.15c0 .237.098.438.293.603.196.165.431.247.707.247z" fill="#FF7676"/>
    </g>
</svg>
