<svg width="44" height="44" viewBox="0 0 44 44" xmlns="http://www.w3.org/2000/svg">
    <g fill="none" fill-rule="evenodd">
        <path fill="transparent" d="M-46-626h1920v2526H-46z"/>
        <path d="M0 0h44v44H0z"/>
        <path d="M32.007 30.4v-8.8c0-.773-.404-1.488-1.064-1.886l-7.307-4.4a2.185 2.185 0 0 0-2.255 0l-7.307 4.4a2.202 2.202 0 0 0-1.067 1.885v8.802c0 .772.404 1.487 1.063 1.885l7.308 4.4c.694.418 1.56.418 2.254 0l7.308-4.4a2.202 2.202 0 0 0 1.067-1.885zm-9.5-13.202 6.24 3.76-6.24 3.758-6.241-3.759 6.24-3.759zm-7.308 13.203v-7.518l6.211 3.74v7.519L15.2 30.4zm8.404 3.74v-7.518l6.211-3.74V30.4l-6.211 3.74z" fill="#4874F4" fill-rule="nonzero"/>
        <path stroke="#E3E7EB" stroke-width="2" stroke-linecap="round" d="M22.507 11.6V4.4M31.978 34.46l5.657 5.756M12.035 34.46l-5.657 5.756"/>
    </g>
</svg>
