<svg xmlns="http://www.w3.org/2000/svg" width="26" height="26" viewBox="0 0 26 26">
    <g fill="none" fill-rule="evenodd">
        <g>
            <path d="M237 44H263V70H237z" transform="translate(-237.000000, -44.000000)"/>
            <g fill="#000" fill-rule="nonzero">
                <g>
                    <path d="M18.25 0H3.75C1.675 0 0 1.634 0 3.659v13.658C0 18.805 1.225 20 2.75 20h16.5c1.525 0 2.75-1.195 2.75-2.683V3.66C22 1.634 20.325 0 18.25 0zM3.75 1.463h14.5c1.25 0 2.25.976 2.25 2.196v.804h-19V3.66c0-1.22 1-2.196 2.25-2.196zm15.5 17.074H2.75c-.7 0-1.25-.537-1.25-1.22V5.927h19v11.39c0 .683-.55 1.22-1.25 1.22z" transform="translate(-237.000000, -44.000000) translate(239.000000, 47.000000)"/>
                    <path d="M7.2 8.61l-3.75 2.927c-.325.243-.375.707-.125 1.024.025.049.075.073.125.122L7.2 15.61l.95-1.147-3.025-2.365 3-2.342L7.2 8.61zM14.625 8.61l-.95 1.146 3.025 2.366-3.025 2.366.95 1.146 3.75-2.927c.325-.244.375-.707.125-1.024-.025-.049-.075-.073-.125-.122l-3.75-2.951z" transform="translate(-237.000000, -44.000000) translate(239.000000, 47.000000)"/>
                    <path d="M5.5 11.379L16.004 11.442 16.013 12.94 5.509 12.877z" transform="translate(-237.000000, -44.000000) translate(239.000000, 47.000000) translate(10.756290, 12.159707) rotate(104.358626) translate(-10.756290, -12.159707)"/>
                </g>
            </g>
        </g>
    </g>
</svg>
