<svg width="26" height="26" viewBox="0 0 26 26" xmlns="http://www.w3.org/2000/svg">
    <g fill="none" fill-rule="evenodd">
        <path d="M0 0h26v26H0z"/>
        <path d="M7.4 4C6.635 4 6 4.642 6 5.415v16.17C6 22.358 6.635 23 7.4 23h11.2c.765 0 1.4-.642 1.4-1.415V5.415C20 4.642 19.365 4 18.6 4H7.4zm0 1.213h11.2c.121 0 .2.08.2.202v16.17c0 .123-.079.202-.2.202H7.4c-.121 0-.2-.08-.2-.202V5.415c0-.122.079-.202.2-.202zM9 7.436c-.331 0-.6.272-.6.607 0 .335.269.606.6.606h8c.331 0 .6-.271.6-.606a.603.603 0 0 0-.6-.607H9zm0 3.639c-.331 0-.6.271-.6.606 0 .335.269.606.6.606h8c.331 0 .6-.271.6-.606a.603.603 0 0 0-.6-.606H9zm0 3.638c-.331 0-.6.271-.6.606 0 .335.269.607.6.607h8c.331 0 .6-.272.6-.607a.603.603 0 0 0-.6-.606H9zm0 3.638c-.331 0-.6.272-.6.607 0 .335.269.606.6.606h5.2c.331 0 .6-.271.6-.606a.603.603 0 0 0-.6-.607H9z" fill="#2149B9" fill-rule="nonzero"/>
    </g>
</svg>
