<svg xmlns="http://www.w3.org/2000/svg" width="22" height="22" viewBox="0 0 22 22">
    <path data-name="Rectangle 613" style="fill:none" d="M0 0h22v22H0z"/>
    <path data-name="Path 10" d="M263.216 157.5h2.149a.716.716 0 1 1 0 1.433h-2.149a.716.716 0 0 1 0-1.433zm0 5.732h2.149a.716.716 0 1 1 0 1.433h-2.149a.716.716 0 0 1 0-1.433zm0-2.866h5.732a.716.716 0 1 1 0 1.433h-5.732a.716.716 0 0 1 0-1.433z" transform="translate(-254.918 -151.918)" style="fill-rule:evenodd;fill:#2a2a2a"/>
    <path data-name="Path 11" d="M177.866 70h8.6a2.866 2.866 0 0 1 2.866 2.866V84.33a2.866 2.866 0 0 1-2.866 2.866h-8.6A2.866 2.866 0 0 1 175 84.33V72.866A2.866 2.866 0 0 1 177.866 70zm0 1.433a1.433 1.433 0 0 0-1.433 1.433V84.33a1.433 1.433 0 0 0 1.433 1.433h8.6a1.433 1.433 0 0 0 1.434-1.433V72.866a1.433 1.433 0 0 0-1.433-1.433z" style="fill:#2a2a2a" transform="translate(-171 -68)"/>
</svg>
