<?xml version="1.0" encoding="UTF-8" ?>
<svg
  width="29px"
  height="29px"
  viewBox="0 0 29 29"
  version="1.1"
  xmlns="http://www.w3.org/2000/svg"
  xmlns:xlink="http://www.w3.org/1999/xlink"
>
    <title>Group 3</title>
    <g
    id="XDC-Explorer-2"
    stroke="none"
    stroke-width="1"
    fill="none"
    fill-rule="evenodd"
  >
        <g
      id="Dashboard-TransactionDetails"
      transform="translate(-1462.000000, -226.000000)"
    >
            <g id="Group-3" transform="translate(1462.000000, 226.000000)">
                <rect id="Rectangle" x="0" y="0" width="29" height="29" />
                <g
          id="XDC-Copy"
          transform="translate(5.000000, 5.000000)"
          fill="#4878FF"
          fill-rule="nonzero"
        >
                    <path
            d="M3.75,5 L2.5,5 C1.80964406,5 1.25,5.55964406 1.25,6.25 L1.25,17.5 C1.25,18.1903559 1.80964406,18.75 2.5,18.75 L13.75,18.75 C14.4403559,18.75 15,18.1903559 15,17.5 L15,16.25 L6.25,16.25 C4.86928813,16.25 3.75,15.1307119 3.75,13.75 L3.75,5 Z M5,3.75 L5,13.75 C5,14.4403559 5.55964406,15 6.25,15 L16.25,15 L16.25,17.5 C16.25,18.8807119 15.1307119,20 13.75,20 L2.5,20 C1.11928813,20 0,18.8807119 0,17.5 L0,6.25 C0,4.86928813 1.11928813,3.75 2.5,3.75 L5,3.75 Z M6.25,1.25 C5.55964406,1.25 5,1.80964406 5,2.5 L5,13.75 C5,14.4403559 5.55964406,15 6.25,15 L17.5,15 C18.1903559,15 18.75,14.4403559 18.75,13.75 L18.75,2.5 C18.75,1.80964406 18.1903559,1.25 17.5,1.25 L6.25,1.25 Z M6.25,0 L17.5,0 C18.8807119,0 20,1.11928813 20,2.5 L20,13.75 C20,15.1307119 18.8807119,16.25 17.5,16.25 L6.25,16.25 C4.86928813,16.25 3.75,15.1307119 3.75,13.75 L3.75,2.5 C3.75,1.11928813 4.86928813,0 6.25,0 Z"
            id="Shape"
          />
                </g>
            </g>
        </g>
    </g>
</svg>
