<svg width="61" height="61" viewBox="0 0 61 61" fill="none" xmlns="http://www.w3.org/2000/svg">
    <path fill-rule="evenodd" clip-rule="evenodd" d="M10.78 15.213c-2.627 0-4.78 2.122-4.78 4.713V53.5c0 2.264 1.886 4.123 4.183 4.123h40.634c2.297 0 4.183-1.86 4.183-4.123V26.405c0-2.264-1.886-4.123-4.183-4.123H47.83v-5.89c0-.617-.57-1.179-1.195-1.179H10.78zm0 2.357H45.44v4.712H10.781c-1.345 0-2.39-1.03-2.39-2.356 0-1.326 1.045-2.356 2.39-2.356zm0 7.068c-.869 0-1.685-.24-2.39-.644V53.5c0 1 .78 1.767 1.793 1.767h40.634c1.014 0 1.793-.768 1.793-1.767v-7.069H35.28c-1.634 0-2.987-1.333-2.987-2.945V36.42c0-1.611 1.353-2.945 2.988-2.945H52.61v-7.069c0-1-.78-1.767-1.793-1.767l-11.91-.002H38.9c-9.038-.003-18.94-.006-28.12.002zm24.5 11.192h17.33v8.246H35.28c-.351 0-.597-.242-.597-.589V36.42c0-.347.246-.59.598-.59zm3.586 4.123c0-1.301 1.07-2.356 2.39-2.356s2.39 1.055 2.39 2.356-1.07 2.356-2.39 2.356-2.39-1.055-2.39-2.356z" fill="#fff"/>
    <mask id="a" style="mask-type:alpha" maskUnits="userSpaceOnUse" x="13" y="4" width="34" height="18">
        <path fill="#fff" d="M13 4h34v18H13z"/>
    </mask>
    <g mask="url(#a)">
        <path d="M29.998 11.976a6.52 6.52 0 0 0-6.274-2.918 6.541 6.541 0 0 0-5.368 4.38c-.812 2.371-.21 5 1.548 6.776L29.963 30.35a.122.122 0 0 0 .185 0l10.056-10.135a6.597 6.597 0 0 0 1.556-6.779 6.541 6.541 0 0 0-5.37-4.384 6.52 6.52 0 0 0-6.277 2.925.061.061 0 0 1-.115 0z" fill="#02ADFF"/>
    </g>
</svg>
