<?xml version="1.0" encoding="UTF-8"?>
<svg width="22px" height="22px" viewBox="0 0 22 22" version="1.1" xmlns="http://www.w3.org/2000/svg" xmlns:xlink="http://www.w3.org/1999/xlink">
    <title>29107171-0885-4BA3-97F5-70AF8E0B7622</title>
    <g id="1.1" stroke="none" stroke-width="1" fill="none" fill-rule="evenodd">
        <g id="Explorer-Assets-2" transform="translate(-682.000000, -475.000000)">
            <g id="Group-31" transform="translate(682.000000, 475.000000)">
                <rect id="Rectangle-Copy-31" x="0" y="0" width="22" height="22"></rect>
                <g id="ext_csv_filetype_icon_176252" transform="translate(4.000000, 2.000000)" fill-rule="nonzero">
                    <path d="M11.2,18 L2.8,18 C1.2536027,18 0,16.7911688 0,15.3 L0,2.7 C0,1.20883118 1.2536027,0 2.8,0 L8.95066667,0 C9.19551722,0.00099415939 9.43015674,0.0947302527 9.604,0.261 L13.7293333,4.239 C13.9017612,4.40663457 13.998969,4.63289411 14,4.869 L14,15.3 C14,16.7911688 12.7463973,18 11.2,18 Z" id="Path" fill="#4CAF50"></path>
                    <path d="M12.5115129,5 L9.3269183,5 C8.5940837,5 8,4.4059163 8,3.6730817 L8,0.488487108 C7.99921792,0.291100952 8.11776689,0.112800777 8.3000855,0.0371579503 C8.4824041,-0.0384848768 8.69235704,0.00352195714 8.83153692,0.143489361 L12.8565106,4.16846308 C12.996478,4.30764296 13.0384849,4.5175959 12.962842,4.6999145 C12.8871992,4.88223311 12.708899,5.00078208 12.5115129,5 Z" id="Path" fill="#B9F6CA"></path>
                    <path d="M4.23592868,14.9989351 C4.01320851,15.0088355 3.79189964,14.9495822 3.59058334,14.8261502 C3.40972884,14.7125474 3.25907468,14.5321347 3.15772975,14.3077955 C3.05038568,14.0632573 2.99601484,13.7858987 3.00032845,13.5048539 C2.99522637,13.2236934 3.04964955,12.9460678 3.15772975,12.7019123 C3.25715456,12.4780601 3.4085864,12.3002719 3.59058334,12.1937214 C3.79122514,12.0667837 4.01256582,12.0040359 4.23592868,12.0107727 C4.3274093,11.9964091 4.41990035,11.9964091 4.51138096,12.0107727 C4.61451376,12.0304674 4.71511198,12.0680752 4.81044344,12.1225747 C4.87298568,12.1536185 4.92564407,12.2108866 4.95997468,12.2851958 C4.98967115,12.3568754 5.00329849,12.4378311 4.999325,12.5189636 C4.99408872,12.5946817 4.97522363,12.6677718 4.94423455,12.7324038 C4.91563409,12.7983669 4.86722933,12.8461705 4.81044344,12.8645334 C4.75312326,12.8993822 4.68675212,12.8993822 4.62943194,12.8645334 C4.53355898,12.8053214 4.42876854,12.7740909 4.3224994,12.773059 C4.18456007,12.7624498 4.04977014,12.8291168 3.95260633,12.9560078 C3.86223227,13.1065226 3.81746177,13.2944343 3.82668529,13.4845263 C3.81595712,13.6748436 3.8608898,13.863436 3.95260633,14.0130448 C4.04644075,14.1472811 4.18279255,14.2184672 4.3224994,14.2061573 L4.47203064,14.2061573 L4.62943194,14.1350106 C4.68675212,14.1001618 4.75312326,14.1001618 4.81044344,14.1350106 C4.86472198,14.1547635 4.91028213,14.20257 4.93636448,14.2671402 C4.97072239,14.3296499 4.9898997,14.4039497 4.99145494,14.4805804 C4.99839092,14.5619574 4.98457479,14.6440346 4.95210461,14.7143482 C4.91777401,14.7886574 4.86511562,14.8459255 4.80257337,14.8769693 C4.70830126,14.9254369 4.61084445,14.962855 4.51138096,14.9887713 L4.23592868,14.9989351 Z" id="Path" fill="#E8F5E9"></path>
                    <path d="M6.96188548,14.9887689 C6.83051063,15.0037437 6.69838001,15.0037437 6.56700516,14.9887689 C6.44131813,14.9692678 6.31862531,14.925142 6.20309584,14.8578911 C6.12181838,14.8285161 6.05414786,14.7551921 6.0172698,14.6565406 C5.9942434,14.5718572 5.9942434,14.4794684 6.0172698,14.394785 C6.03751617,14.3097271 6.08177719,14.237789 6.14115382,14.1934344 C6.20898766,14.1468956 6.29011703,14.1468956 6.35795087,14.1934344 C6.46248407,14.2495759 6.57158113,14.2901055 6.68314643,14.3142448 C6.7809094,14.3286271 6.87960802,14.3286271 6.97737099,14.3142448 C7.05760965,14.3225337 7.13803896,14.3016181 7.20965353,14.2538396 C7.25377615,14.2207395 7.28049537,14.1589765 7.2793383,14.0927592 C7.28189844,14.0417187 7.26441434,13.9924623 7.23288179,13.9618814 C7.20234214,13.9216349 7.16532146,13.8906902 7.12448327,13.8712736 L6.63668992,13.7605309 C6.47683799,13.7421394 6.32660357,13.6533473 6.21083859,13.5088427 C6.10683422,13.3647296 6.0511295,13.1727897 6.05598356,12.9752639 C6.05598356,12.7901073 6.10216999,12.6099454 6.18761033,12.4618201 C6.28123928,12.3115076 6.40426787,12.1967479 6.5437769,12.1295918 C6.71179312,12.0462441 6.89047573,12.0052442 7.070284,12.0087815 C7.19141999,11.9970728 7.31305734,11.9970728 7.43419333,12.0087815 C7.54332157,12.0374427 7.64975449,12.0813223 7.75164614,12.1396593 C7.8238904,12.1731535 7.8807414,12.2470741 7.90650117,12.3410098 C7.92952757,12.4256932 7.92952757,12.518082 7.90650117,12.6027655 C7.88268135,12.6857761 7.83568497,12.7540723 7.77487439,12.7940484 C7.70704055,12.8405873 7.62591119,12.8405873 7.55807735,12.7940484 C7.47279281,12.7478713 7.3847486,12.7108338 7.2948238,12.6833057 C7.22531155,12.6742892 7.15528176,12.6742892 7.08576951,12.6833057 C6.99722685,12.6756383 6.90878247,12.7000323 6.83025871,12.7537783 C6.78314037,12.7841726 6.75319567,12.8464696 6.75283119,12.9148587 C6.75283119,13.015534 6.80703045,13.0759391 6.91542897,13.1061417 L7.41096507,13.2168845 C7.57130686,13.2368221 7.72287496,13.3212835 7.84455916,13.4585051 C7.94966309,13.597632 8.00572848,13.7871697 7.99941419,13.9820164 C8.00886216,14.2699726 7.90351344,14.5439323 7.72067513,14.7068782 C7.49915205,14.908655 7.23195453,15.007919 6.96188548,14.9887689 Z" id="Path" fill="#E8F5E9"></path>
                    <path d="M9.48758145,14.9995737 C9.2227063,15.0046625 8.98495777,14.8386995 8.89969249,14.5891911 L8.05395749,12.6706527 C7.98201417,12.5250791 7.98201417,12.3545459 8.05395749,12.2089723 C8.15400772,12.0606656 8.32965099,11.9812479 8.50776651,12.0037811 C8.61532302,11.9982799 8.72134067,12.0310087 8.80686791,12.0961171 C8.91154572,12.1805603 8.98723686,12.2952922 9.02345858,12.4244232 L9.51852297,13.6966091 L10.0445289,12.4141636 C10.0843535,12.292127 10.1554462,12.1825133 10.2508057,12.0961171 C10.3480191,12.030928 10.4637266,11.9985565 10.5808486,12.0037811 C10.6819141,11.9995589 10.7810167,12.0324193 10.8593224,12.0961171 C10.9347749,12.1575046 10.9829335,12.2459449 10.9934023,12.3423467 C11.011072,12.4544538 10.99304,12.569251 10.9418331,12.6706527 L10.0754704,14.5994507 C9.98939682,14.8469982 9.75071647,15.0094464 9.48758145,14.9995737 Z" id="Path" fill="#E8F5E9"></path>
                </g>
            </g>
        </g>
    </g>
</svg>