<svg width="18" height="18" fill="none" xmlns="http://www.w3.org/2000/svg">
    <path d="M9 1C4.587 1 1 4.587 1 9s3.587 8 8 8 8-3.587 8-8-3.587-8-8-8zm.724 6.501c.084 0 .135.067.135.135v.724a.133.133 0 0 1-.135.135h-2.56A5.09 5.09 0 0 0 7.131 9c0 .168.016.32.033.488h2.56c.084 0 .135.068.135.135v.724a.133.133 0 0 1-.135.135h-2.24c.438.876 1.247 1.482 2.173 1.482.59 0 1.162-.252 1.617-.69.05-.05.134-.05.185 0l.808.74c.05.051.068.152 0 .203-.724.724-1.65 1.128-2.61 1.128-1.668 0-3.1-1.196-3.655-2.863H5.06a.133.133 0 0 1-.135-.135v-.724c0-.084.068-.135.135-.135h.724C5.766 9.32 5.75 9.168 5.75 9c0-.168.017-.337.034-.488H5.06a.133.133 0 0 1-.135-.135v-.724c0-.085.068-.135.135-.135h.943c.556-1.667 1.97-2.863 3.655-2.863.977 0 1.903.404 2.61 1.128.05.05.05.152 0 .202l-.808.741a.132.132 0 0 1-.185 0c-.455-.454-1.028-.707-1.617-.707-.926 0-1.735.59-2.173 1.482h2.24z" fill="#3068F8"/>
</svg>
