<?xml version="1.0" encoding="UTF-8"?>
<svg width="42px" height="42px" viewBox="0 0 42 42" version="1.1" xmlns="http://www.w3.org/2000/svg" xmlns:xlink="http://www.w3.org/1999/xlink">
    <title>15F1FC49-4D10-48F4-8FA8-B4C35F3B04F4</title>
    <g id="Final" stroke="none" stroke-width="1" fill="none" fill-rule="evenodd">
        <g id="Explorer-Assets-2" transform="translate(-382.000000, -651.000000)">
            <g id="Group-18" transform="translate(382.000000, 651.000000)">
                <rect id="Rectangle-Copy-26" x="0" y="0" width="42" height="42"></rect>
                <g id="noun-exchange-2503233" transform="translate(2.000000, 2.000000)" fill-rule="nonzero">
                    <path d="M22.5872528,4.14255968 C30.7113376,6.65303054 40.3010546,16.5691337 37.5042837,30 C35.2401063,21.7154007 28.5808259,14.9375649 19.7904819,12.3010537 L18.3254016,16.3177681 L11,5.02094172 L24.0520572,0 L22.5869769,4.14216966 L22.5872528,4.14255968 Z" id="Path" fill="#2149B9"></path>
                    <path d="M15.4891108,33.8574403 C7.32477455,31.3469695 -2.31245532,21.4308663 0.498172353,8 C2.7735678,16.2845993 9.46584209,23.0624351 18.2997384,25.6989463 L19.7720776,21.6822319 L27,32.9790583 L14.0170489,38 L15.489388,33.8578303 L15.4891108,33.8574403 Z" id="Path" fill="#173894"></path>
                </g>
            </g>
        </g>
    </g>
</svg>