<svg xmlns="http://www.w3.org/2000/svg" width="44" height="44" viewBox="0 0 44 44">
    <g data-name="Gas price">
        <path data-name="Rectangle 612" style="fill:none" d="M0 0h44v44H0z"/>
        <path data-name="Path 44" d="m17.69 14.6-3.334 3.27a.581.581 0 0 1-.812 0 .557.557 0 0 1 0-.8l1.947-1.913H8.574a.564.564 0 1 1 0-1.128h6.92l-1.947-1.914a.557.557 0 0 1 0-.8.581.581 0 0 1 .812 0zm-7.066 7.9a11.124 11.124 0 0 1 .91-4.423.558.558 0 0 0-.309-.738.577.577 0 0 0-.751.3 12.222 12.222 0 0 0-1 4.861 12.62 12.62 0 0 0 12.71 12.493 12.781 12.781 0 0 0 5.486-1.221.563.563 0 0 0 .272-.752.579.579 0 0 0-.765-.265 11.63 11.63 0 0 1-4.99 1.11 11.481 11.481 0 0 1-11.563-11.373zm23.13 0a11.213 11.213 0 0 1-.29 2.535.561.561 0 0 0 .433.676.576.576 0 0 0 .688-.425 12.378 12.378 0 0 0 .316-2.786A12.618 12.618 0 0 0 22.188 10a12.862 12.862 0 0 0-4.51.81.56.56 0 0 0-.332.727.576.576 0 0 0 .74.327 11.7 11.7 0 0 1 4.1-.736 11.481 11.481 0 0 1 11.567 11.364zm-.22 8.462-1.947 1.913a.562.562 0 0 0 0 .8.583.583 0 0 0 .813 0l3.333-3.276-3.333-3.285a.581.581 0 0 0-.813 0 .557.557 0 0 0 0 .8l1.947 1.913h-6.92a.564.564 0 1 0 0 1.128h6.917z" transform="translate(.5 -.5)" style="fill-rule:evenodd;fill:#e5e8f0"/>
        <path data-name="Path 45" d="m14.357 17.87-.351-.356.35.356zm3.333-3.27.35-.357.363.357-.362.356-.351-.356zm-4.146 3.27.35-.356zm0-.8-.35-.357zm1.947-1.913v-.5h1.222l-.872.856zm0-1.128.351-.357.872.857h-1.221v-.5zm-1.946-1.914-.35.357zm.812-.8.35-.357zm-2.826 6.75-.46-.2zm-.308-.738-.188.463h-.006l.194-.461zm-.751.3-.46-.2zm17.2 16.133.214.452zm.272-.752-.449.22.45-.217zm-.765-.265-.213-.452zm6.287-7.72.487.113-.487-.115zm1.12.25-.487-.111zM17.68 10.81l-.176-.467.175.468zm-.333.728-.466.182zm.74.327-.176-.468.175.468zm13.5 21-.352-.354.35.356zm1.947-1.913v-.5h1.222l-.871.857-.35-.357zm-1.947 2.712-.35.356.352-.354zm.813 0-.35-.357zm3.333-3.276.35-.357.364.357-.363.357-.35-.357zM32.4 27.115l.35-.356zm-.813.8-.35.356zm1.947 1.913.35-.357.872.857h-1.218zM14.006 17.514l3.334-3.276.7.713-3.333 3.276-.7-.713zm-.112 0a.081.081 0 0 0 .112 0l.7.713a1.081 1.081 0 0 1-1.513 0zm0-.085a.058.058 0 0 0-.019.042.057.057 0 0 0 .02.043l-.7.713a1.057 1.057 0 0 1 0-1.512l.7.713zm1.947-1.914-1.947 1.913-.7-.713L15.14 14.8l.7.713zm-7.267-.856h6.917v1H8.574v-1zM8.5 14.6a.071.071 0 0 0 .074.064v1A1.07 1.07 0 0 1 7.5 14.6h1zm.074-.064a.07.07 0 0 0-.074.064h-1a1.07 1.07 0 0 1 1.074-1.064zm6.92 0h-6.92v-1h6.92zm-1.6-2.77 1.947 1.913-.7.713-1.941-1.918.7-.713zm0-.085a.058.058 0 0 0-.019.042.056.056 0 0 0 .02.043l-.7.713a1.057 1.057 0 0 1 0-1.512l.7.714zm.112 0a.081.081 0 0 0-.112 0l-.7-.714a1.081 1.081 0 0 1 1.513 0l-.7.714zm3.33 3.275-3.33-3.276.7-.713 3.332 3.276zm-5.346 3.316a10.642 10.642 0 0 0-.87 4.225h-1a11.651 11.651 0 0 1 .95-4.62zm-.579-1.4a1.06 1.06 0 0 1 .578 1.4l-.917-.4a.058.058 0 0 0-.038-.075l.377-.926zm-1.4.564a1.077 1.077 0 0 1 1.4-.561l-.388.922a.077.077 0 0 0-.1.038l-.917-.4zm-1.04 5.061a12.727 12.727 0 0 1 1.04-5.06l.918.4a11.721 11.721 0 0 0-.958 4.664zm13.21 12.993A13.12 13.12 0 0 1 8.975 22.492h1a12.12 12.12 0 0 0 12.21 11.993zm5.7-1.269a13.278 13.278 0 0 1-5.7 1.269v-1a12.273 12.273 0 0 0 5.273-1.174l.426.9zm.613-.962a1.063 1.063 0 0 1-.613.962l-.427-.9a.072.072 0 0 0 .031-.027.051.051 0 0 0 .01-.03h1zm-.106-.463a1.052 1.052 0 0 1 .107.463h-1a.07.07 0 0 0 0-.014v-.008l.9-.44zm-1.426-.5a1.079 1.079 0 0 1 1.427.5l-.9.435a.064.064 0 0 0-.04-.032.085.085 0 0 0-.064 0zm-4.778 1.062a11.133 11.133 0 0 0 4.777-1.061l.425.9a12.13 12.13 0 0 1-5.2 1.156v-1zm-11.06-10.866a10.979 10.979 0 0 0 11.064 10.864v1a11.979 11.979 0 0 1-12.064-11.864h1zm21.854 2.422a10.792 10.792 0 0 0 .275-2.422h1a11.752 11.752 0 0 1-.3 2.648l-.974-.226zm.812 1.277a1.061 1.061 0 0 1-.812-1.28l.973.23a.062.062 0 0 0 .053.073l-.214.977zm1.282-.8a1.074 1.074 0 0 1-1.282.8l.215-.977a.076.076 0 0 0 .093-.048l.974.223zm.33-2.9a12.812 12.812 0 0 1-.33 2.9l-.974-.227a11.829 11.829 0 0 0 .3-2.672h1zM22.187 9.5A13.118 13.118 0 0 1 35.4 22.492h-1A12.119 12.119 0 0 0 22.187 10.5v-1zm-4.684.84a13.359 13.359 0 0 1 4.684-.84v1a12.351 12.351 0 0 0-4.334.778l-.35-.937zm-.624 1.379a1.06 1.06 0 0 1 .623-1.377l.352.935a.072.072 0 0 0-.042.037.05.05 0 0 0 0 .041l-.932.364zm1.383.613a1.076 1.076 0 0 1-1.383-.613l.932-.364a.076.076 0 0 0 .1.041zm3.925-.7a11.2 11.2 0 0 0-3.927.7l-.349-.938a12.2 12.2 0 0 1 4.276-.767v1zm11.065 10.86a10.981 10.981 0 0 0-11.065-10.864v-1a11.98 11.98 0 0 1 12.065 11.864zM31.237 32.51l1.947-1.91.7.714-1.946 1.913-.7-.713zm0 1.51a1.062 1.062 0 0 1 0-1.507l.7.709a.062.062 0 0 0 0 .09l-.706.708zm1.515 0a1.081 1.081 0 0 1-1.513 0l.7-.713a.081.081 0 0 0 .112 0zm3.334-3.275-3.336 3.277-.7-.713 3.333-3.276.7.714zm-3.33-3.99 3.33 3.276-.7.713-3.331-3.275.7-.713zm-1.514 0a1.081 1.081 0 0 1 1.513 0l-.7.714a.081.081 0 0 0-.113 0l-.7-.713zm0 1.512a1.057 1.057 0 0 1 0-1.511l.7.713a.058.058 0 0 0-.018.043.06.06 0 0 0 .018.042l-.7.713zm1.946 1.914-1.947-1.914.7-.713 1.947 1.913-.7.713zm-6.569-.857h6.92v1h-6.92v-1zm-1.076 1.066a1.07 1.07 0 0 1 1.074-1.064v1a.071.071 0 0 0-.074.064zm1.074 1.064a1.07 1.07 0 0 1-1.074-1.064h1a.071.071 0 0 0 .074.064zm6.917 0h-6.917v-1h6.917z" transform="translate(.5 -.5)" style="fill:#e5e8f0"/>
        <path d="M107.778 35.511a.614.614 0 0 1 0 1.228h-3.635a3.44 3.44 0 0 0 0 1.228h2.407a.614.614 0 0 1 0 1.228h-1.965a2.885 2.885 0 0 0 .59.761 3.706 3.706 0 0 0 5.207 0 .608.608 0 1 1 .86.86 4.91 4.91 0 0 1-8.007-1.621h-1.277a.614.614 0 0 1 0-1.228h.958a5.131 5.131 0 0 1 0-1.228h-.958a.614.614 0 0 1 0-1.228h1.277a4.7 4.7 0 0 1 1.081-1.621 4.922 4.922 0 0 1 6.951 0 .608.608 0 1 1-.86.86 3.706 3.706 0 0 0-5.207 0 4.5 4.5 0 0 0-.59.761z" transform="translate(-84.396 -14.954)" style="fill:#2a2a2a;stroke:#292a29;stroke-width:.5px"/>
    </g>
</svg>
