<svg width="44" height="44" viewBox="0 0 44 44" xmlns="http://www.w3.org/2000/svg">
    <g fill="none" fill-rule="evenodd">
        <path fill="transparent" d="M-180-626h1920v2526H-180z"/>
        <path d="M0 0h44v44H0z"/>
        <g fill-rule="nonzero">
            <path d="M11.533 18.07c-.602 1.4-.91 2.888-.91 4.422 0 6.266 5.19 11.364 11.565 11.364a11.63 11.63 0 0 0 4.99-1.109.579.579 0 0 1 .765.265.563.563 0 0 1-.272.752c-1.72.81-3.563 1.22-5.485 1.22-7.006 0-12.71-5.605-12.71-12.492 0-1.687.335-3.322.998-4.861a.577.577 0 0 1 .751-.3c.294.12.433.452.308.738zm21.932 6.957c.191-.826.288-1.679.288-2.535 0-6.265-5.189-11.364-11.565-11.364a11.7 11.7 0 0 0-4.101.736.576.576 0 0 1-.74-.327.56.56 0 0 1 .332-.728c1.44-.536 2.956-.809 4.51-.809 7.01 0 12.712 5.606 12.712 12.492 0 .94-.105 1.878-.316 2.785a.576.576 0 0 1-.688.426.561.561 0 0 1-.432-.676zM17.69 14.595l-3.334 3.275a.581.581 0 0 1-.812 0 .557.557 0 0 1 0-.798l1.947-1.913H8.574A.57.57 0 0 1 8 14.595a.57.57 0 0 1 .574-.564h6.92l-1.947-1.914a.557.557 0 0 1 0-.798.581.581 0 0 1 .812 0l3.331 3.276zm13.897 18.272 1.947-1.913h-6.917a.57.57 0 0 1-.574-.564.57.57 0 0 1 .574-.564h6.92l-1.947-1.913a.557.557 0 0 1 0-.799.581.581 0 0 1 .813 0l3.33 3.276-3.333 3.276a.581.581 0 0 1-.813 0 .562.562 0 0 1 0-.799z" stroke="#E5E8F0" fill="#E5E8F0"/>
            <path d="M22.57 21.967c-.878-.205-1.568-.364-1.568-.852 0-.366.439-.542.897-.542.35 0 .658.107.826.324.214.28.586.417.958.417 1.133-.003 1.685-1.308.83-1.998-.394-.318-.914-.542-1.545-.653v-.638c0-.524-.46-.95-1.027-.95s-1.027.426-1.027.95v.629c-1.57.26-2.493 1.154-2.493 2.532 0 1.938 1.7 2.318 3.035 2.626.874.2 1.586.353 1.586.885 0 .438-.507.69-1.042.69-.37 0-.714-.12-.909-.364a1.295 1.295 0 0 0-1.003-.499h-.194c-1.023 0-1.584 1.105-.929 1.829.47.52 1.17.865 2.045 1.013v.677c0 .523.46.95 1.027.95s1.027-.427 1.027-.95v-.683c1.585-.271 2.646-1.19 2.646-2.71-.002-1.947-1.778-2.36-3.14-2.683z" fill="#4874F4"/>
        </g>
    </g>
</svg>
