<svg width="44" height="44" viewBox="0 0 44 44" xmlns="http://www.w3.org/2000/svg">
    <g fill="none" fill-rule="evenodd">
        <path fill="#transparent" d="M-188-705h1920v2526H-188z"/>
        <path d="M0 0h44v44H0z"/>
        <path d="M11.533 18.07c-.602 1.4-.91 2.888-.91 4.422 0 6.266 5.19 11.364 11.565 11.364a11.63 11.63 0 0 0 4.99-1.109.579.579 0 0 1 .765.265.563.563 0 0 1-.272.752c-1.72.81-3.563 1.22-5.485 1.22-7.006 0-12.71-5.605-12.71-12.492 0-1.687.335-3.322.998-4.861a.577.577 0 0 1 .751-.3c.294.12.433.452.308.738zm21.932 6.957c.191-.826.288-1.679.288-2.535 0-6.265-5.189-11.364-11.565-11.364a11.7 11.7 0 0 0-4.101.736.576.576 0 0 1-.74-.327.56.56 0 0 1 .332-.728c1.44-.536 2.956-.809 4.51-.809 7.01 0 12.712 5.606 12.712 12.492 0 .94-.105 1.878-.316 2.785a.576.576 0 0 1-.688.426.561.561 0 0 1-.432-.676zM17.69 14.595l-3.334 3.275a.581.581 0 0 1-.812 0 .557.557 0 0 1 0-.798l1.947-1.913H8.574A.57.57 0 0 1 8 14.595a.57.57 0 0 1 .574-.564h6.92l-1.947-1.914a.557.557 0 0 1 0-.798.581.581 0 0 1 .812 0l3.331 3.276zm13.897 18.272 1.947-1.913h-6.917a.57.57 0 0 1-.574-.564.57.57 0 0 1 .574-.564h6.92l-1.947-1.913a.557.557 0 0 1 0-.799.581.581 0 0 1 .813 0l3.33 3.276-3.333 3.276a.581.581 0 0 1-.813 0 .562.562 0 0 1 0-.799z" stroke="#E5E8F0" fill="#E5E8F0" fill-rule="nonzero"/>
        <path d="M23.61 27.199c-2.155 0-3.794-1.272-4.281-3.277h-.376a.694.694 0 0 1 0-1.386h.24c0-.202.002-.426.005-.63h-.245a.694.694 0 0 1 0-1.387h.42c.548-2.005 2.2-3.32 4.238-3.32.896 0 1.76.3 2.497.87a.69.69 0 0 1 .126.972.688.688 0 0 1-.973.124 2.691 2.691 0 0 0-1.65-.58c-1.281 0-2.317.74-2.782 1.935h3.944a.694.694 0 0 1 0 1.386h-4.19c-.003.197-.004.427-.004.63h3.9a.694.694 0 0 1 0 1.387H20.77c.417 1.195 1.44 1.89 2.84 1.89.607 0 1.195-.215 1.7-.62a.694.694 0 0 1 1.123.614.688.688 0 0 1-.254.465 4.07 4.07 0 0 1-2.57.927z" fill="#4874F4" fill-rule="nonzero"/>
    </g>
</svg>
