<svg width="39" height="39" viewBox="0 0 39 39" xmlns="http://www.w3.org/2000/svg">
    <g fill="none" fill-rule="evenodd">
        <path d="M0 0h39v39H0z"/>
        <g fill="#000" fill-rule="nonzero">
            <path d="M20.5 20a6.5 6.5 0 1 0-6.5-6.5 6.51 6.51 0 0 0 6.5 6.5zm0-11.064a4.563 4.563 0 1 1-4.563 4.564A4.568 4.568 0 0 1 20.5 8.939v-.003zM9.9 33c0-5.57 4.53-10.1 10.1-10.1 5.57 0 10.1 4.53 10.1 10.1H32a12 12 0 0 0-20.485-8.485A11.924 11.924 0 0 0 8 33h1.9z"/>
        </g>
    </g>
</svg>
