<svg width="102" height="102" viewBox="0 0 102 102" xmlns="http://www.w3.org/2000/svg" xmlns:xlink="http://www.w3.org/1999/xlink">
    <defs>
        <filter x="-29.6%" y="-21.7%" width="159.2%" height="159.2%" filterUnits="objectBoundingBox" id="32u72gi5la">
            <feOffset dy="6" in="SourceAlpha" result="shadowOffsetOuter1"/>
            <feGaussianBlur stdDeviation="6.5" in="shadowOffsetOuter1" result="shadowBlurOuter1"/>
            <feColorMatrix values="0 0 0 0 0 0 0 0 0 0 0 0 0 0 0 0 0 0 0.1 0" in="shadowBlurOuter1"/>
        </filter>
        <circle id="nz7mivljmb" cx="38" cy="38" r="38"/>
    </defs>
    <g fill="none" fill-rule="evenodd">
        <g transform="translate(13 7)">
            <use fill="#000" filter="url(#32u72gi5la)" xlink:href="#nz7mivljmb"/>
            <use fill="#FFF" xlink:href="#nz7mivljmb"/>
        </g>
        <path d="M39.473 42.143c-.003.013.057 0-.004 0v12.47h4.796v-12.47h-4.792zM44.265 38.786a2.398 2.398 0 1 1-4.796 0 2.398 2.398 0 0 1 4.796 0z" fill="#000" fill-rule="nonzero"/>
        <path d="M52.537 50.953c0 .06.051.107.114.107.921 0 2.936-.082 4.376-1.23 1.037-.819 2.282-2.376 2.282-4.398 0-1.967-1.245-3.224-1.993-3.935-1.44-1.366-3.312-1.557-4.665-1.557-.063 0-.114.048-.114.108v10.905zm.574-14.565c2.535 0 5.213.355 7.574 2.514 1.7 1.557 2.764 3.688 2.764 6.53 0 2.869-1.036 4.945-2.62 6.448-2.65 2.541-5.96 2.732-7.574 2.732h-5.153V36.388h5.01z" fill="#000"/>
        <path d="M52.475 22.078a23.854 23.854 0 0 0-10.244 1.42l-.452.168 1.465 3.883c.417 1.106 1.633 1.623 2.723 1.328a17.518 17.518 0 0 1 13.248 1.684 17.355 17.355 0 0 1 5.602 5.092 17.223 17.223 0 0 1 2.433 5.031c.38 1.288 1.645 2.228 3.041 1.99L74 42.04l-.082-.473a23.47 23.47 0 0 0-3.932-9.505c-2-2.842-4.606-5.211-7.633-6.937a23.823 23.823 0 0 0-9.878-3.048zm-14.117 7.855-2.39-2.871-.371.304a23.58 23.58 0 0 0-6.34 8.12 23.422 23.422 0 0 0 0 20.059 23.58 23.58 0 0 0 6.34 8.12l.37.304 2.391-2.87c.907-1.09.718-2.655-.218-3.626a17.285 17.285 0 0 1-3.179-4.597 17.186 17.186 0 0 1 0-14.72 17.285 17.285 0 0 1 3.179-4.598c.936-.97 1.125-2.536.218-3.625zm31.933 18.393c-1.396-.238-2.66.702-3.04 1.99a17.246 17.246 0 0 1-2.434 5.031 17.355 17.355 0 0 1-5.602 5.092 17.487 17.487 0 0 1-12.86 1.785c-1.307-.323-2.758.29-3.256 1.61l-1.32 3.5.452.168a23.854 23.854 0 0 0 20.122-1.628 23.65 23.65 0 0 0 7.633-6.937c1.999-2.842 3.342-6.088 3.933-9.505l.081-.473-3.709-.633z" fill="#0D51FF"/>
    </g>
</svg>
