<?xml version="1.0" encoding="UTF-8"?>
<svg width="40px" height="40px" viewBox="0 0 40 40" version="1.1" xmlns="http://www.w3.org/2000/svg" xmlns:xlink="http://www.w3.org/1999/xlink">
    <title>F8613FB2-C0B1-40D8-B845-02E646678886</title>
    <g id="Final" stroke="none" stroke-width="1" fill="none" fill-rule="evenodd">
        <g id="Explorer-Assets-2" transform="translate(-441.000000, -720.000000)">
            <g id="Group-21" transform="translate(441.000000, 720.000000)">
                <circle id="Oval-Copy-3" stroke="#EAEAEA" fill="#FFFFFF" cx="20" cy="20" r="19.5"></circle>
                <path d="M25.5118913,21.3582511 L25.5118913,21.3582511 C25.5118913,21.1043724 25.5883352,20.8758815 25.7667044,20.6981664 C25.9450736,20.5204513 26.1744054,20.4188999 26.4546999,20.4188999 C26.709513,20.4188999 26.9388448,20.4950635 27.117214,20.6981664 C27.3210646,20.8758815 27.3975085,21.1043724 27.3975085,21.3582511 C27.3975085,21.4598025 27.3720272,21.5359661 27.3720272,21.5867419 L31.5,25.6995769 L28.1874292,29 L21.511325,22.348378 L18.988675,22.348378 L12.3125708,29 L9,25.6995769 L14.7332956,19.9873061 L9,14.2750353 L12.3125708,11 L16.6698754,15.3667137 C16.7208381,15.3413258 16.797282,15.3413258 16.8992072,15.3413258 C17.1540204,15.3413258 17.3833522,15.4174894 17.5617214,15.5952045 C17.7655719,15.7983075 17.8420159,16.0014104 17.8420159,16.280677 C17.8420159,16.5345557 17.7655719,16.7630465 17.5617214,16.9407616 C17.3833522,17.1184767 17.1540204,17.2200282 16.8992072,17.2200282 C16.6189128,17.2200282 16.4150623,17.1438646 16.2112118,16.9407616 C16.0328426,16.7630465 15.9563986,16.5345557 15.9563986,16.280677 C15.9563986,16.1537377 15.9563986,16.077574 15.98188,16.0267983 L12.2870895,12.3201693 L10.299547,14.3004231 L16.0328426,20.0126939 L10.299547,25.7249647 L12.2870895,27.7052186 L18.580974,21.4090268 L21.8425821,21.4090268 L28.1619479,27.7052186 L30.1494904,25.7249647 L26.6840317,22.2722144 C26.6330691,22.2976023 26.5566251,22.2976023 26.4292186,22.2976023 C26.1489241,22.2976023 25.9450736,22.2214386 25.7412231,22.0437236 C25.5883352,21.8406206 25.5118913,21.6375176 25.5118913,21.3582511 Z M27.3214286,14.2014286 L27.3214286,14.2014286 C27.3214286,13.9442857 27.4242857,13.7128571 27.6042857,13.5328571 C27.7842857,13.3528571 28.0157143,13.25 28.2728571,13.25 C28.5557143,13.25 28.7614286,13.3271429 28.9671429,13.5328571 C29.1471429,13.7128571 29.25,13.9442857 29.25,14.2014286 C29.25,14.4842857 29.1471429,14.69 28.9671429,14.8957143 C28.7614286,15.0757143 28.5557143,15.1528571 28.2728571,15.1528571 C28.17,15.1528571 28.0671429,15.1528571 28.0157143,15.1271429 L22.6928571,20.45 L18.1671429,20.45 L13.1014286,25.5671429 C13.1528571,25.6442857 13.1785714,25.7471429 13.1785714,25.7728571 C13.1785714,26.0557143 13.0757143,26.2871429 12.8957143,26.4671429 C12.7157143,26.6471429 12.4842857,26.75 12.2014286,26.75 C11.9442857,26.75 11.7385714,26.6471429 11.5328571,26.4671429 C11.3528571,26.2871429 11.25,26.0557143 11.25,25.7728571 C11.25,25.5157143 11.3528571,25.31 11.5328571,25.1042857 C11.7128571,24.9242857 11.9442857,24.8214286 12.2014286,24.8214286 C12.2785714,24.8214286 12.3557143,24.8471429 12.4585714,24.8728571 L17.8328571,19.4728571 L22.2814286,19.4728571 L27.3471429,14.4328571 C27.3471429,14.3814286 27.3214286,14.3042857 27.3214286,14.2014286 Z M27.2247155,25.7544571 L27.2247155,25.7544571 C27.2247155,25.6523501 27.2503161,25.5757699 27.2503161,25.5247164 L23.0774336,21.3383306 L30.1687737,14.2929498 L28.1719343,12.3018639 L21.8230088,18.6324959 L15.8836915,18.6324959 L12.4532238,15.2119125 C12.3764223,15.2374392 12.3252212,15.2374392 12.2228192,15.2374392 C11.9412137,15.2374392 11.7364096,15.160859 11.5316056,14.9821718 C11.352402,14.7779579 11.25,14.5737439 11.25,14.2929498 C11.25,14.0376823 11.352402,13.8079417 11.5316056,13.6292545 C11.7364096,13.4505673 11.9412137,13.3484603 12.2228192,13.3484603 C12.4788243,13.3484603 12.7092288,13.4250405 12.8884324,13.6292545 C13.0676359,13.8079417 13.1700379,14.0376823 13.1700379,14.2929498 C13.1700379,14.3440032 13.1700379,14.36953 13.1444374,14.4205835 C13.1444374,14.471637 13.1188369,14.4971637 13.1188369,14.5482172 L16.2932996,17.6880065 L21.4646018,17.6880065 L28.1719343,11 L31.5,14.2929498 L24.4086599,21.3638574 L27.9159292,24.8865478 C28.0183312,24.8354943 28.0951327,24.8354943 28.1719343,24.8354943 C28.4535398,24.8354943 28.6583439,24.9376013 28.8631479,25.1162885 C29.0423515,25.2949757 29.1447535,25.5247164 29.1447535,25.7799838 C29.1447535,26.060778 29.0423515,26.2649919 28.8631479,26.4692058 C28.6583439,26.647893 28.4535398,26.75 28.1719343,26.75 C27.9159292,26.75 27.6855247,26.647893 27.5063211,26.4692058 C27.3271176,26.2394652 27.2247155,26.0352512 27.2247155,25.7544571 Z" id="Shape" fill="#007FAE" fill-rule="nonzero"></path>
            </g>
        </g>
    </g>
</svg>