<svg
  width="22"
  height="20"
  viewBox="0 0 22 20"
  xmlns="http://www.w3.org/2000/svg"
>
    <g fill="none" fill-rule="evenodd">
        <path d="M0 0h22v20H0z" />
        <g fill-rule="nonzero">
            <path
        d="M11.5 3c4.135 0 7.5 3.365 7.5 7.5S15.635 18 11.5 18C7.364 18 4 14.635 4 10.5S7.365 3 11.5 3"
        fill="#EBF0F5"
      />
            <path
        d="M11.9 12.384v-.145c.002-.279.038-.513.108-.703.07-.19.176-.358.32-.503.143-.145.327-.284.551-.418.267-.159.499-.337.695-.535.196-.197.349-.424.458-.682.11-.257.164-.551.164-.884 0-.497-.124-.922-.37-1.274a2.34 2.34 0 0 0-1.023-.807c-.435-.187-.935-.28-1.5-.28-.515 0-.985.092-1.411.275-.426.184-.768.46-1.027.831-.258.371-.395.84-.409 1.409h1.739a1.11 1.11 0 0 1 .17-.586c.105-.158.24-.277.405-.358.165-.081.34-.122.524-.122.19 0 .364.04.522.12a.94.94 0 0 1 .377.34c.094.148.14.32.14.516 0 .185-.04.352-.123.5-.082.15-.193.286-.332.408a4.02 4.02 0 0 1-.473.353 2.937 2.937 0 0 0-.605.495c-.168.182-.295.42-.382.716-.086.295-.131.691-.134 1.189v.145H11.9zm-.772 2.727c.182 0 .35-.046.503-.139.153-.092.277-.216.373-.37a.978.978 0 0 0-.164-1.23.99.99 0 0 0-.712-.298c-.284 0-.526.1-.727.298a.958.958 0 0 0-.296.716.97.97 0 0 0 .296.722c.2.2.443.3.727.3z"
        fill="#9FA9BA"
      />
        </g>
    </g>
</svg>
