<svg width="18" height="18" fill="none" xmlns="http://www.w3.org/2000/svg">
    <path fill-rule="evenodd" clip-rule="evenodd" d="M9 1a8 8 0 1 1 0 16A8 8 0 0 1 9 1zM5.866 4.194h6.275c.742 0 .742 1.13 0 1.13h-1.852c.316.412.52.906.606 1.417h1.246c.742 0 .742 1.13 0 1.13h-1.246c-.26 1.548-1.454 2.545-3.043 2.545h-.46l2.8 2.393c.561.482-.171 1.338-.733.857l-3.928-3.36c-.432-.32-.211-1.019.335-1.019h1.986c.932 0 1.663-.51 1.892-1.416H5.866c-.742 0-.742-1.13 0-1.13h3.878c-.227-.897-.946-1.409-1.87-1.416H5.866c-.746 0-.746-1.13 0-1.13z" fill="#F86C30"/>
</svg>
