<svg width="40" height="40" viewBox="0 0 40 40" xmlns="http://www.w3.org/2000/svg">
    <g fill="none" fill-rule="evenodd">
        <circle stroke="#EAEAEA" fill="#FFF" cx="20" cy="20" r="19.5"/>
        <path d="m16.292 20.002 6.457 6.517 4.076-4.113a1.831 1.831 0 0 1 2.537.067c.693.7.722 1.825.066 2.56l-5.378 5.43a1.845 1.845 0 0 1-2.604 0l-7.759-7.833v4.655c0 1.028-.825 1.86-1.844 1.86A1.852 1.852 0 0 1 10 27.286V12.713c0-1.027.825-1.86 1.843-1.86 1.019 0 1.844.833 1.844 1.86v4.656l7.758-7.83a1.844 1.844 0 0 1 2.604 0l5.382 5.427c.656.735.627 1.86-.066 2.56-.694.7-1.809.73-2.537.067l-4.076-4.113-6.46 6.522zm6.46-1.862c-.746 0-1.42.453-1.706 1.149a1.875 1.875 0 0 0 .4 2.03 1.833 1.833 0 0 0 2.011.404 1.863 1.863 0 0 0 1.14-1.72c0-.495-.194-.969-.54-1.318a1.837 1.837 0 0 0-1.305-.546z" fill="#23AF91"/>
    </g>
</svg>
