<svg width="50" height="50" viewBox="0 0 50 50" xmlns="http://www.w3.org/2000/svg">
    <g fill="none" fill-rule="evenodd">
        <path d="M0 0h50v50H0z"/>
        <path d="M12.517 44.742a3.258 3.258 0 1 1-6.516 0 3.258 3.258 0 0 1 6.516 0zm6.91-3.258a3.274 3.274 0 1 1-.014 0h.014zm10.168 0a3.274 3.274 0 1 1-.014 0h.014zm10.168 0a3.274 3.274 0 1 1-.014 0h.014zm-5.253-6.522H14.433a3.488 3.488 0 0 1-3.484-3.484l.067-12.66a3.493 3.493 0 0 1 2.664-3.4v-2.646a10.676 10.676 0 0 1 3.268-7.715A10.786 10.786 0 0 1 24.5 2h.244A10.973 10.973 0 0 1 35.2 12.987v2.4a3.488 3.488 0 0 1 2.841 3.426l-.067 12.66a3.488 3.488 0 0 1-3.464 3.493v-.004zM27.754 24.9a3.258 3.258 0 1 0-6.516.008 3.258 3.258 0 0 0 6.516-.008zm1.39-11.979a4.733 4.733 0 0 0-4.725-4.854c-1.15 0-2.258.428-3.11 1.2a4.7 4.7 0 0 0-1.567 3.5v2.563h9.4l.002-2.409z" fill="#2149B9" fill-rule="nonzero"/>
    </g>
</svg>
