<svg width="82" height="82" fill="none" xmlns="http://www.w3.org/2000/svg">
    <path fill-rule="evenodd" clip-rule="evenodd" d="M4.646 54.235A1.5 1.5 0 0 1 4 53.002V26c0-.6.418-1.2.982-1.408l28.5-10.5a1.5 1.5 0 0 1 1.372.174l19.5 13.5c.386.27.646.759.646 1.234v27a1.5 1.5 0 0 1-.982 1.408l-28.5 10.5a1.521 1.521 0 0 1-1.372-.173l-19.5-13.5zM26.5 64.351 52 54.956V31.152l-17 6.263-8.5 3.132V64.35zm7.287-47.174 16.486 11.414-25.06 9.233-2.747-1.902-13.74-9.512 25.061-9.233zM23.5 40.287 7 28.863v23.352L23.5 63.64V40.287z" fill="#5F85EF"/>
    <path d="M65.984 53.852a1.504 1.504 0 0 1 2.177-2.076l6.918 7.252a1.504 1.504 0 1 1-2.176 2.076l-6.919-7.252z" stroke="#fff" stroke-width="2"/>
    <path clip-rule="evenodd" d="M53.819 23A14 14 0 0 0 40 34.741L44.512 37 40 39.259a14 14 0 0 0 27.638 0L63.121 37l4.516-2.258A14 14 0 0 0 53.819 23z" stroke="#fff" stroke-width="2"/>
    <path d="m51.312 42.769 2.477-4.212 2.469 4.212h2.327l-3.549-5.79 3.476-5.694h-2.3l-2.414 4.149-2.418-4.149h-2.3l3.478 5.695-3.557 5.79 2.311-.001z" fill="#fff"/>
</svg>
