<svg width="44" height="44" viewBox="0 0 44 44" xmlns="http://www.w3.org/2000/svg">
    <g fill="none" fill-rule="evenodd">
        <path fill="#transparent" d="M-521-623h1920v2526H-521z"/>
        <path d="M0 0h44v44H0z"/>
        <g fill-rule="nonzero">
            <path d="M26.565 22.168a4.4 4.4 0 1 0-8.8 0 4.4 4.4 0 0 0 8.8 0z" fill="#4874F4"/>
            <path d="m12.439 13.214 5.564 5.564c.232-.284.491-.543.775-.775l-5.564-5.564c-.215.298-.477.56-.775.775zM18.78 26.332a5.436 5.436 0 0 1-.775-.775l-5.564 5.564c.298.215.56.477.775.775l5.564-5.564z" fill="#E5E8F0"/>
            <path d="M10.443 31.451a2.443 2.443 0 1 0 0 4.886 2.443 2.443 0 0 0 0-4.886zM10.443 12.885a2.443 2.443 0 1 0 0-4.886 2.443 2.443 0 0 0 0 4.886z" fill="#4874F4"/>
            <path d="M25.558 18.003c.284.232.543.491.775.775l5.564-5.564a3.451 3.451 0 0 1-.775-.775l-5.564 5.564z" fill="#E5E8F0"/>
            <path d="M33.893 12.885a2.443 2.443 0 1 0 0-4.886 2.443 2.443 0 0 0 0 4.886z" fill="#4874F4"/>
            <path d="m31.897 31.122-5.564-5.564a5.432 5.432 0 0 1-.775.775l5.564 5.564c.215-.298.477-.56.775-.775z" fill="#E5E8F0"/>
            <path d="M33.893 31.451a2.443 2.443 0 1 0 0 4.886 2.443 2.443 0 0 0 0-4.886z" fill="#4874F4"/>
        </g>
    </g>
</svg>
