<svg width="28" height="20" viewBox="0 0 28 20" xmlns="http://www.w3.org/2000/svg">
    <g fill="none" fill-rule="evenodd">
        <path d="M0 0h28v20H0z"/>
        <path d="M21.56 5.269c1.7 1.097 3.205 2.551 4.44 4.276-2.863 4-7.175 6.546-12 6.546-1.005 0-1.988-.11-2.94-.322l1.54-1.54c.444.131.914.202 1.4.202 2.714 0 4.914-2.187 4.914-4.885 0-.494-.073-.97-.21-1.42zM14 3c1.263 0 2.492.175 3.668.504L16.062 5.11A4.92 4.92 0 0 0 14 4.66c-2.714 0-4.914 2.188-4.914 4.886 0 .741.166 1.445.464 2.074L7.003 14.17C5.072 13.04 3.37 11.459 2 9.545 4.863 5.547 9.175 3 14 3zm3.505 6.324c.004.073.007.147.007.222 0 1.928-1.572 3.49-3.512 3.49a3.59 3.59 0 0 1-.202-.005zM14 6.054c.34 0 .668.049.979.138l-4.347 4.346a3.473 3.473 0 0 1-.144-.992c0-1.928 1.572-3.491 3.512-3.491z" fill="#C7CDD9" fill-rule="nonzero"/>
        <path stroke="#C7CDD9" stroke-width="2" stroke-linecap="round" d="M8 16 21 3"/>
    </g>
</svg>
