<svg width="24" height="24" viewBox="0 0 24 24" fill="none" xmlns="http://www.w3.org/2000/svg">
    <path fill-rule="evenodd" clip-rule="evenodd" d="M4.375 10.428c0-3.296 2.27-6.064 5.344-6.848v-.812c0-.976.8-1.768 1.781-1.768.984 0 1.781.79 1.781 1.768v.812c3.074.785 5.344 3.553 5.344 6.848v4.714c0 .437.354.787.79.787A1.58 1.58 0 0 1 21 17.5a1.58 1.58 0 0 1-1.587 1.571H3.587A1.579 1.579 0 0 1 2 17.5c0-.866.71-1.571 1.584-1.571a.79.79 0 0 0 .791-.787v-4.714zm7.125 12.18a2.76 2.76 0 0 0 2.77-2.75H8.73a2.76 2.76 0 0 0 2.77 2.75z" fill="#4878FF"/>
</svg>
