<svg width="22" height="22" viewBox="0 0 22 22" xmlns="http://www.w3.org/2000/svg">
    <g fill="none" fill-rule="evenodd">
        <path d="M0 0h22v22H0z"/>
        <g fill-rule="nonzero">
            <path d="M5 3h8.496L18 7.486V18a1 1 0 0 1-1 1H5a1 1 0 0 1-1-1V4a1 1 0 0 1 1-1z" fill="#E2574C"/>
            <path d="M18 8h-3.885A1.115 1.115 0 0 1 13 6.886V3l5 5z" fill="#B53629"/>
            <path d="M14.75 10.577c.168 0 .25-.147.25-.288 0-.147-.086-.289-.25-.289h-.955c-.186 0-.29.155-.29.326v2.348c0 .21.119.326.28.326.16 0 .28-.116.28-.326v-.644h.577c.18 0 .269-.147.269-.293 0-.143-.09-.284-.269-.284h-.577v-.876h.685zM11.523 10h-.699a.31.31 0 0 0-.324.324v2.352c0 .24.193.315.332.315h.733c.868 0 1.441-.571 1.441-1.453 0-.933-.54-1.538-1.483-1.538zm.033 2.411h-.426v-1.83h.384c.581 0 .834.39.834.928 0 .504-.248.902-.792.902zM8.996 10h-.691c-.196 0-.305.13-.305.326v2.348c0 .21.125.326.293.326.168 0 .293-.116.293-.326v-.685h.434c.536 0 .978-.38.978-.99 0-.598-.427-.999-1.001-.999zm-.01 1.438h-.4v-.886h.4c.246 0 .402.192.402.443 0 .25-.156.443-.403.443z" fill="#FFF"/>
        </g>
    </g>
</svg>
