<svg width="60" height="60" viewBox="0 0 60 60" xmlns="http://www.w3.org/2000/svg">
    <g fill="none" fill-rule="evenodd">
        <path d="M0 0h60v60H0z"/>
        <g fill-rule="nonzero">
            <g fill="#213D8B">
                <path d="M25.71 26.48c7.928 0 14.434 6.262 14.603 13.981l.004.31v8.284c0 .683-.56 1.272-1.234 1.339l-.128.006H7.961a1.378 1.378 0 0 1-1.355-1.218l-.006-.127v-8.284c0-7.757 6.4-14.12 14.291-14.287l.317-.003h4.501zm0 2.636h-4.502c-6.474 0-11.793 5.092-11.955 11.36l-.004.295-.001 6.994h28.42v-6.994c0-6.304-5.22-11.493-11.656-11.652l-.303-.003z"/>
                <path d="M23.574 9.6c4.892 0 8.876 3.943 8.876 8.794 0 4.767-3.836 8.654-8.606 8.791l-.26.004h-.25c-4.89 0-8.868-3.941-8.868-8.795 0-4.766 3.837-8.653 8.607-8.79l.26-.004h.24zm0 2.635h-.25c-3.433 0-6.218 2.76-6.218 6.16 0 3.324 2.663 6.036 5.99 6.155l.228.004h.25c3.433 0 6.218-2.76 6.218-6.16 0-3.4-2.785-6.16-6.218-6.16z"/>
            </g>
            <path d="M33.5 26.092c-.563 0-1 .444-1 1.015a.994.994 0 0 0 1 1.015H49v-2.03H33.5zM32 28.447V41.57c0 .702.557 1.268 1.25 1.268h17.5c.692 0 1.25-.566 1.25-1.268v-2.284h-7.75c-.684 0-1.25-.575-1.25-1.269v-4.06c0-.693.566-1.268 1.25-1.268H52v-2.284c0-.703-.558-1.268-1.25-1.268l-17.484-.016A1.989 1.989 0 0 1 32 28.447zm12.25 5.257c-.147 0-.25.104-.25.254v4.06c0 .149.103.253.25.253H52v-4.567h-7.75zm2.5 1.522c.414 0 .75.341.75.761s-.336.762-.75.762a.756.756 0 0 1-.75-.762c0-.42.336-.76.75-.76z" fill="#02ADFF"/>
        </g>
    </g>
</svg>
