<svg width="48" height="46" fill="none" xmlns="http://www.w3.org/2000/svg">
    <path d="m39.618 16.018-.016-.688V2.31l-3.58 3.6C33.092 2.302 28.635 0 23.642 0c-5.195 0-9.81 2.493-12.73 6.353l5.868 5.962a7.876 7.876 0 0 1 2.379-2.681c1.024-.804 2.476-1.461 4.484-1.461.242 0 .43.028.567.082a7.729 7.729 0 0 1 5.914 3.581l-4.156 4.178 13.648.003" fill="#1C3AA9"/>
    <path d="m23.55 0-.684.019H9.916l3.58 3.6A16.057 16.057 0 0 0 7.62 16.063c0 5.222 2.48 9.864 6.319 12.798l5.93-5.9a7.787 7.787 0 0 1-2.667-2.39c-.8-1.03-1.454-2.49-1.454-4.508 0-.244.029-.432.082-.57a7.784 7.784 0 0 1 3.562-5.947l4.154 4.177L23.547 0" fill="#4285F4"/>
    <path d="m7.62 16.063.015.689v13.02l3.58-3.6c2.93 3.606 7.387 5.91 12.38 5.91 5.194 0 9.811-2.494 12.729-6.354l-5.868-5.962a7.802 7.802 0 0 1-2.377 2.681c-1.024.804-2.476 1.462-4.484 1.462a1.59 1.59 0 0 1-.567-.083 7.729 7.729 0 0 1-5.914-3.581l4.154-4.177c-5.262.02-11.205.034-13.648-.002" fill="#ABABAB"/>
    <path d="M10.315 38.302c-.39 0-.738.074-1.047.223a2.172 2.172 0 0 0-.785.622c-.211.27-.374.597-.488.981a4.524 4.524 0 0 0-.166 1.282v1.362c0 .475.055.904.166 1.285.114.38.275.706.483.976.208.27.46.478.755.622.296.145.627.218.996.218.38 0 .712-.056.997-.167.289-.113.53-.272.724-.48.195-.213.344-.47.45-.77.108-.3.171-.641.192-1.022h-.933a4.147 4.147 0 0 1-.121.754 1.33 1.33 0 0 1-.252.51.96.96 0 0 1-.422.293c-.171.06-.383.09-.634.09a1.26 1.26 0 0 1-.684-.176 1.384 1.384 0 0 1-.458-.496 2.49 2.49 0 0 1-.252-.735 5.13 5.13 0 0 1-.075-.906v-1.371c0-.348.03-.663.09-.947.064-.283.16-.524.287-.723.127-.2.289-.353.483-.46.195-.114.426-.168.694-.168.226 0 .418.034.58.102a.953.953 0 0 1 .402.301c.107.135.187.307.246.516.06.21.094.459.116.75h.93a3.73 3.73 0 0 0-.185-1.057 2.204 2.204 0 0 0-.45-.774 1.862 1.862 0 0 0-.7-.475 2.534 2.534 0 0 0-.94-.163v.003zm22.725 0c-.39 0-.738.074-1.047.223a2.172 2.172 0 0 0-.785.622c-.211.27-.374.597-.488.981a4.524 4.524 0 0 0-.166 1.282v1.362c0 .475.055.904.166 1.285.114.38.275.706.483.976.208.27.46.478.755.622.296.145.627.218.996.218.38 0 .712-.056.997-.167.289-.113.53-.272.724-.48.195-.213.344-.47.45-.77.108-.3.172-.641.192-1.022h-.931a4.139 4.139 0 0 1-.12.754c-.058.208-.142.376-.253.51a.96.96 0 0 1-.422.293c-.171.06-.383.09-.634.09a1.26 1.26 0 0 1-.684-.176 1.384 1.384 0 0 1-.458-.496 2.489 2.489 0 0 1-.252-.735 5.125 5.125 0 0 1-.075-.906v-1.371c0-.348.03-.663.09-.947.064-.283.16-.524.287-.723.128-.2.289-.353.483-.46.195-.114.426-.168.695-.168.225 0 .417.034.578.102a.954.954 0 0 1 .403.301c.107.135.187.307.246.516.06.21.094.459.116.75h.93a3.722 3.722 0 0 0-.185-1.057 2.202 2.202 0 0 0-.45-.774 1.864 1.864 0 0 0-.7-.475 2.534 2.534 0 0 0-.94-.163l-.001.003zm-17.419.101L13.26 45.77h.946l.569-1.923h2.475l.58 1.923h.945l-2.365-7.367h-.788zm4.151 0v7.367h.92v-2.884h1.413c.352 0 .664-.049.936-.147a1.787 1.787 0 0 0 1.107-1.133c.097-.28.146-.597.146-.951a2.67 2.67 0 0 0-.146-.9 1.96 1.96 0 0 0-.418-.714 1.85 1.85 0 0 0-.69-.47 2.42 2.42 0 0 0-.935-.168h-2.333zm5.229 0v.8h1.922v6.567h.919v-6.567h1.927v-.8h-4.768zm11.558 0v7.367h.92v-3.405h2.946v3.405h.926v-7.367h-.926v3.168h-2.949v-3.168h-.917zm8.288 0-2.36 7.367h.946L44 43.847h2.476l.579 1.923H48l-2.365-7.367h-.788zm-24.154.8h1.414c.225 0 .416.04.574.121.154.076.288.187.392.324.104.135.18.292.226.47a2.092 2.092 0 0 1 0 1.124 1.25 1.25 0 0 1-.226.453c-.1.124-.232.222-.392.293-.158.071-.35.106-.574.106h-1.414v-2.891zm-4.68.496 1.002 3.349h-2l.998-3.35zm29.226 0 1.001 3.349h-2l1-3.35zm-43.345.495c-.232 0-.431.06-.6.178-.164.118-.3.278-.412.48l-.015-.556H0v5.474h.89v-3.916c.084-.233.203-.415.358-.551a.888.888 0 0 1 .599-.203l.206.01c.066.005.131.013.196.026l-.005-.87a.296.296 0 0 0-.065-.02.58.58 0 0 0-.091-.026.972.972 0 0 0-.106-.015.47.47 0 0 0-.09-.01h.002zm2.994 0c-.256 0-.51.046-.75.137a1.607 1.607 0 0 0-.644.452 2.375 2.375 0 0 0-.45.81c-.114.33-.171.735-.171 1.22v.617c0 .418.048.78.146 1.087.097.307.236.562.417.764.185.2.408.348.67.446.261.098.554.147.88.147.235 0 .445-.024.63-.071.187-.047.353-.108.497-.182.145-.078.269-.166.373-.264.104-.097.193-.199.266-.301l-.463-.567a2.467 2.467 0 0 1-.236.253c-.084.074-.176.14-.277.197a1.535 1.535 0 0 1-.74.172c-.412 0-.73-.133-.95-.4-.218-.266-.327-.693-.327-1.281v-.127h3.037v-.52c0-.419-.035-.788-.105-1.109-.07-.32-.183-.59-.338-.81a1.462 1.462 0 0 0-.593-.495c-.242-.115-.534-.172-.876-.172l.004-.003zm0 .77c.194 0 .355.035.483.106a.78.78 0 0 1 .302.298c.077.128.132.282.166.46.037.176.06.37.07.582v.122H3.764c.013-.307.05-.562.112-.764.063-.203.14-.363.237-.48a.792.792 0 0 1 .347-.254c.13-.045.273-.07.427-.07z" fill="#A6A6A6"/>
</svg>
