<svg xmlns="http://www.w3.org/2000/svg" width="26" height="26" viewBox="0 0 26 26">
    <g fill="none" fill-rule="evenodd">
        <g>
            <path d="M277 44H303V70H277z" transform="translate(-277.000000, -44.000000)"/>
            <g fill="#000" fill-rule="nonzero">
                <g>
                    <path d="M.649 10.837c-.342.004-.656.314-.649.654v4.728c0 .337.31.644.649.644H15.35c.34 0 .649-.307.649-.644V11.49c.005-.34-.306-.654-.649-.654-.342 0-.653.313-.648.654v4.084H1.297V11.49c.008-.344-.302-.657-.648-.654z" transform="translate(-277.000000, -44.000000) translate(282.000000, 48.000000)"/>
                    <path d="M7.999 13.85c-.155-.006-.333-.07-.446-.175l-3.676-3.443c-.21-.233-.298-.68-.054-.941.24-.257.705-.25.946.006l2.581 2.421V.724c0-.357.29-.646.649-.646.358 0 .649.289.649.646v10.994l2.58-2.42c.222-.22.704-.262.947-.007.242.254.165.717-.054.941l-3.676 3.443c-.126.118-.274.175-.446.175z" transform="translate(-277.000000, -44.000000) translate(282.000000, 48.000000)"/>
                </g>
            </g>
        </g>
    </g>
</svg>
