<svg width="17" height="14" viewBox="0 0 17 14" xmlns="http://www.w3.org/2000/svg">
    <path d="M1.275 0a.838.838 0 0 0-.85.849c0 .477.372.848.85.848H14.45V0H1.275zM0 1.97v10.97C0 13.527.474 14 1.063 14h14.875A1.06 1.06 0 0 0 17 12.94v-2.334h-6.587c-.582 0-1.063-.48-1.063-1.06V7c0-.58.481-1.06 1.063-1.06H17V3.605a1.06 1.06 0 0 0-1.062-1.06L1.076 2.531A1.7 1.7 0 0 1 0 1.97zm10.413 4.82A.203.203 0 0 0 10.2 7v2.546c0 .125.087.212.213.212H17v-2.97h-6.587zm2.125.848a.637.637 0 1 1 0 1.274.637.637 0 0 1 0-1.274z" fill="#4878FF" fill-rule="nonzero"/>
</svg>
