<svg xmlns="http://www.w3.org/2000/svg" xmlns:xlink="http://www.w3.org/1999/xlink" width="414.584" height="340.278" viewBox="0 0 414.584 340.278">
  <defs>
    <clipPath id="clip-path">
      <rect id="Rectangle_8" data-name="Rectangle 8" width="11.508" height="10.632" fill="none"/>
    </clipPath>
    <clipPath id="clip-path-2">
      <rect id="Rectangle_9" data-name="Rectangle 9" width="6.664" height="14.115" fill="none"/>
    </clipPath>
    <clipPath id="clip-path-3">
      <rect id="Rectangle_10" data-name="Rectangle 10" width="14.305" height="6.258" fill="none"/>
    </clipPath>
    <clipPath id="clip-path-4">
      <rect id="Rectangle_12" data-name="Rectangle 12" width="14.576" height="5.611" fill="none"/>
    </clipPath>
  </defs>
  <g id="Group_36" data-name="Group 36" transform="translate(-740 -202.832)">
    <path id="Union_1" data-name="Union 1" d="M7.572,28.449a13.455,13.455,0,0,1-3.729-9.315V13.5A13.5,13.5,0,0,1,17.343,0H58.028a13.5,13.5,0,0,1,13.5,13.5v5.635a13.5,13.5,0,0,1-13.5,13.5H17.343a13.48,13.48,0,0,1-4.543-.783L0,36.088Z" transform="translate(1071.272 241.446)" fill="#fff" stroke="#406ae2" stroke-linecap="round" stroke-linejoin="round" stroke-width="1"/>
    <path id="Path_55" data-name="Path 55" d="M97.569,59.89c-.756-4.18-5.941-6.534-9.677-6.88s-8.6,1.144-11.071,3.592c-1.692,1.678-2.863,3.921-5.218,4.822-2.077.8-4.638.338-6.587,1.346-4.675,2.415-1.056,9.8-5.25,12.8-1.516,1.086-3.812,1.338-4.9,2.756-1.493,1.945.293,4.572-.213,6.864-.8,3.613-6.822,5.073-7.352,8.723-.486,3.351,3.893,5.553,5.689,8.553.827,1.382,1.117,3,2.164,4.263,1.4,1.694,3.862,2.433,6.2,2.941a19.815,19.815,0,0,0,6.167.569c7.173-.729,11.951-7.709,19.149-8.229,3.147-.228,6.317.854,9.432.4,4.235-.616,7.49-4.419,6.931-8.1-.3-1.971-1.532-3.84-1.337-5.82.265-2.695,3.094-4.8,3.391-7.5.371-3.364-4.377-6.768-4.038-10.135.2-2.036,1.146-3.813,1.65-5.81,1-3.961-1.974-5.867-6.036-5.293" transform="translate(735.246 209.348)" fill="#220e59"/>
    <path id="Path_56" data-name="Path 56" d="M92.514,138.239l6.737,29.807s-33.572,1.98-50.525-14.9c0,0-12.35-66.6,27.321-62.925,30.575,2.836,30.5,19.318,16.467,48.021" transform="translate(735.282 205.616)" fill="#d0d0d0"/>
    <path id="Path_57" data-name="Path 57" d="M124.189,348.513l-9.989-.594-.575,15.134,4.546-.111-.248-1.708,5.955,1.952,24.071.244a33.277,33.277,0,0,0-12.855-6.41,16.774,16.774,0,0,1-10.9-8.508" transform="translate(728.571 179.68)" fill="#220e59"/>
    <path id="Path_58" data-name="Path 58" d="M61.828,347.515l-8.195-.608-2.622,15.5,4.654-.114.762-1.748,7.114,2,22.614.25A34.059,34.059,0,0,0,72.89,356.2a16.877,16.877,0,0,1-11.013-8.595Z" transform="translate(734.869 179.781)" fill="#220e59"/>
    <path id="Path_59" data-name="Path 59" d="M95.634,158.355s-25.9,13.477-47.075,1.488c0,0-8.343,19.561-1.283,46.695s16.195,74.83,1.435,124.049c0,0,11.176,5.784,21.176,2.314,0,0,22.314-52.534,21.03-86.609,0,0,17.969,30.92,10.269,85.187,0,0,11.552,4.418,21.82.631,0,0,7.7-25.24,8.343-52.375s-5.776-57.422-15.4-76.983S98,164.217,95.634,158.355" transform="translate(735.53 198.747)" fill="#2149b9"/>
    <path id="Path_60" data-name="Path 60" d="M53.746,163.974c-2.529,11.606-2.184,23.548-.758,35.276,1.471,12.1,4,24.048,5.777,36.105,1.423,9.626,2.414,19.351,2.937,29.069a224.531,224.531,0,0,1-.3,29.622,229.19,229.19,0,0,1-5.368,34.115q-.529,2.272-1.1,4.532a.29.29,0,0,0,.559.155,237.6,237.6,0,0,0,6.094-34.368,220.262,220.262,0,0,0,.878-30.1c-.352-9.242-1.225-18.465-2.38-27.64-1.527-12.138-4.057-24.118-5.812-36.22-1.729-11.925-2.7-24.131-.782-36.1q.345-2.159.814-4.293c.08-.364-.479-.52-.559-.155" transform="translate(734.782 198.203)" fill="#eeeff2"/>
    <path id="Path_61" data-name="Path 61" d="M107.774,305.658S113.388,243.1,87,201.519c0,0,7.672,18.4,8.607,50.045,0,0,1.914,4.721,3.93,9.568,6.737,16.191,8.233,44.525,8.233,44.525" transform="translate(731.249 194.405)" fill="#220e59"/>
    <path id="Path_62" data-name="Path 62" d="M86.287,200.962c1.051,2.775,1.961,5.6,2.789,8.451q1.441,4.958,2.556,10,1.186,5.317,2.031,10.7c.554,3.557.986,7.135,1.245,10.726a82.089,82.089,0,0,1,.174,9.867q-.027.565-.065,1.13c-.025.373.555.371.58,0a76.606,76.606,0,0,0-.027-9.757c-.215-3.563-.611-7.114-1.125-10.646q-.793-5.446-1.959-10.83-1.1-5.108-2.5-10.141c-.827-2.937-1.738-5.852-2.785-8.719q-.171-.471-.35-.94c-.13-.345-.692-.2-.559.155" transform="translate(731.323 194.497)" fill="#eeeff2"/>
    <path id="Path_63" data-name="Path 63" d="M67.312,165.22a16.947,16.947,0,0,1-10.437,6.944,16.354,16.354,0,0,1-3.611.361.291.291,0,0,0,0,.581,17.687,17.687,0,0,0,12.12-4.743,16.522,16.522,0,0,0,2.429-2.85c.21-.311-.293-.6-.5-.293" transform="translate(734.671 198.07)" fill="#eeeff2"/>
    <path id="Path_64" data-name="Path 64" d="M71.664,166.058a18.58,18.58,0,0,1-5.871,6.647,21.412,21.412,0,0,1-7.939,3.3,24.952,24.952,0,0,1-4.9.48.29.29,0,0,0,0,.58,24.531,24.531,0,0,0,8.751-1.571,20.151,20.151,0,0,0,7.415-4.88,19.227,19.227,0,0,0,3.045-4.266c.174-.33-.326-.624-.5-.293" transform="translate(734.702 197.987)" fill="#eeeff2"/>
    <path id="Path_65" data-name="Path 65" d="M46.832,167.835a5.531,5.531,0,0,0,2.714,1.085.291.291,0,0,0,.291-.29.3.3,0,0,0-.291-.291,4.981,4.981,0,0,1-2.421-1.006.292.292,0,0,0-.4.1.3.3,0,0,0,.1.4" transform="translate(735.304 197.848)" fill="#eeeff2"/>
    <path id="Path_66" data-name="Path 66" d="M48.585,171.774a5,5,0,0,1-2.644-.839.292.292,0,0,0-.4.1.3.3,0,0,0,.1.4,5.568,5.568,0,0,0,2.937.918.29.29,0,0,0,0-.58" transform="translate(735.423 197.486)" fill="#eeeff2"/>
    <path id="Path_67" data-name="Path 67" d="M86.3,164.1a61.337,61.337,0,0,1,.485,15.974q-.228,2.271-.629,4.519c-.065.365.495.522.56.154a61.928,61.928,0,0,0,.714-16.282q-.2-2.269-.571-4.519c-.059-.367-.619-.211-.559.155" transform="translate(731.334 198.206)" fill="#eeeff2"/>
    <path id="Path_68" data-name="Path 68" d="M102.846,163.617a6.862,6.862,0,0,1-5.811-2.653c-.232-.294-.639.12-.411.41a7.4,7.4,0,0,0,6.222,2.823c.371-.026.373-.607,0-.58" transform="translate(730.288 198.495)" fill="#eeeff2"/>
    <path id="Path_69" data-name="Path 69" d="M104.175,167a12,12,0,0,1-9.275-2.906,11.043,11.043,0,0,1-1.868-2.127c-.208-.309-.711-.019-.5.292a12.476,12.476,0,0,0,8.672,5.3,11.785,11.785,0,0,0,2.973.021c.366-.044.371-.625,0-.58" transform="translate(730.698 198.397)" fill="#eeeff2"/>
    <path id="Path_70" data-name="Path 70" d="M90.475,89.4l.106-3s7.239,2.351,7.961-4.089C99.8,71.09,100.784,68.12,96.551,64.2S80,63.967,79.706,73.441l-.785,13.731a10.156,10.156,0,0,0,5.018,2.358,14.472,14.472,0,0,0,6.536-.13" transform="translate(732.062 208.373)" fill="#91aeff"/>
    <path id="Path_71" data-name="Path 71" d="M92.609,75.477c-.089.445,0,.837.2.876s.436-.291.525-.736,0-.836-.2-.876-.436.291-.525.736" transform="translate(730.688 207.158)" fill="#220e59"/>
    <path id="Path_72" data-name="Path 72" d="M99,76.672c-.089.445,0,.837.2.876s.436-.291.525-.736,0-.836-.2-.876-.436.291-.525.736" transform="translate(730.046 207.038)" fill="#220e59"/>
    <path id="Path_73" data-name="Path 73" d="M91.485,88.649a12.224,12.224,0,0,1-6.007-4.028L91.134,91.8Z" transform="translate(731.402 206.164)" fill="#220e59"/>
    <path id="Path_78" data-name="Path 78" d="M92.9,71.523c-.026.307.4.591.942.636s1.009-.169,1.035-.476-.4-.591-.942-.635-1.009.168-1.035.475" transform="translate(730.655 207.53)" fill="#220e59"/>
    <path id="Path_79" data-name="Path 79" d="M99.263,72.63c-.171.257.062.705.52,1s.97.324,1.14.067-.062-.705-.52-1-.97-.324-1.14-.067" transform="translate(730.021 207.387)" fill="#220e59"/>
    <path id="Path_80" data-name="Path 80" d="M75.627,75.043A3.483,3.483,0,0,1,79.9,72.654a3.41,3.41,0,0,1,2.429,4.2,3.482,3.482,0,0,1-4.272,2.39,3.412,3.412,0,0,1-2.43-4.2" transform="translate(732.406 207.38)" fill="#91aeff"/>
    <path id="Path_81" data-name="Path 81" d="M78.918,74.79a1.782,1.782,0,0,1,1.54,2.016.23.23,0,0,0,.157.277.227.227,0,0,0,.276-.157,2.235,2.235,0,0,0-1.972-2.585.226.226,0,0,0-.225.225.23.23,0,0,0,.225.225" transform="translate(732.085 207.198)" fill="#220e59"/>
    <path id="Path_82" data-name="Path 82" d="M97.869,64.654c-.516,1.8-2.495,2.818-4.374,3.114s-3.819.085-5.682.468-3.768,1.611-4.025,3.465a3.5,3.5,0,0,1-.3,1.486,1.442,1.442,0,0,1-1.5.526,2.541,2.541,0,0,1-1.372-.933,5.021,5.021,0,0,1-.887-4.159A8.48,8.48,0,0,1,81.8,64.792a11.468,11.468,0,0,1,7.375-3.873,9.029,9.029,0,0,1,7.656,2.973" transform="translate(731.993 208.552)" fill="#220e59"/>
    <path id="Path_83" data-name="Path 83" d="M94.1,94.668a16.6,16.6,0,0,1-9.267,2.587,16.264,16.264,0,0,1-8.7-2.791,15.906,15.906,0,0,1-3.731-3.5c-.224-.292-.729,0-.5.293a16.934,16.934,0,0,0,22.494,3.91c.314-.2.022-.7-.293-.5" transform="translate(732.774 205.538)" fill="#eeeff2"/>
    <path id="Path_84" data-name="Path 84" d="M97.675,98.212s15.394,13.479,32.909,11.552,22.791-21.634,23.4-28.835l16-2.025a54.749,54.749,0,0,1-7.782,32.4c-11.431,18.753-38.011,31.314-68.873,11.326Z" transform="translate(730.613 206.739)" fill="#91aeff"/>
    <path id="Path_85" data-name="Path 85" d="M86.973,121.121c19.5,13.324,33.669,13.034,33.669,13.034a39.852,39.852,0,0,1,3.828-22.819C111.7,107.165,109.3,99.987,96.543,94.8" transform="translate(731.252 205.14)" fill="#d0d0d0"/>
    <path id="Path_86" data-name="Path 86" d="M121.429,111.106a36.563,36.563,0,0,0-3.766,8.752,34.62,34.62,0,0,0-1.333,9.517,31.056,31.056,0,0,0,.482,5.346c.065.367.625.211.559-.155a33.518,33.518,0,0,1,2.2-18.46,35.6,35.6,0,0,1,2.357-4.707.29.29,0,0,0-.5-.293" transform="translate(728.299 203.514)" fill="#eeeff2"/>
    <g id="Group_21" data-name="Group 21" transform="translate(877.515 322.308)" style="mix-blend-mode: soft-light;isolation: isolate">
      <g id="Group_20" data-name="Group 20" transform="translate(0)">
        <g id="Group_19" data-name="Group 19" clip-path="url(#clip-path)">
          <path id="Path_87" data-name="Path 87" d="M162.969,119.9c-2.318-.892-6.111.895-8.472,3.993-1.728,2.267-1.954,4.967-1.181,6.409a63.359,63.359,0,0,0,7.622-5.838,18.457,18.457,0,0,0,3.464-3.78,4.135,4.135,0,0,0-1.433-.784" transform="translate(-152.894 -119.67)" fill="#220e59"/>
        </g>
      </g>
    </g>
    <path id="Path_88" data-name="Path 88" d="M94.822,81.6a1.6,1.6,0,0,1,1.006,1.324c0,.186-.031.579-.389.615s-.638-.316-.987-.429-.907.138-1.263-.182a.651.651,0,0,1-.106-.792,1.584,1.584,0,0,1,1.807-.518" transform="translate(730.646 206.476)" fill="#220e59"/>
    <path id="Path_89" data-name="Path 89" d="M160.763,80.349s1-11.361,11.885-5.138a14.887,14.887,0,0,0,5.638.194c3.807-.613,7.051-3.948,8.362-1.167,1.054,2.238-6.612,6.416-11.279,6.028s-14.606.083-14.606.083" transform="translate(723.829 207.318)" fill="#91aeff"/>
    <path id="Path_90" data-name="Path 90" d="M169.865,73.656c3.6.62,7.62.872,11.774-1.773,2.194-1.395,3.193-.593,3.472-.151.376.6-.064,1.368-.539,1.892a11.393,11.393,0,0,1-8.64,3.7" transform="translate(722.914 207.524)" fill="#91aeff"/>
    <path id="Path_91" data-name="Path 91" d="M176.18,79.8a13.151,13.151,0,0,0,8.4-2.392,4.278,4.278,0,0,1,1.485-.788,1.092,1.092,0,0,1,1.289.751,2.522,2.522,0,0,1-.953,2.263c-2.669,2.6-6.953,4.468-10.109,3.769" transform="translate(722.279 206.971)" fill="#91aeff"/>
    <path id="Path_92" data-name="Path 92" d="M178.557,79.8a14.819,14.819,0,0,0,4.283-1.473c.554-.276,1.1-.568,1.662-.827a4.064,4.064,0,0,1,2.555-.617c.271.065.387-.353.115-.417a3.822,3.822,0,0,0-2.46.465c-.614.277-1.214.579-1.815.883a15.121,15.121,0,0,1-4.456,1.569c-.274.043-.158.461.115.417" transform="translate(722.067 206.99)" fill="#220e59"/>
    <path id="Path_93" data-name="Path 93" d="M176.562,77.274a31.7,31.7,0,0,0,5.192-1.757c.92-.419,1.783-.934,2.668-1.419a9.5,9.5,0,0,1,1.311-.613c.259-.1.147-.514-.115-.417a16.126,16.126,0,0,0-2.357,1.19,22.343,22.343,0,0,1-3.417,1.569c-1.113.4-2.251.733-3.4,1.03a.217.217,0,0,0,.115.417" transform="translate(722.267 207.327)" fill="#220e59"/>
    <path id="Path_94" data-name="Path 94" d="M161.676,76.831c1.595-3.39,5.459-6.228,7.84-7.6a3.031,3.031,0,0,1,1.267-.479,1.141,1.141,0,0,1,1.138.591,1.552,1.552,0,0,1-.125,1.2,8.191,8.191,0,0,1-4.956,4.55" transform="translate(723.738 207.76)" fill="#91aeff"/>
    <path id="Path_95" data-name="Path 95" d="M166.56,80.773a3.279,3.279,0,0,1,4.951-.754c.2.194.506-.112.306-.306a3.716,3.716,0,0,0-5.631.841c-.134.245.24.463.374.219" transform="translate(723.287 206.752)" fill="#220e59"/>
    <path id="Path_96" data-name="Path 96" d="M168.548,72.6a12.143,12.143,0,0,0,6.345.224,30.446,30.446,0,0,0,4.607-2.072,3.282,3.282,0,0,1,1.442-.45,1.166,1.166,0,0,1,1.161.8,1.618,1.618,0,0,1-.722,1.422,10.949,10.949,0,0,1-9.267,2.49" transform="translate(723.046 207.604)" fill="#91aeff"/>
    <path id="Path_97" data-name="Path 97" d="M175.453,75.125a14.183,14.183,0,0,0,3.7-1.317c1.2-.582,2.366-1.246,3.534-1.9.243-.136.025-.51-.219-.374-1.141.635-2.275,1.283-3.449,1.855a13.973,13.973,0,0,1-3.677,1.314c-.274.048-.158.465.115.417" transform="translate(722.379 207.483)" fill="#220e59"/>
    <path id="Path_98" data-name="Path 98" d="M61.473,88.89S41.25,92,27.506,80.972s-7.618-30.486-4.261-36.887l-12.412-10.3A54.75,54.75,0,0,0,.008,65.3c-.421,21.958,15.264,46.823,52.032,46.525Z" transform="translate(740 211.277)" fill="#91aeff"/>
    <path id="Path_99" data-name="Path 99" d="M61.112,117.875c-23.607.773-35.4-7.074-35.4-7.074a39.861,39.861,0,0,0,9.018-21.309c13.017,3.338,18.889-1.435,32.437,1.042" transform="translate(737.414 205.674)" fill="#d0d0d0"/>
    <path id="Path_100" data-name="Path 100" d="M39.383,91.262a35.966,35.966,0,0,1-1.489,9.23,34.06,34.06,0,0,1-3.9,8.584,30.181,30.181,0,0,1-3.209,4.18c-.253.274.156.686.41.41a31.9,31.9,0,0,0,5.3-7.915,36.108,36.108,0,0,0,2.917-9.139,36.68,36.68,0,0,0,.552-5.35c.012-.373-.569-.373-.58,0" transform="translate(736.911 205.524)" fill="#eeeff2"/>
    <g id="Group_24" data-name="Group 24" transform="translate(740.368 283.017)" style="mix-blend-mode: soft-light;isolation: isolate">
      <g id="Group_23" data-name="Group 23" transform="translate(0 0)">
        <g id="Group_22" data-name="Group 22" clip-path="url(#clip-path-2)">
          <path id="Path_101" data-name="Path 101" d="M2.039,76.141c2.435.491,4.675,4.035,5,7.917C7.284,86.9,6.025,89.3,4.6,90.1a63.314,63.314,0,0,1-3.3-9.017,18.46,18.46,0,0,1-.893-5.048,4.14,4.14,0,0,1,1.63.107" transform="translate(-0.409 -75.984)" fill="#220e59"/>
        </g>
      </g>
    </g>
    <path id="Path_102" data-name="Path 102" d="M23.707,43.067s5.258-10.12-7.269-10.715a14.9,14.9,0,0,1-4.862-2.863c-2.884-2.562-3.831-7.116-6.429-5.473-2.09,1.322,2.134,8.963,6.281,11.14s12.28,7.91,12.28,7.91" transform="translate(739.538 212.295)" fill="#91aeff"/>
    <path id="Path_103" data-name="Path 103" d="M20.644,33.156c-3.371-1.409-6.9-3.355-8.983-7.816-1.1-2.355-2.375-2.214-2.848-1.99-.638.3-.68,1.189-.562,1.885a11.4,11.4,0,0,0,5.3,7.759" transform="translate(739.175 212.338)" fill="#91aeff"/>
    <path id="Path_104" data-name="Path 104" d="M12.4,35.191A13.152,13.152,0,0,1,6.6,28.662,4.276,4.276,0,0,0,5.768,27.2a1.094,1.094,0,0,0-1.491-.058,2.525,2.525,0,0,0-.411,2.422c.858,3.625,3.468,7.5,6.508,8.606" transform="translate(739.623 211.972)" fill="#91aeff"/>
    <path id="Path_105" data-name="Path 105" d="M11,33.719a15.833,15.833,0,0,1-3.051-3.946c-.356-.6-.718-1.2-1.115-1.78A3.4,3.4,0,0,0,5.2,26.578c-.264-.09-.378.328-.115.418A3.447,3.447,0,0,1,6.69,28.561c.362.557.7,1.127,1.042,1.7a15.358,15.358,0,0,0,2.96,3.766c.208.184.515-.121.306-.306" transform="translate(739.504 212.003)" fill="#220e59"/>
    <path id="Path_106" data-name="Path 106" d="M13.986,32.619a30.824,30.824,0,0,1-3.4-4.228c-.549-.848-1-1.748-1.485-2.63a9.752,9.752,0,0,0-.782-1.217c-.167-.219-.543,0-.374.219a16.217,16.217,0,0,1,1.338,2.26,22.9,22.9,0,0,0,2.087,3.21c.725.936,1.507,1.827,2.314,2.692.19.205.5-.1.306-.306" transform="translate(739.205 212.216)" fill="#220e59"/>
    <path id="Path_107" data-name="Path 107" d="M26.319,40.524c.473-3.716-1.263-8.185-2.535-10.622a3.034,3.034,0,0,0-.812-1.085A1.145,1.145,0,0,0,21.7,28.7a1.557,1.557,0,0,0-.538,1.078,8.2,8.2,0,0,0,1.739,6.5" transform="translate(737.883 211.803)" fill="#91aeff"/>
    <path id="Path_108" data-name="Path 108" d="M20.981,41.551a3.714,3.714,0,0,0-4.311-3.722c-.273.057-.157.475.115.417a3.28,3.28,0,0,1,3.763,3.3c-.019.278.415.278.433,0" transform="translate(738.339 210.877)" fill="#220e59"/>
    <path id="Path_109" data-name="Path 109" d="M22.508,33.074a12.136,12.136,0,0,1-5.474-3.217,30.5,30.5,0,0,1-2.775-4.221,3.286,3.286,0,0,0-.975-1.154,1.167,1.167,0,0,0-1.41.054,1.62,1.62,0,0,0-.154,1.588A10.949,10.949,0,0,0,18.2,33.2" transform="translate(738.834 212.234)" fill="#91aeff"/>
    <path id="Path_110" data-name="Path 110" d="M16.265,31.518a13.94,13.94,0,0,1-2.394-3.083c-.684-1.113-1.293-2.269-1.916-3.417-.132-.246-.506-.027-.374.219.637,1.175,1.26,2.357,1.963,3.494a14.168,14.168,0,0,0,2.415,3.093c.205.188.513-.118.306-.306" transform="translate(738.838 212.17)" fill="#220e59"/>
    <path id="Path_111" data-name="Path 111" d="M294.22,102.084c-.66,16.056-8.531,27.227,5.414,34.371,7.238,3.707,19.827-6.29,25.409-19.236,2.537-5.884,21.634-5.4,8.311,18.524-11.774,21.143-39.944,23.347-47.105,20.74-9.131-3.323,8.794-74.471,7.97-54.4" transform="translate(711.469 204.766)" fill="#91aeff"/>
    <g id="Group_27" data-name="Group 27" transform="translate(994.759 357.691)" style="mix-blend-mode: soft-light;isolation: isolate">
      <g id="Group_26" data-name="Group 26" transform="translate(0)">
        <g id="Group_25" data-name="Group 25" clip-path="url(#clip-path-3)">
          <path id="Path_112" data-name="Path 112" d="M283.882,160.419c1.71-1.847,6-1.882,9.586-.077,2.621,1.32,4.13,3.258,4.086,4.926a36.207,36.207,0,0,1-9.717-1.549,18.689,18.689,0,0,1-4.588-2.135,2.592,2.592,0,0,1,.633-1.165" transform="translate(-283.25 -159.01)" fill="#220e59"/>
        </g>
      </g>
    </g>
    <path id="Path_113" data-name="Path 113" d="M344.474,102.985s-2.862-6.224,5.575-7.812a6.062,6.062,0,0,0-4.625-2.863c-2.833-.453-3.069-3.579.622-3.429s8.356,3.218,9.175,7.572-.845,9.74-3.511,15.032-7.236-8.5-7.236-8.5" transform="translate(705.47 205.736)" fill="#91aeff"/>
    <path id="Path_114" data-name="Path 114" d="M346.037,98.72a4.014,4.014,0,0,1,2.636,2.618,1.2,1.2,0,0,1-.935,1.465,2.423,2.423,0,0,1-1.992-.617c-.221-.169-.437.207-.219.374a3.1,3.1,0,0,0,1.855.721,1.873,1.873,0,0,0,1.466-.706c.788-1.038-.1-2.5-.92-3.22a6.119,6.119,0,0,0-1.776-1.053c-.259-.1-.371.315-.115.417" transform="translate(705.254 204.789)" fill="#220e59"/>
    <path id="Path_115" data-name="Path 115" d="M347.31,98.789a5.216,5.216,0,0,1,5.915-2.887c.271.064.387-.353.115-.417a5.649,5.649,0,0,0-6.4,3.086c-.117.251.256.471.374.219" transform="translate(705.105 205.086)" fill="#220e59"/>
    <path id="Path_116" data-name="Path 116" d="M349.084,100.526a5.735,5.735,0,0,1,4.9-1.825c.276.032.273-.4,0-.434a6.135,6.135,0,0,0-5.206,1.953c-.187.206.118.513.306.306" transform="translate(704.924 204.795)" fill="#220e59"/>
    <path id="Path_117" data-name="Path 117" d="M348.368,103.247a1.132,1.132,0,0,0,.2,1.478,1.167,1.167,0,0,0,1.434.031c.454-.324.747-.82,1.174-1.178a3.8,3.8,0,0,1,1.632-.785c.272-.059.156-.477-.115-.417a4.415,4.415,0,0,0-2.43,1.525c-.271.316-.62.738-1.088.648a.694.694,0,0,1-.432-1.083c.152-.234-.222-.452-.374-.219" transform="translate(704.978 204.379)" fill="#220e59"/>
    <path id="Path_118" data-name="Path 118" d="M335.237,63.4s7.935,29.955-11.186,18.931l.246,18.705L310.039,86.166l5.819-18.058s-1.395-17.55,19.379-4.71" transform="translate(708.814 208.771)" fill="#91aeff"/>
    <path id="Path_119" data-name="Path 119" d="M335.233,74.522c-.1.465-.019.878.188.924s.457-.294.559-.758.019-.878-.188-.924-.457.294-.559.758" transform="translate(706.284 207.256)" fill="#220e59"/>
    <path id="Path_120" data-name="Path 120" d="M335.38,81.318a1.5,1.5,0,0,1,.246-.01l.058,0c.005,0,.065.006.039,0s.033.006.039.007l.069.013a2.022,2.022,0,0,1,.225.068l.022.008c-.016-.006-.016-.007,0,0l.054.024c.039.019.076.04.114.061s.067.04.1.063l.048.034c.061.043-.015-.013.018.013a1.683,1.683,0,0,1,.179.169.825.825,0,0,1,.12.157c.023.036.045.074.066.112.009.017.017.035.026.053s.029.067.013.031a.241.241,0,0,0,.288.163.237.237,0,0,0,.164-.288,1.858,1.858,0,0,0-1.886-1.155.241.241,0,0,0-.234.234.235.235,0,0,0,.234.234" transform="translate(706.289 206.544)" fill="#220e59"/>
    <path id="Path_121" data-name="Path 121" d="M335.764,70.97c.156.284.684.292,1.178.019s.77-.722.614-1-.684-.291-1.178-.02-.77.724-.614,1.006" transform="translate(706.231 207.658)" fill="#220e59"/>
    <path id="Path_122" data-name="Path 122" d="M339.207,70.251l.445.855,3.2,6.381-3.281.741Z" transform="translate(705.88 207.609)" fill="#7ea0ff"/>
    <path id="Path_124" data-name="Path 124" d="M328.308,86.329l-2.754-1.452.171,6.371Z" transform="translate(707.254 206.138)" fill="#220e59"/>
    <path id="Path_125" data-name="Path 125" d="M321.167,71.34a4.49,4.49,0,0,0,6.362-2.7,7.806,7.806,0,0,1,.527-2.168,3.166,3.166,0,0,1,2.789-1.305c1.075-.011,2.144.245,3.217.18a4.552,4.552,0,0,0,4.256-3.591c.286-1.989-1.542-4.117-3.527-3.8-.571.091-1.1.353-1.672.448-2.612.438-4.381-2.479-6.59-3.939a6.862,6.862,0,0,0-9.553,2.643c-.376.785-.6,1.644-1.047,2.389-.908,1.5-2.594,2.319-3.93,3.458s-2.375,3.112-1.451,4.606c.378.612,1.04,1.043,1.281,1.721.408,1.149-.557,2.3-.813,3.487a3.669,3.669,0,0,0,2.583,4.021,5.339,5.339,0,0,0,4.885-1.2,10.141,10.141,0,0,0,2.8-4.37" transform="translate(708.798 209.296)" fill="#220e59"/>
    <path id="Path_126" data-name="Path 126" d="M318.852,71.981a3.585,3.585,0,1,1,2.4,4.466,3.586,3.586,0,0,1-2.4-4.466" transform="translate(707.943 207.692)" fill="#91aeff"/>
    <path id="Path_127" data-name="Path 127" d="M322.266,71.785a1.865,1.865,0,0,1,1.529,2.159c-.066.293.385.418.451.124a2.336,2.336,0,0,0-1.98-2.751.235.235,0,0,0-.234.234.239.239,0,0,0,.234.234" transform="translate(707.608 207.502)" fill="#220e59"/>
    <path id="Path_128" data-name="Path 128" d="M321.537,131.119,311.31,158.53s-35.592,9-49.6-11.047c0,0-3.377-61.034,40.195-61.365,31.128-.237,30.885,15.607,19.637,45" transform="translate(713.682 206.014)" fill="#d0d0d0"/>
    <path id="Path_129" data-name="Path 129" d="M337.864,348l-10.125-.612-.583,15.6,4.607-.114-.251-1.761,6.037,2.012,24.4.252a33.556,33.556,0,0,0-13.031-6.609A17.048,17.048,0,0,1,337.864,348" transform="translate(707.093 179.733)" fill="#220e59"/>
    <path id="Path_130" data-name="Path 130" d="M274.654,346.97l-8.306-.627-2.658,15.975,4.717-.117.773-1.8,7.211,2.061,22.922.258a34.339,34.339,0,0,0-13.446-6.791,17.159,17.159,0,0,1-11.163-8.861Z" transform="translate(713.476 179.838)" fill="#220e59"/>
    <path id="Path_131" data-name="Path 131" d="M311.241,164.133s-28.571,1.9-50.038-10.465c0,0-8.457,20.166-1.3,48.138s16.416,77.143,1.454,127.883c0,0,11.328,5.962,21.465,2.384,0,0,22.618-54.156,21.317-89.285,0,0,18.214,31.875,10.408,87.82,0,0,11.709,4.554,22.117.651,0,0,7.806-26.021,8.457-53.994s-5.855-59.2-15.613-79.363-15.871-27.727-18.266-33.77" transform="translate(714.147 199.219)" fill="#406ae2"/>
    <path id="Path_132" data-name="Path 132" d="M305.885,247.3c-.519-10.608-13.832-21.464-19.523-28.293a44.237,44.237,0,0,1-10.642-28.452s-3.578,14.962,8.782,40.332c10.069,20.669,17.564,48.138,11.71,70.907,0,0,10.89-29.624,9.673-54.494" transform="translate(712.315 195.508)" fill="#220e59"/>
    <path id="Path_133" data-name="Path 133" d="M305.993,176.76a47.52,47.52,0,0,1-22.636-2.275c-.361-.129-.515.444-.158.572a47.942,47.942,0,0,0,22.952,2.275c.377-.054.217-.626-.157-.572" transform="translate(711.534 197.127)" fill="#eeeff2"/>
    <path id="Path_134" data-name="Path 134" d="M305.345,181.7a34.333,34.333,0,0,1-17.573-.341,33.609,33.609,0,0,1-4.561-1.576c-.347-.149-.649.362-.3.514a36.882,36.882,0,0,0,17.7,2.824,28.758,28.758,0,0,0,4.888-.849.3.3,0,0,0-.157-.572" transform="translate(711.559 196.594)" fill="#eeeff2"/>
    <path id="Path_135" data-name="Path 135" d="M271.18,171.413a19.42,19.42,0,0,1-11.54-3.961c-.3-.231-.6.284-.3.512a20,20,0,0,0,9.038,3.814,20.283,20.283,0,0,0,2.8.228.3.3,0,0,0,0-.594" transform="translate(713.927 197.838)" fill="#eeeff2"/>
    <path id="Path_136" data-name="Path 136" d="M267.185,176.094a15.031,15.031,0,0,1-8.571-3.483c-.29-.245-.711.174-.419.42a15.708,15.708,0,0,0,8.991,3.656c.381.027.38-.567,0-.594" transform="translate(714.039 197.321)" fill="#eeeff2"/>
    <path id="Path_137" data-name="Path 137" d="M314.158,165.894a46.725,46.725,0,0,0,2.911,15.992,108.276,108.276,0,0,0,6.811,14.244c2.8,5.156,5.6,10.314,7.885,15.725a107.024,107.024,0,0,1,4.35,12.649,177.83,177.83,0,0,1,5.322,27.75,217.894,217.894,0,0,1,1.156,35.142,220.425,220.425,0,0,1-5.686,40.485q-.614,2.584-1.289,5.151a.3.3,0,0,0,.572.158,221.475,221.475,0,0,0,6.7-40.662,219.743,219.743,0,0,0-.416-36.086,187.356,187.356,0,0,0-4.86-28.652c-.951-3.729-2.037-7.426-3.319-11.054a118.813,118.813,0,0,0-7.4-16.292c-5.138-9.632-10.882-19.176-11.938-30.281-.135-1.419-.2-2.844-.2-4.27a.3.3,0,0,0-.594,0" transform="translate(708.4 198.018)" fill="#eeeff2"/>
    <path id="Path_138" data-name="Path 138" d="M321,174.994c.156,2.794-.708,6.284-3.342,7.732-.335.184-.035.7.3.513,2.816-1.548,3.8-5.244,3.636-8.245-.022-.38-.615-.382-.594,0" transform="translate(708.062 197.102)" fill="#eeeff2"/>
    <path id="Path_139" data-name="Path 139" d="M323.406,179.966a14.559,14.559,0,0,1-1.169,4.225,8.091,8.091,0,0,1-2.789,3.2c-.316.212-.019.726.3.513a8.671,8.671,0,0,0,2.968-3.347,14.861,14.861,0,0,0,1.263-4.436c.057-.373-.515-.534-.572-.157" transform="translate(707.881 196.595)" fill="#eeeff2"/>
    <path id="Path_140" data-name="Path 140" d="M276.29,169.808a65.51,65.51,0,0,0-1.3,11.806.3.3,0,0,0,.594,0,64.66,64.66,0,0,1,1.274-11.648c.076-.372-.5-.532-.572-.157" transform="translate(712.339 197.617)" fill="#eeeff2"/>
    <path id="Path_141" data-name="Path 141" d="M278.731,160.848q-.733,2.126-1.315,4.3a.3.3,0,0,0,.573.157q.581-2.172,1.314-4.3c.125-.362-.448-.517-.572-.157" transform="translate(712.097 198.517)" fill="#eeeff2"/>
    <path id="Path_142" data-name="Path 142" d="M323.836,90.021A35.961,35.961,0,0,1,350.228,109.9c7.128,14.4,5.584,27.981,21.247,27.554,8.129-.221,14.374-15.035,13.059-29.071-.6-6.38,19.439-10.866,15.706,16.263-4.311,31.335-23.359,35.652-30.892,36.8-9.606,1.467-30.839-6.089-36.656-36.105-6.529-33.691-8.855-35.319-8.855-35.319" transform="translate(707.427 205.621)" fill="#91aeff"/>
    <path id="Path_143" data-name="Path 143" d="M359.132,132.117c-2.826-5.217-5.575-14.571-9.4-22.295-8.91-18-25.173-20.474-25.173-20.474s-16.1-3.111,6.135,38.519c3.445,6.449,5.165,10.469,7.949,15.262a47.619,47.619,0,0,0,11.047-4.122,44.007,44.007,0,0,0,9.44-6.89" transform="translate(707.92 205.694)" fill="#d0d0d0"/>
    <path id="Path_144" data-name="Path 144" d="M389.991,124.029c1.595-7.875.983-14.028,1.137-17.784-.069-6.416,3.015-5.206,3.658-3.111a1.72,1.72,0,0,1-.041.63l.059.006c.076-1.883.848-2.891,1.975-2.855.808.026,1.4.55,1.831,1.7.39-.946,1.017-1.554,1.748-1.531.756.024,1.438.712,1.876,1.741.354-.824.912-1.381,1.557-1.33,3.391.264,4.342,16.853,2.847,25.128" transform="translate(700.772 204.525)" fill="#91aeff"/>
    <path id="Path_145" data-name="Path 145" d="M358.264,131.291a48.7,48.7,0,0,1-15.372,8.83q-2.5.9-5.08,1.551a.282.282,0,0,0,.149.543,52.324,52.324,0,0,0,16.861-7.554,45.762,45.762,0,0,0,3.84-2.971c.274-.237-.125-.634-.4-.4" transform="translate(706.041 201.477)" fill="#eeeff2"/>
    <g id="Group_33" data-name="Group 33" transform="translate(1071.662 361.624)" style="mix-blend-mode: soft-light;isolation: isolate">
      <g id="Group_32" data-name="Group 32" transform="translate(0 0)">
        <g id="Group_31" data-name="Group 31" clip-path="url(#clip-path-4)">
          <path id="Path_146" data-name="Path 146" d="M368.888,167.5c.773-2.4,4.65-4.235,8.66-4.109,2.933.093,5.119,1.214,5.781,2.746a36.25,36.25,0,0,1-9.464,2.689,18.671,18.671,0,0,1-5.061,0,2.586,2.586,0,0,1,.084-1.323" transform="translate(-368.754 -163.383)" fill="#220e59"/>
        </g>
      </g>
    </g>
    <path id="Path_147" data-name="Path 147" d="M330.187,128.828l-3.932-6.322-3.478,24.955Z" transform="translate(707.533 202.353)" fill="#220e59"/>
    <g id="Group_35" data-name="Group 35" transform="translate(1073.303 461.035)">
      <path id="Path_26" data-name="Path 26" d="M91.469,88.29H40.894A15.353,15.353,0,0,1,25.541,72.937V30.048A15.353,15.353,0,0,1,40.894,14.695H91.469a15.353,15.353,0,0,1,15.353,15.353V72.937A15.353,15.353,0,0,1,91.469,88.29" transform="translate(-25.541 -14.695)" fill="#d8dff2"/>
      <path id="Path_27" data-name="Path 27" d="M64.319,65.9A17.219,17.219,0,1,1,81.537,48.68,17.238,17.238,0,0,1,64.319,65.9m0-29.262A12.044,12.044,0,1,0,76.362,48.68,12.057,12.057,0,0,0,64.319,36.636" transform="translate(-23.679 -13.246)" fill="#2149b9"/>
      <line id="Line_3" data-name="Line 3" x1="19.744" y2="24.088" transform="translate(31.046 23.39)" fill="none" stroke="#2149b9" stroke-width="4.522"/>
    </g>
    <g id="Group_34" data-name="Group 34" transform="translate(858.581 202.832)">
      <path id="Path_23" data-name="Path 23" d="M490.129,86.259H431.078a8.924,8.924,0,0,1-8.924-8.924V29.7a8.924,8.924,0,0,1,8.924-8.924h59.051a8.924,8.924,0,0,1,8.924,8.924V77.336a8.924,8.924,0,0,1-8.924,8.924" transform="translate(-422.154 -20.778)" fill="#d8dff2"/>
      <path id="Path_24" data-name="Path 24" d="M463.3,66.027a13.289,13.289,0,1,1,13.288-13.289A13.3,13.3,0,0,1,463.3,66.027m0-23.567a10.277,10.277,0,1,0,10.277,10.277A10.29,10.29,0,0,0,463.3,42.46" transform="translate(-429.701 -25.837)" fill="#2149b9"/>
      <rect id="Rectangle_4" data-name="Rectangle 4" width="3.011" height="5.548" transform="translate(40.849 36.311) rotate(-45)" fill="#2149b9"/>
      <path id="Path_25" data-name="Path 25" d="M487.274,72.045l7.764,7.764a2.108,2.108,0,0,1,0,2.982l-1.727,1.727a2.108,2.108,0,0,1-2.981,0l-7.764-7.764a2.109,2.109,0,0,1,0-2.982l1.727-1.727a2.109,2.109,0,0,1,2.982,0" transform="translate(-438.354 -34.501)" fill="#2149b9"/>
    </g>
    <text id="_" data-name="???" transform="translate(1087.807 264.945)" fill="#2149b9" font-size="21" font-family="Helvetica"><tspan x="0" y="0" letter-spacing="0.1em">??</tspan><tspan y="0">?</tspan></text>
  </g>
</svg>
