<svg
  width="30"
  height="30"
  viewBox="0 0 30 30"
  fill="#ffffff"
  xmlns="http://www.w3.org/2000/svg"
>
    <path
    d="M29.722 14.52a.64.64 0 0 0 0-.102.612.612 0 0 0-.08-.193 17.724 17.724 0 0 0-28.56 0 .611.611 0 0 0-.08.193.649.649 0 0 0 0 .102.647.647 0 0 0 0 .101.61.61 0 0 0 .08.193 17.724 17.724 0 0 0 28.56 0 .611.611 0 0 0 .08-.193.64.64 0 0 0 0-.101zm-14.36 6.427c-7.692 0-12.159-5.126-13.166-6.427 1.007-1.302 5.474-6.428 13.166-6.428 7.691 0 12.158 5.147 13.165 6.428-1.007 1.301-5.474 6.427-13.165 6.427zm0-12.105a5.656 5.656 0 1 0 5.656 5.678 5.667 5.667 0 0 0-5.656-5.657v-.02zm0 10.241a4.584 4.584 0 1 1 4.585-4.563 4.59 4.59 0 0 1-4.585 4.584v-.021z"
    fill="#ffffff"
  />
</svg>
