<svg width="26" height="26" viewBox="0 0 26 26" xmlns="http://www.w3.org/2000/svg">
    <g fill="none" fill-rule="evenodd">
        <path d="M0 0h26v26H0z"/>
        <g fill="#4878FF" fill-rule="nonzero">
            <path d="M12.234 2c1.388 0 2.633.57 3.542 1.45a4.919 4.919 0 0 1 1.46 3.517 4.92 4.92 0 0 1-1.46 3.517 5.158 5.158 0 0 1-1.436.998c.288.071.575.166.862.285.287.119.43.428.311.69a.548.548 0 0 1-.718.308 5.93 5.93 0 0 0-1.269-.356 7.974 7.974 0 0 0-1.316-.12 7.118 7.118 0 0 0-5.05 2.092c-1.293 1.283-2.107 3.042-2.107 4.99v.975c0 .19.072.357.192.475.12.12.311.19.526.19h4.883a.54.54 0 0 1 .55.547.54.54 0 0 1-.55.547H5.795c-.502 0-.957-.19-1.268-.523A1.695 1.695 0 0 1 4 20.322v-.974c0-2.234.933-4.301 2.418-5.775a8.292 8.292 0 0 1 3.686-2.115 4.903 4.903 0 0 1-1.413-.998 4.919 4.919 0 0 1-1.46-3.517 4.92 4.92 0 0 1 1.46-3.517A5.178 5.178 0 0 1 12.234 2zm2.752 2.234a3.923 3.923 0 0 0-2.752-1.14 3.824 3.824 0 0 0-2.753 1.14 3.867 3.867 0 0 0-1.149 2.733c0 1.07.431 2.044 1.15 2.733.717.689 1.675 1.14 2.752 1.14a3.824 3.824 0 0 0 2.752-1.14c.695-.713 1.15-1.664 1.15-2.733 0-1.07-.455-2.044-1.15-2.733z" stroke="#4878FF" stroke-width=".4"/>
            <path d="m18.34 13.579 3.728.02c.259 0 .458.22.458.458l-.02 3.668c0 .12-.04.24-.14.34l-5.8 5.78-.02.02a.47.47 0 0 1-.658 0l-3.648-3.667a.445.445 0 0 1 0-.638l5.781-5.842c.08-.08.2-.14.319-.14zm1.87 1.158c-.298 0-.597.111-.821.333l-.019.037a1.198 1.198 0 0 0-.317.797c0 .296.112.593.336.815l.018.019c.225.203.523.315.803.315.3 0 .598-.112.822-.334l.019-.018c.205-.223.317-.519.317-.797 0-.296-.112-.593-.336-.815l-.018-.037a1.184 1.184 0 0 0-.803-.315z"/>
        </g>
    </g>
</svg>
