<svg width="61" height="60" viewBox="0 0 61 60" xmlns="http://www.w3.org/2000/svg">
    <g fill="none" fill-rule="evenodd">
        <path d="M.5 0h60v60H.5z"/>
        <g fill-rule="nonzero">
            <path d="M41.5 21.7c0-4.252-3.39-7.7-7.57-7.7H15.07c-4.18 0-7.57 3.448-7.57 7.7v24.6c0 4.252 3.39 7.7 7.57 7.7h13.561a1.083 1.083 0 0 0 .766-.323l11.785-11.99a1.09 1.09 0 0 0 .318-.778V21.7zm-32 24.738V21.562C9.5 18.49 11.947 16 14.966 16h19.068c3.019 0 5.466 2.49 5.466 5.562v18.312h-4.264c-4.227 0-7.653 3.486-7.653 7.787V52H14.966C11.947 52 9.5 49.51 9.5 46.438zM37.5 42l-8 8v-2.657A5.343 5.343 0 0 1 34.843 42H37.5zm-22-16c0-.552.495-1 1.106-1h15.788c.611 0 1.106.448 1.106 1s-.495 1-1.106 1H16.606c-.611 0-1.106-.448-1.106-1zm0 8c0-.552.495-1 1.106-1h15.788c.611 0 1.106.448 1.106 1s-.495 1-1.106 1H16.606c-.611 0-1.106-.448-1.106-1zm9.996 8c0 .552-.466 1-1.041 1H16.54c-.575 0-1.041-.448-1.041-1s.466-1 1.041-1h7.914c.276-.001.542.104.739.291A.98.98 0 0 1 25.5 42h-.004z" fill="#213D8B" stroke="#213D8B" stroke-width=".5"/>
            <g fill="#02ADFF">
                <path d="M52.5 13.487c0-.724-.565-1.314-1.258-1.314H34.818l2.746-2.921c.487-.51.487-1.34 0-1.877A1.192 1.192 0 0 0 36.666 7a1.3 1.3 0 0 0-.899.375l-4.901 5.173a1.352 1.352 0 0 0 0 1.85l4.927 5.2c.231.241.565.402.898.402a1.3 1.3 0 0 0 .899-.375c.23-.241.384-.59.384-.938 0-.349-.128-.697-.359-.939L34.767 14.8h16.45c.718 0 1.283-.59 1.283-1.313zM47.309 33c.333 0 .667-.134.898-.403l4.927-5.208a1.356 1.356 0 0 0 0-1.852l-4.927-5.154c-.488-.51-1.283-.51-1.797 0-.487.51-.487 1.342 0 1.879l2.772 2.9H32.758c-.693 0-1.258.59-1.258 1.315 0 .724.565 1.315 1.258 1.315h16.45l-2.798 2.953c-.23.242-.359.59-.359.94 0 .349.128.67.385.94.231.24.54.375.873.375z"/>
            </g>
        </g>
    </g>
</svg>
