<svg width="61" height="61" viewBox="0 0 61 61" fill="none" xmlns="http://www.w3.org/2000/svg">
    <path fill-rule="evenodd" clip-rule="evenodd" d="M33.43 14c4.18 0 7.57 3.448 7.57 7.7V40.91a1.09 1.09 0 0 1-.318.779L28.897 53.677a1.063 1.063 0 0 1-.766.323H14.57C10.39 54 7 50.552 7 46.3V21.7c0-4.252 3.39-7.7 7.57-7.7h18.86zM9 21.562v24.876C9 49.51 11.447 52 14.466 52h12.617v-4.339c0-4.3 3.427-7.787 7.653-7.787H39V21.562C39 18.49 36.553 16 33.533 16H14.466C11.447 16 9 18.49 9 21.562zM34.343 42H37l-8 8v-2.657A5.343 5.343 0 0 1 34.343 42zM16.106 25c-.611 0-1.106.448-1.106 1s.495 1 1.106 1h15.788c.611 0 1.106-.448 1.106-1s-.495-1-1.106-1H16.106zM15 34c0-.552.495-1 1.106-1h15.788c.611 0 1.106.448 1.106 1s-.495 1-1.106 1H16.106C15.495 35 15 34.552 15 34zm8.955 9c.575 0 1.04-.448 1.04-1H25a.98.98 0 0 0-.306-.709 1.063 1.063 0 0 0-.74-.291h-7.913c-.575 0-1.041.448-1.041 1s.466 1 1.041 1h7.914z" fill="#fff"/>
    <path d="M41 40.909h-.25v.002l.25-.002zm-.318.779-.177-.177-.001.001.178.176zM28.897 53.677l-.179-.176v.001l.179.175zm-.348.237-.098-.23.098.23zM28.13 54v.25h.001l-.001-.25zm-1.048-2v.25h.25V52h-.25zM39 39.874v.25h.25v-.25H39zM37 42l.177.177.427-.427H37V42zm-8 8h-.25v.604l.427-.427L29 50zm-4.004-8v-.25h-.25V42h.25zM25 42v.25h.25V42H25zm-.306-.709-.173.181.173-.18zm-.74-.291v.25h.002l-.001-.25zM41.25 21.7c0-4.386-3.497-7.95-7.82-7.95v.5c4.039 0 7.32 3.332 7.32 7.45h.5zm0 19.209V21.7h-.5v19.208h.5zm-.391.956a1.34 1.34 0 0 0 .391-.958l-.5.004a.84.84 0 0 1-.245.6l.354.353zM29.075 53.852l11.785-11.99-.356-.35-11.786 11.99.357.35zm-.43.293c.162-.068.308-.168.43-.294l-.357-.349a.814.814 0 0 1-.267.182l.194.46zm-.513.105c.177 0 .351-.037.514-.106l-.195-.46a.834.834 0 0 1-.321.066l.002.5zm-13.562 0h13.561v-.5H14.57v.5zM6.75 46.3c0 4.386 3.497 7.95 7.82 7.95v-.5c-4.039 0-7.32-3.332-7.32-7.45h-.5zm0-24.6v24.6h.5V21.7h-.5zm7.82-7.95c-4.323 0-7.82 3.564-7.82 7.95h.5c0-4.118 3.281-7.45 7.32-7.45v-.5zm18.86 0H14.57v.5h18.86v-.5zM9.25 46.438V21.562h-.5v24.876h.5zm5.216 5.312c-2.876 0-5.216-2.374-5.216-5.312h-.5c0 3.206 2.555 5.812 5.716 5.812v-.5zm12.617 0H14.467v.5h12.616v-.5zm-.25-4.089V52h.5v-4.339h-.5zm7.903-8.037c-4.369 0-7.903 3.602-7.903 8.037h.5c0-4.167 3.319-7.537 7.403-7.537v-.5zm4.264 0h-4.264v.5H39v-.5zm-.25-18.062v18.312h.5V21.562h-.5zm-5.217-5.312c2.877 0 5.217 2.374 5.217 5.312h.5c0-3.206-2.555-5.812-5.717-5.812v.5zm-19.067 0h19.067v-.5H14.466v.5zM9.25 21.562c0-2.938 2.34-5.312 5.216-5.312v-.5c-3.16 0-5.716 2.606-5.716 5.812h.5zM37 41.75h-2.657v.5H37v-.5zm-7.823 8.427 8-8-.354-.354-8 8 .354.354zm-.427-2.834V50h.5v-2.657h-.5zm5.593-5.593a5.593 5.593 0 0 0-5.593 5.593h.5a5.093 5.093 0 0 1 5.093-5.093v-.5zM15.25 26c0-.391.359-.75.856-.75v-.5c-.725 0-1.356.537-1.356 1.25h.5zm.856.75c-.497 0-.856-.359-.856-.75h-.5c0 .713.631 1.25 1.356 1.25v-.5zm15.788 0H16.106v.5h15.788v-.5zm.856-.75c0 .391-.359.75-.856.75v.5c.725 0 1.356-.537 1.356-1.25h-.5zm-.856-.75c.497 0 .856.359.856.75h.5c0-.713-.631-1.25-1.356-1.25v.5zm-15.788 0h15.788v-.5H16.106v.5zm0 7.5c-.725 0-1.356.537-1.356 1.25h.5c0-.391.359-.75.856-.75v-.5zm15.788 0H16.106v.5h15.788v-.5zM33.25 34c0-.713-.631-1.25-1.356-1.25v.5c.497 0 .856.359.856.75h.5zm-1.356 1.25c.725 0 1.356-.537 1.356-1.25h-.5c0 .391-.359.75-.856.75v.5zm-15.788 0h15.788v-.5H16.106v.5zM14.75 34c0 .713.631 1.25 1.356 1.25v-.5c-.497 0-.856-.359-.856-.75h-.5zm9.996 8c0 .405-.345.75-.791.75v.5c.703 0 1.29-.55 1.29-1.25h-.5zm.254-.25h-.004v.5H25v-.5zm-.48-.278a.73.73 0 0 1 .23.528h.5c0-.336-.14-.656-.384-.89l-.345.362zm-.564-.222c.213 0 .416.08.565.222l.345-.361a1.314 1.314 0 0 0-.912-.361l.002.5zm-7.915 0h7.914v-.5H16.04v.5zm-.791.75c0-.405.345-.75.791-.75v-.5c-.703 0-1.291.55-1.291 1.25h.5zm.791.75c-.446 0-.791-.345-.791-.75h-.5c0 .7.588 1.25 1.291 1.25v-.5zm7.914 0H16.04v.5h7.914v-.5z" fill="#fff"/>
    <path d="M52 13.487c0-.724-.565-1.314-1.258-1.314H34.319l2.746-2.921c.487-.51.487-1.34 0-1.877A1.192 1.192 0 0 0 36.166 7a1.3 1.3 0 0 0-.899.375l-4.901 5.174a1.352 1.352 0 0 0 0 1.849l4.927 5.2c.231.241.565.402.898.402.334 0 .642-.134.898-.375.232-.241.386-.59.386-.938 0-.349-.129-.697-.36-.939L34.267 14.8h16.45c.718 0 1.283-.59 1.283-1.313zM46.809 33c.333 0 .667-.134.898-.403l4.927-5.208a1.356 1.356 0 0 0 0-1.852l-4.927-5.154c-.488-.51-1.283-.51-1.797 0-.487.51-.487 1.342 0 1.879l2.772 2.9H32.257c-.692 0-1.257.59-1.257 1.315 0 .724.565 1.315 1.258 1.315h16.45l-2.797 2.953c-.232.242-.36.59-.36.94 0 .349.128.67.385.94.231.24.54.375.873.375z" fill="#02ADFF"/>
</svg>
