<svg xmlns="http://www.w3.org/2000/svg" width="14.761" height="11.998" viewBox="0 0 14.761 11.998">
    <path d="M16.761 5.423a6.064 6.064 0 0 1-1.739.477 3.036 3.036 0 0 0 1.332-1.676 6.046 6.046 0 0 1-1.923.735 3.03 3.03 0 0 0-5.16 2.763 8.6 8.6 0 0 1-6.243-3.165A3.03 3.03 0 0 0 3.966 8.6a3.021 3.021 0 0 1-1.372-.379v.04a3.03 3.03 0 0 0 2.429 2.97 3.05 3.05 0 0 1-1.368.051 3.03 3.03 0 0 0 2.83 2.1A6.077 6.077 0 0 1 2 14.639 8.566 8.566 0 0 0 6.642 16a8.558 8.558 0 0 0 8.617-8.617c0-.13 0-.26-.01-.39a6.158 6.158 0 0 0 1.511-1.568z" transform="translate(-2 -4.002)" style="fill:#7e8190"/>
</svg>
