<svg xmlns="http://www.w3.org/2000/svg" width="17" height="17" viewBox="0 0 17 17">
    <path d="M-3185 4458a7.944 7.944 0 0 1-5.657-2.344A7.945 7.945 0 0 1-3193 4450a7.95 7.95 0 0 1 2.343-5.657A7.95 7.95 0 0 1-3185 4442a8.008 8.008 0 0 1 4 1.072 8.006 8.006 0 0 1 2.928 2.928 8.012 8.012 0 0 1 1.072 4 7.94 7.94 0 0 1-2.344 5.657A7.94 7.94 0 0 1-3185 4458zm-.319-2.244v1.137h.639v-1.137zm-2.836-.931-.567.983.554.32.568-.983-.555-.32zm6.312 0-.555.32.568.983.554-.32-.567-.983zm1.989-2.225-.32.555.983.567.32-.554-.983-.568zm-10.29 0-.983.568.32.554.983-.567-.32-.555zm4.971-2.193.308.536.615-.357-.2-.354 4.419-1.076-.169-.691-4.621 1.125-1.738-3.007-.616.355 1.635 2.828-.649.158.169.691.85-.208zm5.93-.727v.639h1.135v-.639zm-12.647 0v.639h1.135v-.639zm1.083-3.4-.32.554.983.568.32-.555-.983-.567zm11.617 0-.983.568.32.554.983-.568-.32-.554zm-2.639-2.405-.568.983.555.32.567-.983-.554-.32zm-6.338 0-.554.32.567.983.555-.32-.568-.983zm2.849-.763v1.136h.639v-1.136z" transform="translate(3193.5 -4441.5)" style="fill:#fff;stroke:transparent;stroke-miterlimit:10"/>
</svg>
