<svg width="50" height="50" viewBox="0 0 50 50" xmlns="http://www.w3.org/2000/svg">
    <g fill="none" fill-rule="evenodd">
        <path d="M0 0h50v50H0z"/>
        <g fill="#2149B9" fill-rule="nonzero">
            <path d="M24.045 18.892v13.213h19.819V18.892H24.045zm8.06 9.249a2.643 2.643 0 1 1 2.64-2.643 2.65 2.65 0 0 1-2.64 2.643z"/>
            <path d="M44 15.588H22.6a1.806 1.806 0 0 0-1.85 1.85v15.988a1.806 1.806 0 0 0 1.85 1.85H44v4.757a3.834 3.834 0 0 1-3.832 3.832H10.832A3.644 3.644 0 0 1 7 40.164V10.832A3.834 3.834 0 0 1 10.832 7h29.332A3.834 3.834 0 0 1 44 10.832v4.756z"/>
        </g>
    </g>
</svg>
