<svg width="26" height="26" viewBox="0 0 26 26" xmlns="http://www.w3.org/2000/svg">
    <g fill="none" fill-rule="evenodd">
        <path d="M0 0h26v26H0z"/>
        <path d="M4.951 4C3.88 4 3 4.9 3 6v14.25c0 .96.77 1.75 1.707 1.75h16.586C22.23 22 23 21.21 23 20.25V8.75C23 7.79 22.23 7 21.293 7h-1.22V4.5c0-.262-.232-.5-.488-.5H4.951zm0 1h14.147v2H4.95c-.549 0-.975-.437-.975-1s.426-1 .975-1zm-.975 2.726A1.9 1.9 0 0 0 4.95 8c5.494-.005 11.62 0 16.342 0 .414 0 .732.326.732.75v3H14.95c-.667 0-1.22.566-1.22 1.25v3c0 .684.553 1.25 1.22 1.25h7.074v3c0 .424-.318.75-.732.75H4.707a.729.729 0 0 1-.731-.75V7.726zM14.95 12.75h7.074v3.5H14.95c-.143 0-.244-.103-.244-.25v-3c0-.148.1-.25.244-.25zm2.44.75a.988.988 0 0 0-.976 1c0 .552.437 1 .975 1a.988.988 0 0 0 .976-1c0-.553-.437-1-.976-1z" fill="#2149B9" fill-rule="nonzero"/>
    </g>
</svg>
