<svg width="257" height="117" viewBox="0 0 257 117" xmlns="http://www.w3.org/2000/svg">
    <g fill-rule="nonzero" fill="none">
        <g fill="#FFF">
            <path d="M2.977 77.28c-1.678 0-2.618-.755-2.819-2.265a4.18 4.18 0 0 1 1.057-2.467L26.59 40.175 2.675 9.866a4.022 4.022 0 0 1-1.057-2.467c0-1.544.923-2.316 2.769-2.316h10.825c3.357 0 6.294 1.594 8.811 4.783l13.8 17.521L51.612 9.866c2.484-3.155 5.421-4.75 8.811-4.783h10.825c1.846 0 2.769.772 2.769 2.316a4.18 4.18 0 0 1-1.058 2.467L49.04 40.175l25.379 32.373a3.828 3.828 0 0 1 1.058 2.118 2.476 2.476 0 0 1-2.819 2.618H61.933c-3.357 0-6.277-1.578-8.76-4.733L37.817 52.966 22.462 72.548c-2.481 3.155-5.402 4.732-8.761 4.732H2.977zm80.706-4.631V9.966a4.721 4.721 0 0 1 1.41-3.474 4.602 4.602 0 0 1 3.373-1.41h28.144c14.567 0 25.165 2.912 31.794 8.735 6.629 5.823 9.943 14.953 9.943 27.389 0 12.435-3.314 21.556-9.943 27.363-6.629 5.807-17.227 8.71-31.794 8.712H88.466a4.74 4.74 0 0 1-3.373-1.335 4.359 4.359 0 0 1-1.41-3.297zm18.981-9.616h13.392c9.029 0 15.171-1.645 18.427-4.934 3.256-3.29 4.884-8.92 4.884-16.891 0-7.971-1.628-13.61-4.884-16.917-3.256-3.307-9.398-4.96-18.427-4.959h-13.392v43.701zm71.19 5.74c-6.21-5.941-9.314-15.13-9.314-27.566 0-12.436 3.113-21.633 9.339-27.59 6.226-5.958 15.565-8.937 28.018-8.937h11.227a35.229 35.229 0 0 1 20.216 5.941c5.857 3.96 8.786 9.381 8.786 16.262a4.91 4.91 0 0 1-1.762 4.254 5.845 5.845 0 0 1-3.424 1.284h-5.991c-3.088 0-5.488-1.846-7.2-5.538-2.484-5.303-6.612-7.955-12.385-7.955h-8.962c-7.35 0-12.335 1.578-14.953 4.733-2.618 3.155-3.927 8.996-3.927 17.521s1.309 14.374 3.927 17.546c2.618 3.172 7.602 4.758 14.953 4.758h10.018c5.773 0 9.885-2.652 12.335-7.955 1.712-3.725 4.129-5.588 7.25-5.588h5.991a4.518 4.518 0 0 1 3.751 1.762 6.066 6.066 0 0 1 1.385 3.826c0 6.88-2.92 12.293-8.76 16.237a35.219 35.219 0 0 1-20.189 5.916h-12.286c-12.452 0-21.8-2.971-28.043-8.912v.001zM19.566 113.611c-1.893 1.662-4.676 2.493-8.348 2.493-3.672 0-6.46-.833-8.363-2.5C.952 111.938 0 109.299 0 105.688c0-3.611.952-6.248 2.855-7.91s4.69-2.493 8.362-2.493c3.671 0 6.456.831 8.355 2.493s2.848 4.299 2.848 7.91c0 3.611-.951 6.252-2.854 7.923zm-3.8-12.9c-.937-1.114-2.453-1.671-4.547-1.671s-3.612.559-4.555 1.676a7.546 7.546 0 0 0-1.414 4.979 7.517 7.517 0 0 0 1.414 4.976c.942 1.11 2.46 1.664 4.554 1.664 2.094 0 3.61-.555 4.546-1.664a7.543 7.543 0 0 0 1.406-4.971 7.573 7.573 0 0 0-1.406-4.984l.002-.005zm9.511-3.69c-.004-.352.137-.69.39-.933.244-.253.581-.394.933-.39h11.32c2.776 0 4.823.8 6.141 2.4a5.1 5.1 0 0 1 1.1 3.377 4.525 4.525 0 0 1-1.88 3.586 4.731 4.731 0 0 1 2.674 4.456 5.332 5.332 0 0 1-2.137 4.589 8.627 8.627 0 0 1-5.243 1.565H26.599a1.285 1.285 0 0 1-.933-.383 1.25 1.25 0 0 1-.39-.926l.001-17.341zm5.249 14.891h7.966a2.086 2.086 0 0 0 1.642-.641c.403-.493.607-1.12.571-1.755a2.543 2.543 0 0 0-.571-1.755 2.086 2.086 0 0 0-1.643-.641h-7.965v4.792zm0-8.453h7.45a1.915 1.915 0 0 0 1.406-.522c.37-.394.562-.923.529-1.462a1.986 1.986 0 0 0-.529-1.469 1.9 1.9 0 0 0-1.406-.529h-7.45v3.982zm17.143 7.1c-.043-.449.14-.89.487-1.177.27-.217.601-.341.947-.355h1.657a2.062 2.062 0 0 1 1.908 1.365c.439.911 1.418 1.367 2.938 1.367l4.874.1c1.634 0 2.451-.533 2.451-1.6 0-.808-.998-1.444-2.994-1.908a70.818 70.818 0 0 0-2.952-.634 34.33 34.33 0 0 1-3.21-.787 19.863 19.863 0 0 1-2.931-1.114 5.7 5.7 0 0 1-2.166-1.765 4.318 4.318 0 0 1-.829-2.639 5.088 5.088 0 0 1 1.991-4.31c1.327-1.007 3.611-1.511 6.851-1.511l3.535.08a9.328 9.328 0 0 1 5.146 1.469 4.29 4.29 0 0 1 2.291 3.669c.042.45-.14.893-.487 1.184a1.583 1.583 0 0 1-.933.362h-1.655a2.063 2.063 0 0 1-1.908-1.372c-.437-.915-1.416-1.372-2.938-1.372l-4.192-.084c-1.634 0-2.451.533-2.451 1.6 0 .585.518 1.063 1.553 1.434 1.227.422 2.484.75 3.76.982 1.471.285 2.95.628 4.435 1.028a9.229 9.229 0 0 1 3.779 1.973 4.375 4.375 0 0 1 1.553 3.419 5.082 5.082 0 0 1-2 4.31c-1.333 1.007-3.615 1.511-6.844 1.511l-4.219-.084a9.362 9.362 0 0 1-5.15-1.469 4.288 4.288 0 0 1-2.298-3.669l.001-.003zm23.357 3.776V96.998a1.228 1.228 0 0 1 .39-.919 1.3 1.3 0 0 1 .933-.376h16.052c.35-.005.685.136.926.39.25.246.388.583.383.933v1.309c.006.348-.133.683-.383.926-.243.25-.578.389-.926.383h-12.13v4.052h10.445c.348-.006.683.133.926.383.25.243.389.578.383.926v1.309c.006.348-.133.683-.383.926-.243.25-.578.389-.926.383H76.271v4.108h12.1c.34-.005.668.131.905.376.247.241.383.574.376.919v1.337a1.25 1.25 0 0 1-.39.926c-.246.25-.583.388-.933.383H72.344a1.286 1.286 0 0 1-.933-.383 1.283 1.283 0 0 1-.385-.954zm41.986.738c0 .4-.237.6-.71.6h-3.342a2.287 2.287 0 0 1-1.163-.383 2.816 2.816 0 0 1-.971-.927l-2.367-3.7a4.194 4.194 0 0 0-3.539-2.292h-3.394v5.992c.006.348-.133.683-.383.926-.243.25-.578.389-.926.383h-2.622a1.285 1.285 0 0 1-.933-.383 1.25 1.25 0 0 1-.39-.926V97.026a1.3 1.3 0 0 1 .376-.933c.237-.254.571-.396.919-.39h11.489a7.855 7.855 0 0 1 5.229 1.713 5.724 5.724 0 0 1 2.04 4.623c0 2.701-1.75 4.396-5.25 5.083.59.225 1.119.585 1.546 1.049a15.152 15.152 0 0 1 1.629 2.165l2.535 4.027c.134.213.21.457.222.708l.005.002zm-15.486-10.639h5.932a5.382 5.382 0 0 0 2.528-.571 1.916 1.916 0 0 0 1.093-1.824 1.916 1.916 0 0 0-1.093-1.824 5.382 5.382 0 0 0-2.528-.571h-5.932v4.79zm15.9-7.563a.815.815 0 0 1-.084-.369.857.857 0 0 1 .258-.5.912.912 0 0 1 .731-.3h3.05c.78.039 1.446.572 1.657 1.323l5.389 12 5.389-12a1.84 1.84 0 0 1 1.657-1.323h3.05a.908.908 0 0 1 .738.3c.137.134.225.31.251.5a.951.951 0 0 1-.07.369l-8.021 17.381a2.116 2.116 0 0 1-1.995 1.419h-2a2.116 2.116 0 0 1-1.991-1.42l-8.009-17.38zm21.473 17.52 3.5-13.257c.947-3.611 4.029-5.422 9.247-5.431h7.506c.33-.006.644.137.856.39.223.248.345.571.341.905v17.393c.007.346-.135.678-.39.912a1.31 1.31 0 0 1-.933.369h-2.618c-.35.012-.69-.122-.94-.369-.247-.25-.38-.59-.369-.94v-3.509h-9.9l-.939 3.509c-.091.378-.313.71-.627.94a1.68 1.68 0 0 1-1.031.369h-2.743a.915.915 0 0 1-.78-.313.917.917 0 0 1-.23-.55c.003-.14.02-.28.05-.418zm7.327-7.478h8.871v-7.269h-3.971a3.739 3.739 0 0 0-2.333.759 3.706 3.706 0 0 0-1.344 2.04l-1.223 4.47zm16.391-8.578v-1.309a1.284 1.284 0 0 1 1.323-1.323h17.672a1.284 1.284 0 0 1 1.323 1.323v1.309c.011.352-.125.693-.376.94a1.3 1.3 0 0 1-.947.369h-6.211v14.747c.007.345-.132.676-.383.912-.247.242-.58.375-.926.369h-2.632a1.286 1.286 0 0 1-.926-.369 1.216 1.216 0 0 1-.383-.912V99.644h-6.211a1.3 1.3 0 0 1-.947-.369 1.261 1.261 0 0 1-.379-.94h.003zm40.591 15.276c-1.894 1.662-4.677 2.493-8.348 2.493-3.671 0-6.459-.833-8.362-2.5-1.903-1.667-2.855-4.306-2.855-7.917 0-3.611.952-6.248 2.855-7.91s4.69-2.493 8.362-2.493c3.671 0 6.456.831 8.355 2.493s2.848 4.299 2.848 7.91c0 3.611-.952 6.253-2.855 7.924zm-3.8-12.9c-.938-1.114-2.454-1.671-4.547-1.671-2.093 0-3.611.557-4.554 1.671a7.546 7.546 0 0 0-1.413 4.978 7.517 7.517 0 0 0 1.411 4.982c.942 1.11 2.46 1.664 4.554 1.664 2.094 0 3.61-.555 4.547-1.664a7.544 7.544 0 0 0 1.406-4.971 7.573 7.573 0 0 0-1.406-4.984l.002-.005zm30.244 14.36c0 .4-.237.6-.71.6H221.6a2.287 2.287 0 0 1-1.163-.383 2.816 2.816 0 0 1-.968-.926l-2.367-3.7a4.194 4.194 0 0 0-3.537-2.291h-3.4v5.992c.006.348-.133.683-.383.926-.243.25-.578.389-.926.383h-2.618a1.286 1.286 0 0 1-.933-.383 1.25 1.25 0 0 1-.39-.926V97.026a1.3 1.3 0 0 1 .376-.933c.237-.254.571-.396.919-.39h11.489a7.855 7.855 0 0 1 5.229 1.713 5.724 5.724 0 0 1 2.04 4.623c0 2.701-1.75 4.396-5.25 5.083.59.225 1.12.584 1.548 1.049a15.152 15.152 0 0 1 1.629 2.165l2.531 4.027c.135.212.213.456.226.708zm-15.485-10.637h5.932a5.382 5.382 0 0 0 2.527-.571 1.916 1.916 0 0 0 1.093-1.824 1.916 1.916 0 0 0-1.093-1.824 5.382 5.382 0 0 0-2.527-.571h-5.932v4.79zm15.667-8.063c0-.445.241-.668.724-.668h2.646a2.715 2.715 0 0 1 2.423 1.323l4.512 6.945 4.5-6.949a2.736 2.736 0 0 1 2.423-1.323h2.66c.473 0 .71.223.71.668-.01.235-.087.463-.223.655l-7.45 11.517v5.852c.007.345-.132.676-.383.912-.247.242-.58.375-.926.369h-2.624a1.31 1.31 0 0 1-.933-.369 1.206 1.206 0 0 1-.39-.912v-5.849l-7.436-11.517a1.18 1.18 0 0 1-.233-.654z"/>
        </g>
        <rect fill="#4878FF" x="216.9" width="40" height="17" rx="4"/>
        <text transform="translate(221.9 1)" fill="#FFF" font-family="Inter-Regular_Medium, Inter" font-size="12" font-weight="400">
                        <tspan x="0" y="12">BETA</tspan>
                    </text>
    </g>
</svg>
