<svg width="22" height="22" viewBox="0 0 22 22" fill="none" xmlns="http://www.w3.org/2000/svg">
    <path fill-rule="evenodd" clip-rule="evenodd" d="M2.27 1h13.537c.72 0 1.27.542 1.27 1.25v4.167l1.057-1.042a1.007 1.007 0 0 1 1.396 0l1.184 1.167c.381.375.381 1 0 1.375L17.076 11.5v8.25c0 .708-.55 1.25-1.269 1.25H2.269C1.55 21 1 20.458 1 19.75V2.25C1 1.542 1.55 1 2.27 1zm13.537 19.167c.254 0 .423-.167.423-.417v-7.417l-2.242 2.209a.323.323 0 0 1-.17.083l-3.045 1.042c-.043.041-.085.041-.127.041H3.792c-.254 0-.423-.166-.423-.416 0-.25.17-.417.423-.417h6.558l.719-2.042H3.792c-.254 0-.423-.166-.423-.416 0-.25.17-.417.423-.417h7.615l2.073-2.042H3.792c-.254 0-.423-.166-.423-.416 0-.25.17-.417.423-.417h10.534L16.23 7.25v-5c0-.25-.17-.417-.423-.417H2.269c-.254 0-.423.167-.423.417v17.5c0 .25.17.417.423.417h13.538zm2.961-14.209c.085-.083.127-.083.212 0l1.184 1.167c.043.042.043.125 0 .208l-.719.709-1.396-1.375.72-.709zm.085 2.667L17.457 7.25l-.508.5-4.823 4.833-.761 2.084 2.115-.75 2.92-2.875 2.453-2.417z" fill="#4878FF"/>
    <path d="M17.076 6.417h-.1v.239l.17-.168-.07-.071zm1.058-1.042-.07-.071.07.071zm1.396 0-.07.071.07-.071zm1.184 1.167.07-.072-.07.072zm0 1.375.07.07-.07-.07zM17.076 11.5l-.07-.071-.03.03v.041h.1zm-.846.833h.1v-.239l-.17.168.07.071zm-2.242 2.209-.07-.072.07.072zm-.17.083v-.1h-.016l-.016.005.033.095zm-3.045 1.042-.033-.095-.021.007-.017.016.07.072zm-.423-.792v.1h.07l.024-.067-.094-.033zm.719-2.042.094.034.047-.134h-.141v.1zm.338-.833v.1h.041l.03-.029-.07-.071zm2.073-2.042.07.072.174-.172h-.244v.1zm.846-.833v.1h.041l.03-.029-.07-.071zM16.23 7.25l.07.071.03-.03V7.25h-.1zm2.75-1.292.07-.07-.07.07zm-.212 0-.07-.07.07.07zm1.396 1.167-.07.071.07-.071zm0 .208.07.072.012-.012.008-.014-.09-.046zm-.719.709-.07.07.07.07.07-.07-.07-.07zM18.05 6.667l-.07-.072-.072.072.072.07.07-.07zm-.592.583.07-.071-.07-.07-.07.07.07.071zm1.396 1.375.07.071.073-.071-.073-.071-.07.071zm-1.904-.875-.07-.071.07.071zm-4.823 4.833-.07-.07-.016.015-.007.021.093.034zm-.761 2.084-.094-.035-.073.2.2-.071-.033-.094zm2.115-.75.034.094.02-.007.016-.016-.07-.071zm2.92-2.875.07.07-.07-.07zM15.806.9H2.269v.2h13.538V.9zm1.37 1.35c0-.765-.597-1.35-1.37-1.35v.2c.665 0 1.17.498 1.17 1.15h.2zm0 4.167V2.25h-.2v4.167h.2zm.887-1.113-1.058 1.041.14.143 1.058-1.042-.14-.142zm1.536 0a1.107 1.107 0 0 0-1.536 0l.14.142a.907.907 0 0 1 1.256 0l.14-.142zm1.185 1.166L19.6 5.304l-.14.142 1.184 1.167.14-.143zm0 1.518a1.07 1.07 0 0 0 0-1.518l-.14.143a.87.87 0 0 1 0 1.232l.14.143zm-3.639 3.583 3.639-3.583-.14-.143-3.639 3.584.14.142zm.03 8.179V11.5h-.2v8.25h.2zm-1.369 1.35c.773 0 1.37-.585 1.37-1.35h-.2c0 .652-.505 1.15-1.17 1.15v.2zm-13.538 0h13.538v-.2H2.269v.2zM.9 19.75c0 .765.596 1.35 1.37 1.35v-.2c-.666 0-1.17-.498-1.17-1.15H.9zm0-17.5v17.5h.2V2.25H.9zM2.27.9C1.495.9.9 1.485.9 2.25h.2c0-.652.504-1.15 1.17-1.15V.9zm13.86 18.85c0 .102-.034.18-.086.23a.327.327 0 0 1-.237.087v.2c.15 0 .281-.05.377-.144a.513.513 0 0 0 .146-.373h-.2zm0-7.417v7.417h.2v-7.417h-.2zm-2.072 2.28 2.242-2.208-.14-.143-2.242 2.208.14.143zm-.24.112c.046 0 .095-.02.13-.036a.441.441 0 0 0 .11-.076l-.14-.143a.243.243 0 0 1-.09.052l-.01.003v.2zm-3.013 1.036 3.046-1.041-.065-.19-3.046 1.042.065.19zm-.16.047c.044 0 .124.002.198-.07l-.14-.143a.033.033 0 0 1-.018.011.171.171 0 0 1-.04.002v.2zm-6.853 0h6.854v-.2H3.792v.2zm-.523-.516c0 .148.05.279.146.373a.526.526 0 0 0 .377.143v-.2a.327.327 0 0 1-.236-.085.314.314 0 0 1-.087-.231h-.2zm.523-.517c-.149 0-.281.05-.377.143a.513.513 0 0 0-.146.374h.2c0-.102.034-.18.087-.231a.328.328 0 0 1 .236-.086v-.2zm6.558 0H3.792v.2h6.558v-.2zm.624-1.975-.719 2.042.189.066.72-2.041-.19-.067zm-7.182.133h7.277v-.2H3.792v.2zm-.523-.516c0 .148.05.279.146.373a.526.526 0 0 0 .377.143v-.2a.327.327 0 0 1-.236-.085.314.314 0 0 1-.087-.231h-.2zm.523-.517c-.149 0-.281.05-.377.143a.513.513 0 0 0-.146.374h.2c0-.102.034-.18.087-.231a.328.328 0 0 1 .236-.086v-.2zm7.615 0H3.792v.2h7.615v-.2zm2.003-2.013-2.073 2.042.14.142 2.073-2.041-.14-.143zm-9.618.171h9.688v-.2H3.792v.2zm-.523-.516c0 .148.05.279.146.373a.526.526 0 0 0 .377.143v-.2a.327.327 0 0 1-.236-.085.314.314 0 0 1-.087-.231h-.2zm.523-.517c-.149 0-.281.05-.377.143a.513.513 0 0 0-.146.374h.2c0-.102.034-.18.087-.231a.327.327 0 0 1 .236-.086v-.2zm10.534 0H3.792v.2h10.534v-.2zm1.834-1.846-1.904 1.875.14.142L16.3 7.321l-.14-.142zm-.03-4.929v5h.2v-5h-.2zm-.323-.317c.105 0 .184.034.237.086a.314.314 0 0 1 .086.231h.2c0-.148-.05-.28-.146-.373a.526.526 0 0 0-.377-.144v.2zm-13.538 0h13.538v-.2H2.269v.2zm-.323.317c0-.102.034-.18.087-.23a.327.327 0 0 1 .236-.087v-.2c-.149 0-.281.05-.377.144a.513.513 0 0 0-.146.373h.2zm0 17.5V2.25h-.2v17.5h.2zm.323.317a.327.327 0 0 1-.236-.086.314.314 0 0 1-.087-.231h-.2c0 .148.05.28.146.373a.526.526 0 0 0 .377.144v-.2zm13.538 0H2.269v.2h13.538v-.2zm3.243-14.18c-.042-.041-.1-.091-.176-.091-.076 0-.134.05-.176.091l.14.143a.232.232 0 0 1 .04-.033c.006-.004.003-.001-.004-.001s-.01-.003-.003.001c.008.004.02.014.039.033l.14-.143zm1.185 1.167L19.05 5.887l-.14.143 1.184 1.166.14-.142zm.019.325a.37.37 0 0 0 .042-.165.22.22 0 0 0-.061-.16l-.14.142c-.004-.003.001 0 .001.018a.172.172 0 0 1-.02.074l.178.09zm-.739.734.72-.708-.14-.143-.72.708.14.143zM17.98 6.738l1.396 1.375.14-.143-1.396-1.375-.14.143zm.72-.85-.72.707.14.143.72-.708-.14-.143zM17.386 7.32l1.396 1.375.14-.142-1.396-1.375-.14.142zm-.368.5.508-.5-.14-.142-.508.5.14.142zm-4.822 4.833 4.823-4.833-.142-.142-4.822 4.834.141.141zm-.738 2.047.761-2.083-.188-.069-.761 2.083.188.069zm1.988-.879-2.115.75.066.189 2.116-.75-.067-.189zm2.882-2.852-2.919 2.875.14.143 2.92-2.875-.14-.143zm2.454-2.416-2.454 2.416.14.143 2.454-2.417-.14-.142z" fill="#4878FF"/>
    <path d="M4.409 7H14.59c.245 0 .409-.2.409-.5s-.164-.5-.409-.5H4.41C4.164 6 4 6.2 4 6.5s.164.5.409.5zM4 18.5c0 .3.164.5.409.5H14.59c.245 0 .409-.2.409-.5s-.164-.5-.409-.5H4.41c-.245 0-.409.2-.409.5zM4.409 4H14.59c.245 0 .409-.2.409-.5s-.164-.5-.409-.5H4.41C4.164 3 4 3.2 4 3.5s.164.5.409.5z" fill="#4878FF" stroke="#4878FF" stroke-width=".2"/>
</svg>
