<?xml version="1.0" encoding="UTF-8"?>
<svg width="247px" height="113px" viewBox="0 0 247 113" version="1.1" xmlns="http://www.w3.org/2000/svg" xmlns:xlink="http://www.w3.org/1999/xlink">
    <title>B48D7460-025F-40F8-BABC-FD9EAAFCA9EA</title>
    <g id="Final" stroke="none" stroke-width="1" fill="none" fill-rule="evenodd">
        <g id="Explorer-Assets-2" transform="translate(-32.000000, -832.000000)" fill="#FFFFFF" fill-rule="nonzero">
            <g id="Group_16" transform="translate(32.000000, 832.674370)">
                <path d="M4.977,72.6056298 C3.299,72.6056298 2.35933333,71.8506298 2.158,70.3406298 C2.22957426,69.4244645 2.60106531,68.5574177 3.215,67.8736298 L28.59,35.5006298 L4.675,5.19162981 C4.05059239,4.51457758 3.6774734,3.64373127 3.618,2.72462981 C3.618,1.18062981 4.541,0.408629808 6.387,0.408629808 L17.212,0.408629808 C20.5686667,0.408629808 23.5056667,2.00296314 26.023,5.19162981 L39.823,22.7126298 L53.612,5.19162981 C56.096,2.03629647 59.033,0.441963141 62.423,0.408629808 L73.248,0.408629808 C75.094,0.408629808 76.017,1.18062981 76.017,2.72462981 C75.9451465,3.64091612 75.573298,4.50797676 74.959,5.19162981 L51.04,35.5006298 L76.419,67.8736298 C76.9866156,68.4500934 77.357003,69.1915683 77.477,69.9916298 C77.5272596,70.7366009 77.2386523,71.464471 76.691536,71.9725769 C76.1444197,72.4806828 75.3972265,72.7147586 74.658,72.6096298 L63.933,72.6096298 C60.5763333,72.6096298 57.6563333,71.0319631 55.173,67.8766298 L39.817,48.2916298 L24.462,67.8736298 C21.9806667,71.0282965 19.0603333,72.6056298 15.701,72.6056298 L4.977,72.6056298 Z M85.683,67.9746298 L85.683,5.29162981 C85.6533186,3.98864504 86.1636169,2.73135697 87.093,1.81762981 C87.9742689,0.901845004 89.1951594,0.39148167 90.466,0.407257922 L118.61,0.407257922 C133.177333,0.407257922 143.775333,3.31929647 150.404,9.14262981 C157.032667,14.9659631 160.347,24.0956298 160.347,36.5316298 C160.347,48.9669631 157.032667,58.0879631 150.404,63.8946298 C143.775333,69.7012965 133.177333,72.6049631 118.61,72.6062646 L90.466,72.6062646 C89.2091888,72.6261956 87.9957549,72.1462903 87.093,71.2716298 C86.1717961,70.4257857 85.6582717,69.2250127 85.683,67.9746298 Z M104.664,58.3586298 L118.056,58.3586298 C127.084667,58.3586298 133.227,56.7139631 136.483,53.4246298 C139.739,50.1352965 141.367,44.5049631 141.367,36.5336298 C141.367,28.5622965 139.739,22.9232965 136.483,19.6166298 C133.227,16.3099631 127.084667,14.6569631 118.056,14.6576296 L104.664,14.6576296 L104.664,58.3586298 Z M175.854,64.0986298 C169.644667,58.1572965 166.54,48.9686298 166.54,36.5326298 C166.54,24.0966298 169.653,14.8999631 175.879,8.94262981 C182.105,2.98462981 191.444333,0.00562980762 203.897,0.00562980762 L215.124,0.00562980762 C222.310959,-0.122843738 229.365239,1.95024075 235.34,5.94662981 C241.197333,9.90729647 244.126,15.3279631 244.126,22.2086298 C244.281173,23.8311934 243.621022,25.4249952 242.364,26.4626298 C241.389376,27.2458318 240.189288,27.6958646 238.94,27.7466298 L232.949,27.7466298 C229.861,27.7466298 227.461,25.9006298 225.749,22.2086298 C223.265,16.9052965 219.136667,14.2536298 213.364,14.2536298 L204.402,14.2536298 C197.051333,14.2536298 192.067,15.8312965 189.449,18.9866298 C186.831,22.1419631 185.522,27.9822965 185.522,36.5076298 C185.522,45.0329631 186.831,50.8816298 189.449,54.0536298 C192.067,57.2256298 197.051333,58.8116298 204.402,58.8116298 L214.42,58.8116298 C220.193333,58.8116298 224.305,56.1599631 226.755,50.8566298 C228.467,47.1312965 230.883667,45.2686298 234.005,45.2686298 L239.996,45.2686298 C241.457856,45.2140626 242.855658,45.8706681 243.747,47.0306298 C244.63539,48.1084703 245.124595,49.4598754 245.132,50.8566298 C245.132,57.7372965 242.212,63.1496298 236.372,67.0936298 C230.402246,71.0764871 223.358233,73.1406003 216.183,73.0096298 L203.897,73.0096298 C191.445,73.0089631 182.097333,70.0382965 175.854,64.0976298 L175.854,64.0986298 Z" id="Path_33"></path>
                <path d="M19.566,108.93663 C17.6726667,110.59863 14.89,111.42963 11.218,111.42963 C7.546,111.42963 4.75833333,110.596296 2.855,108.92963 C0.951666667,107.26363 0,104.624963 0,101.01363 C0,97.4022965 0.951666667,94.7656298 2.855,93.1036298 C4.75833333,91.4416298 7.54566667,90.6106298 11.217,90.6106298 C14.8883333,90.6106298 17.6733333,91.4416298 19.572,93.1036298 C21.4706667,94.7656298 22.42,97.4022965 22.42,101.01363 C22.42,104.624963 21.4686667,107.265963 19.566,108.93663 Z M15.766,96.0366298 C14.8286667,94.9226298 13.313,94.3656298 11.219,94.3656298 C9.125,94.3656298 7.60666667,94.9242965 6.664,96.0416298 C5.62041394,97.4826928 5.11960101,99.2461635 5.25,101.02063 C5.1177905,102.794348 5.61881088,104.557486 6.664,105.99663 C7.606,107.105963 9.124,107.66063 11.218,107.66063 C13.312,107.66063 14.8273333,107.105963 15.764,105.99663 C16.8031639,104.556774 17.3010491,102.79647 17.17,101.02563 C17.3015639,99.250694 16.8037749,97.4861277 15.764,96.0416298 L15.766,96.0366298 Z M25.277,92.3466298 C25.2726008,91.9951213 25.4137534,91.6574407 25.667,91.4136298 C25.9108109,91.1603832 26.2484915,91.0192306 26.6,91.02353 L37.92,91.02353 C40.696,91.02353 42.743,91.8236298 44.061,93.4236298 C44.8204404,94.3811397 45.2107941,95.5795256 45.161,96.8006298 C45.1339039,98.2252951 44.4373279,99.5539767 43.281,100.38663 C44.9813495,101.205637 46.032262,102.956896 45.955,104.84263 C46.0604927,106.634485 45.2573429,108.359171 43.818,109.43163 C42.286444,110.508379 40.4461827,111.057684 38.575,110.99663 L26.599,110.99663 C26.2488013,111.001444 25.9118106,110.863108 25.666,110.61363 C25.4122052,110.373098 25.270761,110.037258 25.2758595,109.68763 L25.277,92.3466298 Z M30.526,107.23763 L38.492,107.23763 C39.1071579,107.277067 39.70826,107.04241 40.134,106.59663 C40.5373861,106.103773 40.7411503,105.477493 40.705,104.84163 C40.7411503,104.205767 40.5373861,103.579487 40.134,103.08663 C39.7080296,102.640573 39.1064987,102.405891 38.491,102.44563 L30.526,102.44563 L30.526,107.23763 Z M30.526,98.7846298 L37.976,98.7846298 C38.4961446,98.8090223 39.0037948,98.6205491 39.382,98.2626298 C39.7521389,97.8689376 39.9435198,97.3400172 39.911,96.8006298 C39.9426161,96.2592771 39.7514928,95.7285396 39.382,95.3316298 C39.0059001,94.9696426 38.4974362,94.7783357 37.976,94.8026298 L30.526,94.8026298 L30.526,98.7846298 Z M47.669,105.88463 C47.625854,105.435775 47.808323,104.994777 48.156,104.70763 C48.425589,104.491084 48.7574956,104.366663 49.103,104.35263 L50.76,104.35263 C51.6180838,104.366248 52.3780209,104.909914 52.668,105.71763 C53.1066667,106.628963 54.086,107.08463 55.606,107.08463 L60.48,107.18463 C62.114,107.18463 62.931,106.651296 62.931,105.58463 C62.931,104.77663 61.933,104.14063 59.937,103.67663 C59.0456667,103.463296 58.0616667,103.251963 56.985,103.04263 C55.9083333,102.833296 54.8383333,102.570963 53.775,102.25563 C52.7701714,101.962111 51.7901185,101.589618 50.844,101.14163 C49.9867516,100.742105 49.2423893,100.13555 48.678,99.3766298 C48.119759,98.6116682 47.8284731,97.6844022 47.849,96.7376298 C47.7606222,95.0604066 48.5056458,93.4476234 49.84,92.4276298 C51.1673333,91.4202965 53.451,90.9166298 56.691,90.9166298 L60.226,90.9966298 C62.0479936,90.9731728 63.8369629,91.4838599 65.372,92.4656298 C66.7414668,93.1859614 67.616903,94.5879585 67.663,96.1346298 C67.7049811,96.585328 67.5229424,97.0279027 67.176,97.3186298 C66.9123289,97.5370146 66.5849633,97.6640311 66.243,97.6806298 L64.588,97.6806298 C63.7282133,97.6656471 62.967898,97.1189214 62.68,96.3086298 C62.2433333,95.3939631 61.264,94.9366298 59.742,94.9366298 L55.55,94.8526298 C53.916,94.8526298 53.099,95.3859631 53.099,96.4526298 C53.099,97.0372965 53.6166667,97.5152965 54.652,97.8866298 C55.8786668,98.3086755 57.1356145,98.6369528 58.412,98.8686298 C59.8833333,99.1539631 61.3616667,99.4966298 62.847,99.8966298 C64.2433805,100.250366 65.537571,100.926057 66.626,101.86963 C67.6313174,102.717888 68.2016275,103.973452 68.179,105.28863 C68.2663362,106.967682 67.5175788,108.581255 66.179,109.59863 C64.8456667,110.605963 62.5643333,111.10963 59.335,111.10963 L55.116,111.02563 C53.2929143,111.047883 51.5030023,110.537324 49.966,109.55663 C48.5935273,108.838472 47.7150719,107.435925 47.668,105.88763 L47.669,105.88463 Z M71.026,109.66063 L71.026,92.3236298 C71.0199961,91.9758906 71.1617271,91.6419142 71.416,91.4046298 C71.6639451,91.1591766 72.0001452,91.0236875 72.349,91.0284893 L88.401,91.0284893 C88.7506285,91.0233908 89.0864679,91.164835 89.327,91.4186298 C89.5764784,91.6644404 89.7148144,92.0014311 89.7101635,92.3516298 L89.7101635,93.6606298 C89.7156037,94.0089267 89.5769943,94.34405 89.327,94.5866298 C89.0844202,94.8366241 88.7492969,94.9752335 88.401,94.9696298 L76.271,94.9696298 L76.271,99.0216298 L86.716,99.0216298 C87.0642969,99.0160262 87.3994202,99.1546355 87.642,99.4046298 C87.8919943,99.6472096 88.0306037,99.9823329 88.025,100.33063 L88.025,101.63963 C88.0306037,101.987927 87.8919943,102.32305 87.642,102.56563 C87.3994202,102.815624 87.0642969,102.954233 86.716,102.94863 L76.271,102.94863 L76.271,107.05663 L88.371,107.05663 C88.7116352,107.051668 89.0391674,107.187748 89.276,107.43263 C89.5228448,107.673909 89.6589301,108.006521 89.652,108.35163 L89.652,109.68863 C89.657239,110.038258 89.5157948,110.374098 89.262,110.61463 C89.0161894,110.864108 88.6791987,111.002444 88.329,110.997751 L72.344,110.997751 C71.9938013,111.002444 71.6568106,110.864108 71.411,110.61463 C71.1552114,110.364255 71.0156413,110.018412 71.026,109.66063 Z M113.012,110.39863 C113.012,110.79863 112.775333,110.99863 112.302,110.99863 L108.96,110.99863 C108.544728,110.979042 108.14265,110.846629 107.797,110.61563 C107.403336,110.389426 107.070203,110.071389 106.826,109.68863 L104.459,105.98863 C103.777029,104.644081 102.425874,103.769018 100.92,103.69663 L97.526,103.69663 L97.526,109.68863 C97.5316037,110.036927 97.3929943,110.37205 97.143,110.61463 C96.9004202,110.864624 96.5652969,111.003233 96.217,110.99763 L93.595,110.99763 C93.2448013,111.002444 92.9078106,110.864108 92.662,110.61463 C92.4082052,110.374098 92.266761,110.038258 92.2718595,109.68863 L92.2718595,92.3516298 C92.2670577,92.002775 92.4025468,91.6665749 92.648,91.4186298 C92.8852844,91.1643569 93.2192608,91.0226259 93.567,91.0286298 L105.056,91.0286298 C106.948525,90.9504991 108.805544,91.5588515 110.285,92.7416298 C111.6452,93.8828337 112.398807,95.590639 112.325,97.3646298 C112.325,100.065963 110.575,101.760296 107.075,102.44763 C107.664499,102.673077 108.193692,103.032148 108.621,103.49663 C109.227562,104.168203 109.772741,104.892765 110.25,105.66163 L112.785,109.68863 C112.918818,109.901536 112.995294,110.145434 113.007,110.39663 L113.012,110.39863 Z M97.526,99.7596298 L103.458,99.7596298 C104.334598,99.7780585 105.202425,99.5820423 105.986,99.1886298 C106.685245,98.8571398 107.116438,98.1375645 107.079,97.3646298 C107.116438,96.5916952 106.685245,95.8721198 105.986,95.5406298 C105.202425,95.1472174 104.334598,94.9512011 103.458,94.9696298 L97.526,94.9696298 L97.526,99.7596298 Z M113.426,92.1966298 C113.3694,92.0819371 113.340622,91.9555209 113.341953,91.8276298 C113.36928,91.6366775 113.460181,91.4605122 113.6,91.3276298 C113.785447,91.1217838 114.054414,91.0114009 114.331,91.0276298 L117.381,91.0276298 C118.160292,91.0666132 118.827464,91.5993036 119.038,92.3506298 L124.427,104.35063 L129.816,92.3506298 C130.033169,91.6037214 130.696547,91.0740598 131.473,91.0276298 L134.523,91.0276298 C134.802078,91.0086148 135.074342,91.1192916 135.261,91.3276298 C135.397681,91.4619362 135.485956,91.6377833 135.512063,91.8276298 C135.513455,91.9540625 135.489657,92.0795138 135.442,92.1966298 L127.421,109.57763 C127.124908,110.426364 126.324898,110.995393 125.426,110.99663 L123.426,110.99663 C122.528311,110.993548 121.730267,110.424375 121.435,109.57663 L113.426,92.1966298 Z M134.899,109.71663 L138.399,96.4596298 C139.345667,92.8482965 142.428,91.0379631 147.646,91.02844 L155.152,91.02844 C155.481631,91.0224844 155.796331,91.1658642 156.008,91.4186298 C156.230949,91.6669726 156.352632,91.9899123 156.349,92.3236298 L156.349,109.71663 C156.355817,110.062494 156.213783,110.394634 155.959,110.62863 C155.709292,110.870571 155.373645,111.003319 155.026,110.99763 L152.408,110.99763 C152.057194,111.009484 151.717061,110.875963 151.468,110.62863 C151.220666,110.379569 151.087146,110.039436 151.099,109.68863 L151.099,106.17963 L141.199,106.17963 L140.26,109.68863 C140.169027,110.066378 139.946813,110.399521 139.633,110.62863 C139.34019,110.863324 138.977233,110.993228 138.602,110.99763 L135.859,110.99763 C135.563629,111.025941 135.272869,110.909264 135.079,110.68463 C134.943216,110.53203 134.86227,110.338463 134.849,110.13463 C134.851972,109.993998 134.868719,109.853995 134.899,109.71663 Z M142.226,102.23863 L151.097,102.23863 L151.097,94.9696298 L147.126,94.9696298 C146.285101,94.9530327 145.463167,95.2204346 144.793,95.7286298 C144.127312,96.2371847 143.65356,96.9562728 143.449,97.7686298 L142.226,102.23863 Z M158.617,93.6606298 L158.617,92.3516298 C158.606361,91.9976159 158.742422,91.6549293 158.993,91.4046298 C159.243299,91.154052 159.585986,91.0179906 159.94,91.0286298 L177.612,91.0286298 C177.966014,91.0179906 178.308701,91.154052 178.559,91.4046298 C178.809578,91.6549293 178.945639,91.9976159 178.935,92.3516298 L178.935,93.6606298 C178.946473,94.0127288 178.810135,94.353574 178.559,94.6006298 C178.306486,94.8470417 177.964661,94.9802341 177.612,94.9696298 L171.401,94.9696298 L171.401,109.71663 C171.408332,110.061167 171.26913,110.392635 171.018,110.62863 C170.771495,110.871121 170.437723,111.004125 170.092,110.99763 L167.46,110.99763 C167.114277,111.004125 166.780505,110.871121 166.534,110.62863 C166.28287,110.392635 166.143668,110.061167 166.151,109.71663 L166.151,94.9696298 L159.94,94.9696298 C159.587339,94.9802341 159.245514,94.8470417 158.993,94.6006298 C158.740764,94.3540901 158.603311,94.0131785 158.614,93.6606298 L158.617,93.6606298 Z M199.208,108.93663 C197.314,110.59863 194.531333,111.42963 190.86,111.42963 C187.188667,111.42963 184.401333,110.596296 182.498,108.92963 C180.594667,107.262963 179.643,104.623963 179.643,101.01263 C179.643,97.4012965 180.594667,94.7646298 182.498,93.1026298 C184.401333,91.4406298 187.188667,90.6096298 190.86,90.6096298 C194.531333,90.6096298 197.316333,91.4406298 199.215,93.1026298 C201.113667,94.7646298 202.063,97.4012965 202.063,101.01263 C202.063,104.623963 201.111333,107.265296 199.208,108.93663 Z M195.408,96.0366298 C194.47,94.9226298 192.954333,94.3656298 190.861,94.3656298 C188.767667,94.3656298 187.249667,94.9226298 186.307,96.0366298 C185.263996,97.4775565 184.763553,99.2406203 184.894,101.01463 C184.759481,102.789993 185.259499,104.555471 186.305,105.99663 C187.247,107.105963 188.765,107.66063 190.859,107.66063 C192.953,107.66063 194.468667,107.105963 195.406,105.99663 C196.445085,104.556736 196.942962,102.796461 196.812,101.02563 C196.943564,99.250694 196.445775,97.4861277 195.406,96.0416298 L195.408,96.0366298 Z M225.652,110.39663 C225.652,110.79663 225.415333,110.99663 224.942,110.99663 L221.6,110.99663 C221.184728,110.977042 220.78265,110.844629 220.437,110.61363 C220.044545,110.387321 219.712483,110.069667 219.469,109.68763 L217.102,105.98763 C216.420112,104.644069 215.069929,103.769524 213.565,103.69663 L210.165,103.69663 L210.165,109.68863 C210.170604,110.036927 210.031994,110.37205 209.782,110.61463 C209.53942,110.864624 209.204297,111.003233 208.856,110.997793 L206.238,110.997793 C205.887801,111.002444 205.550811,110.864108 205.305,110.61463 C205.051205,110.374098 204.909761,110.038258 204.914859,109.68863 L204.914859,92.3516298 C204.910058,92.002775 205.045547,91.6665749 205.291,91.4186298 C205.528284,91.1643569 205.862261,91.0226259 206.21,91.0286298 L217.699,91.0286298 C219.591525,90.9504991 221.448544,91.5588515 222.928,92.7416298 C224.2882,93.8828337 225.041807,95.590639 224.968,97.3646298 C224.968,100.065963 223.218,101.760296 219.718,102.44763 C220.308218,102.672805 220.838121,103.031893 221.266,103.49663 C221.872562,104.168203 222.417741,104.892765 222.895,105.66163 L225.426,109.68863 C225.561269,109.901126 225.639135,110.145061 225.652,110.39663 Z M210.167,99.7596298 L216.099,99.7596298 C216.975261,99.7778951 217.842725,99.5818832 218.626,99.1886298 C219.325245,98.8571398 219.756438,98.1375645 219.719,97.3646298 C219.756438,96.5916952 219.325245,95.8721198 218.626,95.5406298 C217.842725,95.1473764 216.975261,94.9513646 216.099,94.9696298 L210.167,94.9696298 L210.167,99.7596298 Z M225.834,91.6966298 C225.834,91.2512965 226.075333,91.0286298 226.558,91.0286298 L229.204,91.0286298 C230.192335,90.9954526 231.120545,91.5022712 231.627,92.3516298 L236.139,99.2966298 L240.639,92.3476298 C241.148666,91.5016139 242.074741,90.995961 243.062,91.0246298 L245.722,91.0246298 C246.195333,91.0246298 246.432,91.2472965 246.432,91.6926298 C246.421985,91.9278245 246.344579,92.1551843 246.209,92.3476298 L238.759,103.86463 L238.759,109.71663 C238.766332,110.061167 238.62713,110.392635 238.376,110.62863 C238.129495,110.871121 237.795723,111.004125 237.45,110.99763 L234.826,110.99763 C234.478355,111.003319 234.142708,110.870571 233.893,110.62863 C233.638217,110.394634 233.496183,110.062494 233.503,109.71663 L233.503,103.86763 L226.067,92.3506298 C225.925508,92.1609272 225.844327,91.9330624 225.834,91.6966298 L225.834,91.6966298 Z" id="Path_32"></path>
            </g>
        </g>
    </g>
</svg>