<svg width="30" height="30" xmlns="http://www.w3.org/2000/svg">
    <g fill="none" fill-rule="evenodd">
        <path fill="#C1C1C1" d="M-26-103h625v355H-26z"/>
        <path d="M14.907 1c3.58 0 6.847 1.344 9.323 3.556a13.977 13.977 0 0 1 4.495 8.186L24.21 15l4.516 2.259a13.977 13.977 0 0 1-4.496 8.186A13.947 13.947 0 0 1 14.907 29c-3.581 0-6.848-1.344-9.323-3.555a13.977 13.977 0 0 1-4.496-8.186L5.603 15l-4.515-2.259a13.977 13.977 0 0 1 4.496-8.186A13.947 13.947 0 0 1 14.907 1z" stroke="#FFF" stroke-width="2"/>
        <path fill="#FFF" fill-rule="nonzero" d="m12.405 20.77 2.476-4.213 2.47 4.212h2.326l-3.55-5.79 3.471-5.694h-2.303l-2.414 4.149-2.413-4.15h-2.304l3.479 5.696-3.557 5.79z"/>
    </g>
</svg>
