<?xml version="1.0" encoding="UTF-8"?>
<svg width="22px" height="22px" viewBox="0 0 22 22" version="1.1" xmlns="http://www.w3.org/2000/svg" xmlns:xlink="http://www.w3.org/1999/xlink">
    <title>A4A90559-1231-4DFC-BA14-99210639BC16</title>
    <g id="1.1" stroke="none" stroke-width="1" fill="none" fill-rule="evenodd">
        <g id="Explorer-Assets-2" transform="translate(-620.000000, -475.000000)">
            <g id="Group-29" transform="translate(620.000000, 475.000000)">
                <rect id="Rectangle" x="0" y="0" width="22" height="22"></rect>
                <g id="XDC-Icon-512X512" transform="translate(2.000000, 2.000000)" fill-rule="nonzero">
                    <path d="M9.00028125,18.0000486 C6.76561556,18.0026937 4.60861233,17.180366 2.94285938,15.6907335 C1.29653764,14.2238041 0.248782166,12.2014413 0,10.0104679 L2.0334375,9.00032338 L0,7.98972181 C0.248700071,5.79866338 1.29646534,3.77620655 2.94285937,2.30924525 C6.39415082,-0.769748417 11.6061656,-0.769748417 15.057457,2.30924525 C16.7037212,3.77635532 17.7513624,5.79886523 18,7.98993275 L15.9665977,9.00032338 L18,10.0104679 C17.7513162,12.2014191 16.7036603,14.2237956 15.0574219,15.6907687 C13.391778,17.1803927 11.23486,18.0027136 9.00028125,18.0000486 Z" id="Combined_Shape" fill="#2149B9"></path>
                    <polygon id="X" fill="#FFFFFF" points="7.50142969 12.4815304 8.99908594 9.95028041 10.4920664 12.4815304 11.8991953 12.4815304 9.75280078 9.00225697 11.8515586 5.57986635 10.4587734 5.57986635 8.99915625 8.07318275 7.53957422 5.57986635 6.14678906 5.57986635 8.25029297 9.00225697 6.09908203 12.4815304"></polygon>
                </g>
            </g>
        </g>
    </g>
</svg>