<svg xmlns="http://www.w3.org/2000/svg" width="22" height="22" viewBox="0 0 22 22">
  <g id="Group_1" data-name="Group 1" transform="translate(-942 -522)">
    <path id="Combined_Shape" data-name="Combined Shape" d="M11,22a11.086,11.086,0,0,1-7.4-2.822A10.954,10.954,0,0,1,0,12.235L2.485,11,0,9.765A10.954,10.954,0,0,1,3.6,2.822a11.121,11.121,0,0,1,14.807,0A10.954,10.954,0,0,1,22,9.765L19.515,11,22,12.235a10.954,10.954,0,0,1-3.6,6.943A11.086,11.086,0,0,1,11,22Z" transform="translate(942 522)" fill="#2149b9"/>
    <path id="Path_1" data-name="Path 1" d="M-9.2-7.3l.922,1.687h.036L-7.318-7.3h1.092l-1.4,2.475L-6.2-2.354H-7.307l-.938-1.69h-.036l-.938,1.69h-1.108L-8.9-4.829-10.3-7.3Zm3.587,4.95V-7.3h1.8a1.832,1.832,0,0,1,.886.2,1.349,1.349,0,0,1,.561.563,1.8,1.8,0,0,1,.193.854,1.72,1.72,0,0,1-.2.847,1.312,1.312,0,0,1-.568.543,1.969,1.969,0,0,1-.9.189H-5.045V-4.95h1.052a1.126,1.126,0,0,0,.46-.082.566.566,0,0,0,.274-.247.838.838,0,0,0,.09-.408.873.873,0,0,0-.09-.416.59.59,0,0,0-.275-.257A1.072,1.072,0,0,0-4-6.449H-4.65v4.095Zm2.47-2.253L-2.01-2.354H-3.077L-4.19-4.607Zm5.693-.964H1.568a1.109,1.109,0,0,0-.109-.366.92.92,0,0,0-.212-.274.916.916,0,0,0-.3-.174,1.075,1.075,0,0,0-.365-.06,1.031,1.031,0,0,0-.619.19,1.215,1.215,0,0,0-.409.551,2.353,2.353,0,0,0-.145.876,2.372,2.372,0,0,0,.146.889,1.182,1.182,0,0,0,.41.544,1.04,1.04,0,0,0,.61.184,1.132,1.132,0,0,0,.361-.056.91.91,0,0,0,.3-.163.914.914,0,0,0,.216-.262,1.1,1.1,0,0,0,.119-.353l.978,0a2.035,2.035,0,0,1-.189.656,1.97,1.97,0,0,1-.4.563,1.87,1.87,0,0,1-.6.392,2.058,2.058,0,0,1-.789.144,2.025,2.025,0,0,1-1.093-.3,2.056,2.056,0,0,1-.759-.868A3.1,3.1,0,0,1-1.57-4.829a3.079,3.079,0,0,1,.281-1.378,2.067,2.067,0,0,1,.764-.867,2.021,2.021,0,0,1,1.085-.3,2.192,2.192,0,0,1,.738.121,1.842,1.842,0,0,1,.6.352,1.821,1.821,0,0,1,.43.564A2.243,2.243,0,0,1,2.546-5.571ZM-7.607,5.133V4.379l1.628-1.632q.208-.218.35-.392a1.5,1.5,0,0,0,.216-.342A.9.9,0,0,0-5.34,1.65a.738.738,0,0,0-.092-.376.631.631,0,0,0-.25-.244.743.743,0,0,0-.36-.086.71.71,0,0,0-.366.092.612.612,0,0,0-.241.263.912.912,0,0,0-.085.408h-.918a1.679,1.679,0,0,1,.2-.844A1.4,1.4,0,0,1-6.878.311a1.763,1.763,0,0,1,.844-.2A1.853,1.853,0,0,1-5.178.3a1.4,1.4,0,0,1,.568.518,1.421,1.421,0,0,1,.2.759,1.576,1.576,0,0,1-.1.554,2.359,2.359,0,0,1-.361.605,8.57,8.57,0,0,1-.73.8l-.668.708v.034h1.921v.856Zm5.755.109a1.638,1.638,0,0,1-.99-.307,1.91,1.91,0,0,1-.636-.882,3.846,3.846,0,0,1-.22-1.39,3.809,3.809,0,0,1,.222-1.38A1.873,1.873,0,0,1-2.839.414a1.645,1.645,0,0,1,.988-.3,1.641,1.641,0,0,1,.988.3,1.888,1.888,0,0,1,.638.869A3.753,3.753,0,0,1,0,2.663,3.884,3.884,0,0,1-.226,4.055a1.914,1.914,0,0,1-.635.882A1.621,1.621,0,0,1-1.851,5.242Zm0-.868a.7.7,0,0,0,.628-.428A2.734,2.734,0,0,0-.991,2.663,3.5,3.5,0,0,0-1.1,1.725a1.247,1.247,0,0,0-.3-.563A.629.629,0,0,0-1.851.973a.7.7,0,0,0-.625.423,2.7,2.7,0,0,0-.237,1.267,3.606,3.606,0,0,0,.106.951,1.253,1.253,0,0,0,.3.57A.631.631,0,0,0-1.851,4.374Z" transform="translate(956.89 533.704)" fill="#fff"/>
  </g>
</svg>
