<svg xmlns="http://www.w3.org/2000/svg" width="60" height="60" viewBox="0 0 60 60">
  <g id="AddLabel_NewFeature" transform="translate(-136 -27)">
    <rect id="Rectangle_3" data-name="Rectangle 3" width="60" height="60" transform="translate(136 27)" fill="none"/>
    <g id="Group_4" data-name="Group 4" transform="translate(-562.25 -227.379)">
      <path id="Path_6" data-name="Path 6" d="M33.43,14A7.637,7.637,0,0,1,41,21.7V40.91a1.09,1.09,0,0,1-.318.779L28.9,53.677a1.063,1.063,0,0,1-.766.323H14.57A7.637,7.637,0,0,1,7,46.3V21.7A7.637,7.637,0,0,1,14.57,14H33.43ZM9,21.562V46.438A5.514,5.514,0,0,0,14.466,52H27.083V47.661a7.722,7.722,0,0,1,7.653-7.787H39V21.562A5.515,5.515,0,0,0,33.533,16H14.466A5.514,5.514,0,0,0,9,21.562ZM34.343,42H37l-8,8V47.343A5.343,5.343,0,0,1,34.343,42ZM16.106,25a1.005,1.005,0,1,0,0,2H31.894a1.005,1.005,0,1,0,0-2ZM15,34a1.057,1.057,0,0,1,1.106-1H31.894a1.005,1.005,0,1,1,0,2H16.106A1.057,1.057,0,0,1,15,34Zm8.955,9a1.02,1.02,0,0,0,1.04-1H25a.98.98,0,0,0-.306-.709,1.063,1.063,0,0,0-.74-.291H16.041a1,1,0,1,0,0,2Z" transform="translate(699.25 253.379)" fill="#203d8b" stroke="#203d8b" stroke-width="0.4"/>
      <path id="Path_8" data-name="Path 8" d="M52,13.487a1.289,1.289,0,0,0-1.258-1.314H34.319l2.746-2.921a1.388,1.388,0,0,0,0-1.877,1.192,1.192,0,0,0-.9-.375,1.3,1.3,0,0,0-.9.375l-4.9,5.174a1.352,1.352,0,0,0,0,1.849l4.927,5.2a1.282,1.282,0,0,0,.9.4,1.3,1.3,0,0,0,.9-.375,1.391,1.391,0,0,0,.386-.938,1.375,1.375,0,0,0-.36-.939L34.267,14.8h16.45A1.294,1.294,0,0,0,52,13.487ZM46.809,33a1.178,1.178,0,0,0,.9-.4l4.927-5.208a1.356,1.356,0,0,0,0-1.852l-4.927-5.154a1.246,1.246,0,0,0-1.8,0,1.391,1.391,0,0,0,0,1.879l2.772,2.9H32.257a1.316,1.316,0,0,0,0,2.63h16.45l-2.8,2.953a1.371,1.371,0,0,0-.36.94,1.334,1.334,0,0,0,.385.94,1.2,1.2,0,0,0,.873.375Z" transform="translate(697.25 254.379)" fill="#02adff"/>
    </g>
  </g>
</svg>
