<svg
  xmlns="http://www.w3.org/2000/svg"
  width="38"
  height="38"
  fill="none"
  viewBox="0 0 44 44"
>
    <path
    fill="#2A2A2A"
    fill-rule="evenodd"
    d="M32.007 21.6v8.8c-.002.774-.407 1.49-1.067 1.886l-7.308 4.4c-.694.418-1.56.418-2.254 0l-7.308-4.4c-.66-.398-1.063-1.113-1.063-1.885v-8.802c0-.773.406-1.488 1.066-1.885l7.308-4.4c.694-.418 1.56-.418 2.255 0l7.307 4.4c.66.398 1.063 1.113 1.064 1.885zm-3.26-.643l-6.24-3.759-6.241 3.76 6.24 3.758 6.241-3.759zM15.2 30.401v-7.518l6.211 3.74v7.519L15.2 30.4zm8.404-3.777v7.518l6.211-3.741v-7.518l-6.211 3.74z"
    clip-rule="evenodd"
  />
    <path
    stroke="#E3E7EB"
    stroke-linecap="round"
    stroke-width="2"
    d="M22.507 11.6V4.4M31.978 34.46l5.657 5.755M12.035 34.46l-5.657 5.755"
  />
</svg>
