<svg
  xmlns="http://www.w3.org/2000/svg"
  width="38"
  height="38"
  fill="none"
  viewBox="0 0 44 44"
>
    <path
    fill="#E5E8F0"
    fill-rule="evenodd"
    d="M22.25 9C14.952 9 9 14.942 9 22.24c0 7.3 5.952 13.249 13.25 13.249 7.299 0 13.239-5.95 13.239-13.248C35.489 14.942 29.549 9 22.25 9zm0 2.407c5.998 0 10.831 4.836 10.831 10.834 0 5.997-4.833 10.84-10.83 10.84-5.998 0-10.844-4.843-10.844-10.84 0-5.998 4.846-10.834 10.843-10.834z"
    clip-rule="evenodd"
  />
    <path
    fill="#2A2A2A"
    fill-rule="evenodd"
    d="M13.82 22.243c-.024 1.628 2.43 1.628 2.407 0 0-3.337 2.679-6.017 6.016-6.018 1.71.002 3.336.73 4.476 2.005 1.07 1.198 2.865-.405 1.797-1.603-1.595-1.784-3.876-2.808-6.27-2.81-4.64-.002-8.426 3.787-8.426 8.426z"
    clip-rule="evenodd"
  />
    <path
    fill="#2A2A2A"
    fill-rule="evenodd"
    d="M18.632 22.24c0-1.98 1.638-3.608 3.618-3.608 1.558 0 2.886 1.013 3.386 2.407h3.827c1.605 0 1.605 2.41 0 2.41h-3.832c-.503 1.392-1.826 2.408-3.38 2.408-1.98 0-3.619-1.636-3.619-3.616zm4.817 0c0-.678-.52-1.2-1.199-1.2s-1.21.522-1.21 1.2c0 .68.531 1.21 1.21 1.21.68 0 1.2-.53 1.2-1.21z"
    clip-rule="evenodd"
  />
</svg>
