<svg
  xmlns="http://www.w3.org/2000/svg"
  width="38"
  height="38"
  fill="none"
  viewBox="0 0 44 44"
>
    <path
    fill="#2A2A2A"
    stroke="#2A2A2A"
    d="M11.948 21.146h.28v-5.07h5.196v-1.46l-.164-.072c-.875-.384-1.44-1.236-1.44-2.169 0-1.31 1.091-2.375 2.433-2.375 1.343 0 2.436 1.066 2.436 2.375 0 .933-.565 1.785-1.44 2.169l-.164.072v1.46h5.195v4.529h-.588c-.515-.957-1.535-1.566-2.649-1.566-1.648 0-2.988 1.31-2.988 2.92 0 1.607 1.34 2.916 2.988 2.916 1.114 0 2.135-.61 2.649-1.566h.588v4.529h-5.195v1.46l.163.072c.876.384 1.441 1.235 1.441 2.169 0 1.31-1.093 2.377-2.436 2.377-1.342 0-2.434-1.066-2.434-2.377 0-.934.566-1.785 1.441-2.17l.164-.071v-1.46h-5.196v-5.07H10.73l-.073.159c-.394.854-1.265 1.406-2.222 1.406C7.092 24.333 6 23.267 6 21.958c0-1.31 1.092-2.377 2.434-2.378.957 0 1.828.553 2.222 1.407l.073.16H11.948z"
  />
    <path
    stroke="#E5E8F0"
    d="M24.948 21.146h.28v-5.07h5.196v-1.46l-.164-.072c-.875-.384-1.44-1.236-1.44-2.169 0-1.31 1.091-2.375 2.433-2.375 1.343 0 2.436 1.066 2.436 2.375 0 .933-.565 1.785-1.44 2.169l-.164.072v1.46h5.195v4.529h-.588c-.514-.957-1.535-1.566-2.649-1.566-1.648 0-2.988 1.31-2.988 2.92 0 1.607 1.34 2.916 2.988 2.916 1.114 0 2.135-.61 2.649-1.566h.588v4.529h-5.195v1.46l.163.072c.876.384 1.441 1.235 1.441 2.169 0 1.31-1.093 2.377-2.436 2.377-1.342 0-2.434-1.066-2.434-2.377 0-.934.566-1.785 1.441-2.17l.164-.071v-1.46h-5.196v-5.07H23.73l-.073.159c-.394.854-1.265 1.406-2.222 1.406-1.342 0-2.434-1.066-2.434-2.375 0-1.31 1.092-2.377 2.434-2.378.956 0 1.828.553 2.222 1.407l.073.16H24.948z"
  />
</svg>
