<svg
  xmlns="http://www.w3.org/2000/svg"
  width="38"
  height="38"
  fill="none"
  viewBox="0 0 44 44"
>
    <path
    fill="#E5E8F0"
    fill-rule="evenodd"
    d="M17.69 14.595l-3.334 3.275c-.224.221-.588.221-.812 0-.225-.22-.225-.577 0-.798l1.947-1.913H8.574c-.316 0-.574-.254-.574-.564 0-.311.258-.564.574-.564h6.92l-1.947-1.914c-.225-.22-.225-.577 0-.798.224-.22.588-.22.812 0l3.331 3.276zm-7.066 7.897c0-1.534.307-3.022.91-4.423.124-.286-.015-.618-.309-.738-.29-.123-.626.013-.751.3-.663 1.54-.999 3.174-.999 4.861 0 6.887 5.705 12.493 12.71 12.493 1.923 0 3.767-.412 5.486-1.221.208-.098.328-.3.328-.51 0-.082-.017-.163-.056-.242-.136-.281-.48-.398-.765-.265-1.565.736-3.242 1.11-4.99 1.11-6.375 0-11.564-5.1-11.564-11.365zm23.13 0c0 .856-.098 1.709-.29 2.535-.071.305.123.607.433.676.311.068.619-.123.688-.425.21-.908.316-1.845.316-2.786C34.901 15.606 29.2 10 22.188 10c-1.553 0-3.07.273-4.51.81-.296.111-.446.435-.332.727.114.292.444.439.74.327 1.31-.488 2.688-.736 4.102-.736 6.376 0 11.565 5.1 11.565 11.364zm-.22 8.462l-1.947 1.913c-.222.22-.222.578 0 .799.225.22.588.22.813 0l3.333-3.276-3.33-3.276c-.225-.22-.588-.22-.813 0-.225.221-.225.578 0 .799l1.947 1.913h-6.92c-.316 0-.574.253-.574.564 0 .31.258.564.574.564h6.917z"
    clip-rule="evenodd"
  />
    <path
    fill="#E5E8F0"
    d="M14.357 17.87l-.351-.356.35.356zm3.333-3.275l.35-.357.363.357-.362.356-.351-.356zm-4.146 3.275l.35-.356-.35.356zm0-.798l-.35-.357.35.357zm1.947-1.913v-.5h1.222l-.872.856-.35-.356zm.002-1.128l.351-.357.872.857h-1.223v-.5zm-1.946-1.914l-.35.357.35-.357zm.812-.798l.35-.357-.35.357zm-2.826 6.75l-.46-.197.002-.003.458.2zm-.308-.738l-.188.463-.006-.002.194-.461zm-.751.3l-.46-.198.002-.002.458.2zM27.67 33.764l.214.452-.214-.452zm.272-.752l-.449.22-.001-.003.45-.217zm-.765-.265l-.213-.452.213.452zm6.287-7.72l.487.113v.002l-.487-.115zm1.12.25l-.487-.111v-.002l.487.113zM17.68 10.81l-.176-.467.001-.001.175.468zm-.333.728l-.466.182.466-.182zm.74.327l-.176-.468h.002l.175.468zm13.501 21.003l-.352-.354.002-.002.35.356zm1.947-1.913v-.5h1.222l-.871.857-.35-.357zm-1.947 2.712l-.35.356-.002-.002.352-.354zm.813 0l-.35-.357.35.357zm3.333-3.276l.35-.357.364.357-.363.357-.35-.357zm-3.33-3.276l.35-.356-.35.356zm-.813.799l-.35.356.35-.356zm1.947 1.913l.35-.357.872.857h-1.222v-.5zM14.006 17.514l3.334-3.276.7.713-3.333 3.276-.701-.713zm-.112 0c.03.03.082.03.112 0l.7.713c-.418.412-1.093.412-1.513 0l.701-.713zm0-.085c-.014.013-.019.028-.019.042 0 .014.005.029.02.043l-.702.713c-.424-.417-.424-1.095 0-1.512l.701.713zm1.947-1.914l-1.947 1.913-.7-.713 1.946-1.913.701.713zm-7.267-.856h6.917v1H8.574v-1zm-.074-.064c0 .026.026.064.074.064v1c-.584 0-1.074-.47-1.074-1.064h1zm.074-.064c-.048 0-.074.037-.074.064h-1c0-.595.49-1.064 1.074-1.064v1zm6.92 0h-6.92v-1h6.92v1zm-1.597-2.77l1.947 1.913-.7.713-1.948-1.913.701-.713zm0-.085c-.014.013-.019.028-.019.042 0 .014.005.03.02.043l-.702.713c-.424-.417-.424-1.095 0-1.512l.701.714zm.112 0c-.03-.03-.082-.03-.112 0l-.7-.714c.418-.412 1.094-.412 1.513 0l-.701.714zm3.33 3.275l-3.33-3.276.7-.713 3.332 3.276-.702.713zm-5.346 3.316c-.575 1.338-.87 2.759-.87 4.225h-1c0-1.602.322-3.157.95-4.62l.92.395zm-.579-1.4c.546.224.818.85.578 1.402l-.917-.4c.01-.02.003-.058-.038-.075l.377-.926zm-1.399.564c.234-.537.86-.79 1.404-.561l-.388.922c-.038-.017-.083.002-.099.038l-.917-.4zm-1.04 5.061c0-1.754.35-3.457 1.04-5.06l.918.396c-.636 1.477-.958 3.045-.958 4.664h-1zm13.21 12.993c-7.273 0-13.21-5.822-13.21-12.993h1c0 6.603 5.473 11.993 12.21 11.993v1zm5.7-1.269c-1.787.841-3.704 1.269-5.7 1.269v-1c1.85 0 3.621-.396 5.273-1.174l.426.905zm.613-.962c0 .4-.227.78-.613.962l-.427-.904c.016-.008.026-.018.031-.027.007-.01.01-.02.01-.03h1zm-.106-.463c.075.154.107.312.107.463h-1l-.002-.014-.003-.008.898-.44zm-1.426-.497c.525-.245 1.168-.036 1.427.5l-.9.435c-.006-.013-.018-.025-.04-.032-.02-.007-.043-.006-.064.003l-.423-.906zm-4.778 1.062c1.675 0 3.28-.357 4.777-1.061l.425.905c-1.631.767-3.382 1.156-5.202 1.156v-1zM11.124 22.492c0 5.981 4.956 10.864 11.064 10.864v1c-6.643 0-12.064-5.314-12.064-11.864h1zm21.854 2.422c.182-.789.275-1.604.275-2.422h1c0 .894-.101 1.784-.301 2.648l-.974-.226zm.812 1.277c-.575-.126-.95-.694-.812-1.28l.973.23c-.006.026.008.063.053.073l-.214.977zm1.282-.802c-.132.58-.713.927-1.282.802l.215-.977c.052.012.087-.023.093-.048l.974.223zm.33-2.897c0 .978-.11 1.953-.33 2.899l-.974-.227c.202-.87.303-1.769.303-2.672h1zM22.187 9.5c7.28 0 13.213 5.821 13.213 12.992h-1c0-6.602-5.47-11.992-12.213-11.992v-1zm-4.684.84c1.496-.557 3.072-.84 4.684-.84v1c-1.494 0-2.951.262-4.334.778l-.35-.937zm-.624 1.379c-.218-.56.075-1.171.623-1.377l.352.935c-.023.009-.036.023-.042.037-.006.014-.007.027-.001.041l-.932.364zm1.383.613c-.551.207-1.169-.064-1.383-.613l.932-.364c.013.035.056.057.098.041l.353.936zm3.925-.704c-1.355 0-2.674.238-3.927.705l-.349-.938c1.365-.508 2.803-.767 4.276-.767v1zm11.065 10.864c0-5.98-4.957-10.864-11.065-10.864v-1c6.644 0 12.065 5.315 12.065 11.864h-1zM31.237 32.51l1.947-1.913.7.714-1.946 1.913-.701-.713zm-.002 1.51c-.419-.416-.419-1.091 0-1.507l.705.709c-.026.025-.026.064 0 .09l-.706.708zm1.515.002c-.419.412-1.094.412-1.513 0l.7-.713c.03.03.082.03.112 0l.701.713zm3.334-3.275l-3.334 3.275-.7-.713 3.333-3.276.7.714zm-3.33-3.99l3.33 3.276-.701.713-3.331-3.275.701-.713zm-1.514 0c.419-.411 1.094-.411 1.513 0l-.7.714c-.031-.03-.082-.03-.113 0l-.7-.713zm0 1.512c-.424-.416-.424-1.095 0-1.511l.7.713c-.014.014-.018.028-.018.043 0 .014.005.028.018.042l-.7.713zm1.946 1.914l-1.947-1.914.701-.713 1.947 1.913-.7.713zm-6.569-.857h6.92v1h-6.92v-1zm-1.074 1.064c0-.595.49-1.064 1.074-1.064v1c-.048 0-.074.038-.074.064h-1zm1.074 1.064c-.584 0-1.074-.469-1.074-1.064h1c0 .026.026.064.074.064v1zm6.917 0h-6.917v-1h6.917v1z"
  />
    <path
    fill="#2A2A2A"
    d="M22.57 21.967c-.878-.205-1.568-.364-1.568-.852 0-.366.439-.541.897-.541.35 0 .658.106.825.323.215.28.587.417.959.417 1.133-.003 1.685-1.308.83-1.998-.394-.318-.914-.541-1.545-.653v-.638c0-.523-.46-.95-1.027-.95s-1.027.427-1.027.95v.629c-1.57.26-2.494 1.154-2.494 2.532 0 1.938 1.7 2.318 3.036 2.626.874.2 1.586.353 1.586.886 0 .437-.507.69-1.042.69-.37 0-.714-.121-.909-.365-.241-.298-.599-.499-1.003-.499h-.194c-1.023 0-1.584 1.105-.929 1.829.47.52 1.17.865 2.045 1.013v.677c0 .524.46.95 1.027.95s1.027-.426 1.027-.95v-.683c1.585-.271 2.646-1.19 2.646-2.71-.002-1.947-1.778-2.36-3.14-2.683z"
  />
</svg>
