<svg width="29" height="29" viewBox="0 0 29 29" fill="none" xmlns="http://www.w3.org/2000/svg">
    <path fill-rule="evenodd" clip-rule="evenodd" d="M6.57 23 22.36 6.946 21.43 6l-2.02 2.054A16.572 16.572 0 0 0 14 7.142C8.808 7.132 3.896 9.53.658 13.657L0 14.5l.658.843a16.987 16.987 0 0 0 6.598 5.069L5.64 22.053l.93.946zm20.772-9.343a17.117 17.117 0 0 0-5.316-4.482l-.973.99a15.684 15.684 0 0 1 5.263 4.335C23.33 18.313 18.794 20.53 14 20.52c-.962 0-1.922-.09-2.868-.267l-1.119 1.137c1.307.311 2.645.468 3.987.468 5.192.01 10.105-2.389 13.342-6.515L28 14.5l-.658-.843zM17.29 14.5a2.69 2.69 0 0 0-.04-.468l1.079-1.097c.185.5.279 1.03.276 1.565-.003 2.585-2.063 4.68-4.605 4.683a4.25 4.25 0 0 1-1.54-.282l1.08-1.096c.152.027.306.04.46.04 1.816-.001 3.289-1.498 3.29-3.345zm-9.025 4.885 2.062-2.096a4.665 4.665 0 0 1-.932-2.789c.002-2.585 2.063-4.68 4.605-4.682a4.49 4.49 0 0 1 2.743.947L18.36 9.12c-6.118-1.817-12.708.31-16.677 5.38a15.665 15.665 0 0 0 6.581 4.885zm7.55-7.676-4.56 4.636a3.387 3.387 0 0 1 .418-4.211 3.25 3.25 0 0 1 4.141-.425z" fill="#9FA9BA"/>
</svg>
