<svg width="23" height="17" viewBox="0 0 23 17" xmlns="http://www.w3.org/2000/svg">
    <path d="M20.53 0H2.47C1.817 0 1.189.253.725.703A2.365 2.365 0 0 0 0 2.397v12.206c0 .635.261 1.244.724 1.694.464.45 1.092.702 1.747.703h18.058c.655 0 1.283-.253 1.747-.703.463-.45.723-1.059.724-1.694V2.397c0-.635-.261-1.244-.724-1.694A2.512 2.512 0 0 0 20.529 0zm1.122 2.397v12.206c0 .08-.009.16-.027.237L14.468 8.5l7.157-6.34c.018.078.027.157.027.237zm-1.123-1.09h.058l-8.33 7.38a1.135 1.135 0 0 1-.757.287c-.28 0-.55-.102-.757-.287l-8.33-7.38H20.53zM1.375 14.84a1.068 1.068 0 0 1-.027-.238V2.397c0-.08.009-.16.027-.237L8.532 8.5l-7.157 6.34zm1.096.852h-.058l7.118-6.307.303.268c.454.406 1.049.631 1.666.631s1.212-.225 1.665-.63l.303-.269 7.119 6.307H2.47z" fill="#007B2C" fill-rule="nonzero"/>
</svg>
