<svg width="28" height="28" fill="none" xmlns="http://www.w3.org/2000/svg">
    <path fill-rule="evenodd" clip-rule="evenodd" d="m19.453 18.495 6.132 6.139c.548.548.548 1.44.034 1.954a1.43 1.43 0 0 1-.994.412c-.376 0-.719-.137-.993-.412l-6.165-6.104c-1.816 1.406-4.008 2.092-6.2 2.092-2.637 0-5.24-.994-7.261-3.018-4.008-4.012-4.008-10.528 0-14.54A10.183 10.183 0 0 1 11.267 2c2.638 0 5.24.995 7.262 3.018 3.699 3.67 4.007 9.465.924 13.477zm-13.46-.891C7.43 19.01 9.28 19.798 11.3 19.798c1.987 0 3.905-.754 5.31-2.194 1.404-1.44 2.192-3.293 2.192-5.316 0-2.023-.754-3.91-2.193-5.315-1.438-1.406-3.288-2.195-5.309-2.195-2.02 0-3.904.789-5.309 2.195-2.911 2.949-2.911 7.716 0 10.63z" fill="#9FA9BA"/>
</svg>
