<svg
  xmlns="http://www.w3.org/2000/svg"
  width="38"
  height="38"
  fill="none"
  viewBox="0 0 44 44"
>
    <path
    fill="#2A2A2A"
    d="M33 14.986c0-.78-.616-1.415-1.372-1.415H13.71l2.996-3.146c.532-.549.532-1.444 0-2.02-.28-.29-.616-.405-.98-.405s-.7.144-.98.404L9.4 13.975c-.532.549-.532 1.444 0 1.992l5.375 5.6c.252.26.616.433.98.433s.7-.144.98-.404c.252-.26.42-.635.42-1.01 0-.376-.14-.75-.392-1.01L13.654 16.4H31.6c.784 0 1.4-.635 1.4-1.414z"
  />
    <path
    fill="#E5E8F0"
    d="M27.246 36c.364 0 .728-.145.98-.434l5.375-5.608c.532-.55.532-1.446 0-1.995l-5.375-5.551c-.532-.55-1.4-.55-1.96 0-.532.55-.532 1.446 0 2.024l3.024 3.122H11.372c-.756 0-1.372.636-1.372 1.417 0 .78.616 1.416 1.372 1.416h17.946l-3.052 3.18c-.252.26-.392.637-.392 1.012 0 .376.14.723.42 1.012.252.26.588.405.952.405z"
  />
</svg>
