<svg xmlns="http://www.w3.org/2000/svg" width="20" height="20" viewBox="0 0 20 20">
    <g fill="none" fill-rule="evenodd">
        <g fill="#03BE46" fill-rule="nonzero">
            <g>
                <g>
                    <path d="M9.556 18.986l-1.66.67c-1.264.512-2.704-.085-3.237-1.34l-.7-1.648c-.12-.283-.344-.508-.627-.628l-1.647-.699C.429 14.808-.168 13.368.343 12.103l.671-1.66c.115-.284.115-.602 0-.887l-.67-1.66c-.512-1.264.085-2.704 1.34-3.237l1.648-.7c.283-.12.508-.344.628-.627l.699-1.647C5.192.429 6.632-.168 7.897.343l1.66.671c.284.115.602.115.887 0l1.66-.67c1.264-.512 2.704.085 3.237 1.34l.7 1.648c.12.283.344.508.627.628l1.647.699c1.256.533 1.853 1.973 1.342 3.238l-.671 1.66c-.115.284-.115.602 0 .887l.67 1.66c.512 1.264-.085 2.704-1.34 3.237l-1.648.7c-.283.12-.508.344-.628.627l-.699 1.647c-.533 1.256-1.973 1.853-3.238 1.342l-1.66-.671c-.284-.115-.602-.115-.887 0zm1.38-1.22l1.66.67c.6.243 1.282-.04 1.534-.635l.7-1.647c.252-.597.727-1.072 1.324-1.325l1.647-.7c.595-.251.878-.934.636-1.533l-.67-1.66c-.244-.6-.244-1.272 0-1.873l.67-1.66c.242-.598-.04-1.28-.636-1.533l-1.647-.7c-.597-.252-1.072-.727-1.325-1.324l-.7-1.647c-.251-.595-.934-.878-1.533-.636l-1.66.67c-.6.244-1.272.244-1.873 0l-1.66-.67c-.598-.242-1.28.04-1.533.636l-.7 1.647c-.252.597-.727 1.072-1.324 1.325l-1.647.7c-.595.251-.878.934-.636 1.533l.67 1.66c.244.6.244 1.272 0 1.873l-.67 1.66c-.242.598.04 1.28.636 1.533l1.647.7c.597.252 1.072.727 1.325 1.324l.7 1.647c.251.595.934.878 1.533.636l1.66-.67c.6-.244 1.272-.244 1.873 0zm-2.2-6.12l4.652-4.652c.308-.309.808-.309 1.116 0 .309.308.309.808 0 1.116l-5.21 5.21c-.308.309-.808.309-1.116 0l-2.42-2.419c-.308-.308-.308-.808 0-1.116.309-.309.809-.309 1.117 0l1.861 1.86z" transform="translate(-118.000000, -46.000000) translate(118.000000, 46.000000)"/>
                </g>
            </g>
        </g>
    </g>
</svg>
