<svg width="44" height="44" viewBox="0 0 44 44" fill="none" xmlns="http://www.w3.org/2000/svg">
    <path fill-rule="evenodd" clip-rule="evenodd" d="M32.007 21.6v8.8a2.202 2.202 0 0 1-1.067 1.886l-7.308 4.4a2.185 2.185 0 0 1-2.254 0l-7.308-4.4a2.202 2.202 0 0 1-1.063-1.885v-8.802a2.202 2.202 0 0 1 1.067-1.885l7.307-4.4a2.185 2.185 0 0 1 2.255 0l7.308 4.4a2.202 2.202 0 0 1 1.063 1.885zm-3.26-.643-6.24-3.759-6.24 3.76 6.24 3.758 6.24-3.759zM15.2 30.401v-7.518l6.212 3.74v7.519L15.199 30.4zm8.404-3.777v7.518l6.211-3.741v-7.518l-6.211 3.74z" fill="#2A2A2A"/>
    <path d="M22.507 11.6V4.4M31.979 34.46l5.657 5.755M12.035 34.46l-5.657 5.755" stroke="#E3E7EB" stroke-width="2" stroke-linecap="round"/>
</svg>
