<svg xmlns="http://www.w3.org/2000/svg" width="16" height="16" fill="none" viewBox="0 0 16 16">
    <path fill="#767575" fill-rule="evenodd" d="M0 7.946C0 3.566 3.55.016 7.93.016s7.93 3.55 7.93 7.93-3.55 7.93-7.93 7.93S0 12.326 0 7.946zm14.869 0c0-3.826-3.113-6.939-6.939-6.939S.991 4.12.991 7.946s3.113 6.939 6.939 6.939 6.939-3.113 6.939-6.939z" clip-rule="evenodd"/>
    <path fill="#767575" fill-rule="evenodd" d="M6.22 4.713c-.212.22-.373.487-.481.801-.109.315-.163.663-.163 1.046h.683c-.007-.282.025-.542.097-.78.072-.239.18-.446.325-.623.145-.177.329-.316.553-.417.223-.101.48-.152.769-.152.21 0 .408.036.596.108.187.073.351.172.493.298.14.127.252.28.335.46.083.182.125.38.125.597 0 .281-.067.538-.2.769-.134.23-.302.44-.504.628-.231.21-.428.397-.59.563-.163.166-.293.34-.39.52-.098.18-.169.383-.212.607-.043.224-.061.502-.054.834h.682c.008-.332.022-.586.044-.763.022-.177.065-.327.13-.45s.164-.248.298-.374c.133-.126.312-.301.536-.525.275-.26.5-.531.677-.813.177-.281.265-.624.265-1.029 0-.318-.057-.6-.173-.845-.115-.245-.274-.455-.477-.628-.202-.173-.435-.305-.698-.396-.264-.09-.547-.135-.85-.135-.39 0-.737.062-1.04.184-.304.123-.562.294-.775.515zm2.184 7.198v-1.148h-.91v1.148h.91z" clip-rule="evenodd"/>
</svg>
