<svg xmlns="http://www.w3.org/2000/svg" width="43" height="43" fill="none" viewBox="0 0 43 43">
    <path fill="#2775CA" d="M21 43c11.638 0 21-9.362 21-21S32.638 1 21 1 0 10.362 0 22s9.362 21 21 21z"/>
    <path fill="#fff" d="M26.62 25.433c0-3.093-1.854-4.153-5.562-4.595-2.65-.354-3.179-1.06-3.179-2.298 0-1.237.883-2.032 2.649-2.032 1.59 0 2.472.53 2.914 1.856.088.265.353.441.618.441h1.412c.353 0 .618-.265.618-.618v-.088c-.353-1.945-1.942-3.447-3.973-3.623v-2.121c0-.354-.265-.619-.706-.707h-1.324c-.354 0-.619.265-.707.707v2.032c-2.649.354-4.326 2.121-4.326 4.33 0 2.916 1.766 4.065 5.474 4.507 2.472.442 3.267.972 3.267 2.386 0 1.413-1.236 2.385-2.914 2.385-2.296 0-3.09-.972-3.355-2.297-.088-.354-.353-.53-.618-.53h-1.501c-.353 0-.618.265-.618.618v.089c.353 2.209 1.766 3.8 4.68 4.241v2.12c0 .354.264.62.706.708h1.324c.353 0 .618-.265.707-.707v-2.12c2.648-.443 4.414-2.299 4.414-4.684z"/>
    <path fill="#fff" fill-rule="evenodd" d="M8.907 17.466c-2.566 6.714.974 14.3 7.876 16.741.265.175.53.523.53.785v1.22c0 .175 0 .262-.088.35-.088.348-.442.523-.796.348-4.956-1.57-8.76-5.319-10.354-10.201C3.421 18.425 8.022 9.619 16.43 7.003c.088-.088.265-.088.354-.088.354.088.53.35.53.698v1.22c0 .437-.176.698-.53.873-3.628 1.308-6.548 4.098-7.876 7.76zM25.367 7.35c.088-.348.442-.523.796-.348 4.867 1.569 8.76 5.319 10.354 10.288 2.655 8.284-1.947 17.09-10.354 19.706-.088.087-.265.087-.354.087-.354-.087-.53-.348-.53-.697v-1.22c0-.437.176-.698.53-.873 3.628-1.307 6.549-4.098 7.876-7.76 2.566-6.714-.974-14.3-7.876-16.741-.265-.175-.53-.523-.53-.872V7.7c0-.175 0-.262.088-.35z" clip-rule="evenodd"/>
</svg>
