<?xml version="1.0" standalone="no"?>
<!DOCTYPE svg PUBLIC "-//W3C//DTD SVG 20010904//EN"
 "http://www.w3.org/TR/2001/REC-SVG-20010904/DTD/svg10.dtd">
<svg version="1.0" xmlns="http://www.w3.org/2000/svg"
 width="30px" height="32px" viewBox="0 0 2000.000000 2000.000000"
 preserveAspectRatio="xMidYMid meet">

<g transform="translate(0.000000,2000.000000) scale(0.100000,-0.100000)"
fill="#000000" stroke="none">
<path d="M9735 19994 c-608 -20 -1141 -80 -1700 -190 -2684 -529 -5046 -2154
-6503 -4475 -346 -550 -672 -1209 -892 -1799 -358 -961 -552 -1886 -621 -2960
-25 -395 -14 -1036 27 -1495 147 -1662 720 -3273 1662 -4673 778 -1159 1811
-2152 3021 -2907 338 -211 918 -514 1271 -665 1467 -629 2982 -896 4575 -809
1686 92 3326 614 4755 1511 1276 803 2352 1883 3158 3171 300 479 597 1068
810 1607 311 786 514 1585 622 2445 85 684 98 1455 34 2165 -84 943 -308 1889
-656 2770 -214 541 -509 1127 -809 1606 -1550 2476 -4079 4144 -6949 4583
-310 48 -628 81 -960 100 -185 11 -692 20 -845 15z m-1811 -2924 c76 -29 137
-86 172 -162 l29 -63 3 -354 c2 -232 -1 -378 -8 -422 -16 -95 -57 -175 -122
-235 -61 -57 -102 -81 -216 -123 -506 -188 -1063 -497 -1527 -845 -313 -235
-729 -625 -974 -911 -391 -458 -745 -1027 -973 -1565 -284 -670 -443 -1288
-510 -1980 -17 -181 -17 -879 0 -1055 67 -669 205 -1235 445 -1825 85 -209
273 -590 387 -785 541 -922 1302 -1683 2225 -2225 257 -150 723 -369 960 -451
61 -21 81 -34 151 -104 61 -61 90 -99 120 -159 l39 -80 0 -375 0 -376 -42 -80
c-66 -128 -134 -178 -243 -178 -91 0 -579 178 -970 355 -1161 525 -2206 1375
-2946 2398 -857 1183 -1340 2526 -1434 3985 -13 203 -13 714 0 910 96 1443
582 2794 1420 3950 895 1234 2174 2179 3605 2664 99 33 193 69 210 78 29 17
79 30 122 32 12 0 47 -8 77 -19z m4471 -60 c471 -164 927 -371 1320 -597 1998
-1151 3341 -3095 3710 -5368 104 -641 124 -1313 59 -1960 -74 -741 -265 -1482
-563 -2185 -84 -197 -280 -590 -391 -785 -445 -776 -1038 -1478 -1737 -2057
-658 -545 -1491 -1009 -2308 -1287 -99 -34 -196 -70 -215 -80 -128 -69 -297 1
-366 151 l-29 63 -3 354 c-2 200 1 381 7 417 15 97 54 175 121 238 64 61 99
80 315 165 1045 412 2001 1148 2677 2061 355 480 618 975 841 1580 194 527
300 984 363 1560 21 201 30 737 15 970 -71 1090 -423 2137 -1026 3050 -521
789 -1216 1446 -2040 1930 -201 118 -589 306 -812 394 -105 42 -196 76 -203
76 -23 0 -166 156 -197 216 -59 112 -63 142 -63 529 l0 350 44 90 c56 116 98
158 186 186 48 16 116 2 295 -61z m-2044 -2106 c118 -35 210 -107 250 -197
l24 -52 5 -535 5 -534 95 -12 c829 -104 1528 -727 1741 -1552 60 -235 22 -372
-125 -450 l-51 -27 -420 0 -420 0 -45 24 c-93 48 -137 106 -187 244 -81 226
-221 428 -385 554 -235 181 -581 264 -1037 250 -277 -8 -476 -48 -659 -133
-183 -84 -337 -226 -416 -386 -76 -154 -90 -221 -90 -443 0 -162 3 -202 21
-276 115 -457 508 -663 1528 -799 622 -83 1007 -171 1355 -307 642 -253 1013
-652 1148 -1238 47 -203 57 -306 57 -595 0 -244 -3 -288 -23 -395 -77 -402
-226 -712 -489 -1017 -251 -291 -617 -535 -1028 -683 -133 -48 -389 -117 -482
-130 l-53 -7 0 -502 c0 -537 -1 -550 -52 -650 -31 -60 -103 -131 -161 -157
-51 -24 -59 -24 -402 -27 -336 -3 -352 -2 -418 19 -81 26 -159 79 -204 137
-62 82 -63 91 -63 662 l0 517 -104 17 c-320 52 -656 162 -931 305 -440 228
-748 542 -955 974 -98 204 -161 401 -205 641 -26 141 -4 237 72 313 88 88 139
95 610 91 361 -3 369 -4 420 -27 61 -27 136 -103 162 -163 10 -24 26 -79 36
-123 39 -178 116 -359 208 -493 66 -96 215 -236 314 -295 266 -159 580 -230
1018 -230 268 0 390 17 586 82 207 70 356 158 496 294 168 163 267 352 303
579 18 112 8 350 -19 453 -111 423 -462 628 -1376 805 -55 11 -183 31 -285 45
-891 123 -1461 325 -1855 657 -255 215 -431 512 -514 865 -72 308 -80 705 -21
992 92 440 362 861 731 1138 317 238 724 410 1129 478 52 8 105 18 118 20 l22
5 0 484 c0 457 1 486 20 541 29 84 62 136 121 189 81 72 94 75 485 75 285 1
349 -2 395 -15z"/>
</g>
</svg>
