<svg xmlns="http://www.w3.org/2000/svg" width="44" height="44" viewBox="0 0 44 44">
    <g data-name="active address">
        <path data-name="Rectangle 608" style="fill:none" d="M0 0h44v44H0z"/>
        <g data-name="Group 338">
            <path d="M106.607 23.332a13.277 13.277 0 1 0 13.277 13.277 13.295 13.295 0 0 0-13.277-13.277zm0 2.414a10.863 10.863 0 1 1-10.863 10.862 10.844 10.844 0 0 1 10.863-10.862z" transform="translate(-84.33 -15.332)" style="fill-rule:evenodd;fill:#e5e8f0"/>
            <path data-name="noun-done-2111614" d="M250.856 198.323a1.208 1.208 0 0 0-.835.354l-5.363 5.207-1.818-1.763a1.207 1.207 0 1 0-1.681 1.733l2.659 2.579a1.208 1.208 0 0 0 1.681 0l6.2-6.023a1.207 1.207 0 0 0-.846-2.084z" transform="translate(-224.127 -181.271)" style="fill:#2a2a2a;fill-rule:evenodd"/>
        </g>
    </g>
</svg>
