<svg xmlns="http://www.w3.org/2000/svg" width="45.4" height="40.8" viewBox="0 0 45.4 40.8">
    <defs>
        <style>
            .cls-1,.cls-2{fill:#fff}.cls-1{fill-rule:evenodd}
        </style>
    </defs>
    <g id="add-private-tag-to-address">
        <path id="Path_27" data-name="Path 27" class="cls-1" d="M8.961 51A.973.973 0 0 1 8 50.055v-8.284a14.093 14.093 0 0 1 14.208-13.89h4.5a14.094 14.094 0 0 1 14.208 13.89v8.284a.98.98 0 0 1-.962.945H8.962zm13.247-21.284a12.252 12.252 0 0 0-12.36 12.055v7.394h29.22v-7.394a12.252 12.252 0 0 0-12.359-12.055z" transform="translate(-7.6 -10.6)"/>
        <path id="Path_28" data-name="Path 28" class="cls-2" d="M9.849 49.165h-.4v.4h.4zm29.22 0v.4h.4v-.4zm-31.469.89A1.374 1.374 0 0 0 8.961 51.4v-.8a.574.574 0 0 1-.561-.545h-.8zm0-8.284v8.284h.8v-8.284zm14.608-14.29A14.492 14.492 0 0 0 7.6 41.77h.8a13.693 13.693 0 0 1 13.808-13.49v-.8zm4.5 0h-4.5v.8h4.5zm14.608 14.29a14.493 14.493 0 0 0-14.608-14.29v.8a13.693 13.693 0 0 1 13.808 13.49h.8zm0 8.284v-8.284h-.8v8.284zm-1.36 1.345a1.38 1.38 0 0 0 1.36-1.345h-.8a.58.58 0 0 1-.56.545v.8zm-31 0h31v-.8h-31v.8zm1.288-9.63a11.851 11.851 0 0 1 11.964-11.654v-.8a12.652 12.652 0 0 0-12.76 12.455h.8zm0 7.4v-7.399h-.8v7.394zm28.82-.4H9.848v.8h29.22v-.8zm-.4-6.994v7.394h.8v-7.399zm-11.955-11.66a11.853 11.853 0 0 1 11.96 11.655h.8a12.653 12.653 0 0 0-12.76-12.455v.8zm-4.5 0h4.5v-.8h-4.5z" transform="translate(-7.6 -10.6)"/>
        <path id="Path_29" data-name="Path 29" class="cls-1" d="M15.866 19.4a8.439 8.439 0 0 1 8.467-8.4h.24a8.395 8.395 0 1 1 .01 16.789h-.25a8.439 8.439 0 0 1-8.467-8.4zm8.708 6.56a6.56 6.56 0 1 0 0-13.12h-.25a6.56 6.56 0 1 0 0 13.12z" transform="translate(-7.6 -10.6)"/>
        <path id="Path_30" data-name="Path 30" class="cls-2" d="M24.333 10.6a8.839 8.839 0 0 0-8.867 8.8h.8a8.038 8.038 0 0 1 8.067-8zm.24 0h-.24v.8h.24zm8.877 8.8a8.846 8.846 0 0 0-8.876-8.8v.8a8.047 8.047 0 0 1 8.076 8zm-8.867 8.794A8.838 8.838 0 0 0 33.45 19.4h-.8a8.038 8.038 0 0 1-8.067 7.994zm-.25 0h.25v-.8h-.25zM15.466 19.4a8.838 8.838 0 0 0 8.867 8.794v-.8a8.039 8.039 0 0 1-8.067-7.994h-.8zm15.326 0a6.191 6.191 0 0 1-6.218 6.16v.8a6.992 6.992 0 0 0 7.018-6.96zm-6.218-6.16a6.191 6.191 0 0 1 6.218 6.16h.8a6.991 6.991 0 0 0-7.018-6.96zm-.25 0h.25v-.8h-.25zm-6.218 6.16a6.191 6.191 0 0 1 6.218-6.16v-.8a6.991 6.991 0 0 0-7.018 6.96zm6.218 6.16a6.191 6.191 0 0 1-6.218-6.16h-.8a6.992 6.992 0 0 0 7.018 6.96zm.25 0h-.25v.8h.25z" transform="translate(-7.6 -10.6)"/>
        <path id="Path_31" data-name="Path 31" d="M33.5 28.107a.994.994 0 0 1 1-1.015H50v2.03H34.5a.994.994 0 0 1-1-1.015zM33 42.569V29.447a1.99 1.99 0 0 0 1.266.674l17.484.016A1.256 1.256 0 0 1 53 31.405v2.284h-7.75A1.268 1.268 0 0 0 44 34.958v4.06a1.268 1.268 0 0 0 1.25 1.268H53v2.283a1.257 1.257 0 0 1-1.25 1.27h-17.5a1.257 1.257 0 0 1-1.25-1.27zM45.25 34.7a.241.241 0 0 0-.25.254v4.06a.241.241 0 0 0 .25.253H53V34.7zm3.25 2.283a.75.75 0 1 0-.75.762.756.756 0 0 0 .75-.758z" transform="translate(-7.6 -10.6)" style="fill:#02adff;fill-rule:evenodd"/>
    </g>
</svg>
