<?xml version="1.0" encoding="UTF-8"?>
<svg width="42px" height="42px" viewBox="0 0 42 42" version="1.1" xmlns="http://www.w3.org/2000/svg" xmlns:xlink="http://www.w3.org/1999/xlink">
    <title>38B71910-F94C-4FD1-919F-C3E2A08D6938</title>
    <g id="Final" stroke="none" stroke-width="1" fill="none" fill-rule="evenodd">
        <g id="Explorer-Assets-2" transform="translate(-326.000000, -651.000000)">
            <g id="Group-17" transform="translate(326.000000, 651.000000)">
                <rect id="Rectangle" x="0" y="0" width="42" height="42"></rect>
                <g id="Wallet2" transform="translate(3.000000, 3.000000)" fill-rule="nonzero">
                    <path d="M16.5846005,11.6114277 L16.5846005,24.512688 L35.8676776,24.512688 L35.8676776,11.6114277 L16.5846005,11.6114277 Z M24.4266511,20.642214 C23.3862991,20.6433974 22.4477301,20.0153959 22.0487861,19.0511702 C21.6498422,18.0869446 21.8691304,16.9764841 22.6043529,16.237818 C23.3395755,15.4991518 24.4458655,15.2778256 25.4071392,15.6770878 C26.3684128,16.07635 26.9952632,17.0175307 26.9952632,18.0615697 C26.9915289,19.4841218 25.8441753,20.6368491 24.4266511,20.642214 L24.4266511,20.642214 Z" id="Path_798" fill="#173894"></path>
                    <path d="M36,8.38538033 L15.1786745,8.38538033 C14.6977519,8.3734715 14.2329941,8.55995633 13.8928269,8.90132881 C13.5526597,9.2427013 13.3668333,9.70910583 13.3787001,10.1917325 L13.3787001,10.1917325 L13.3787001,25.8025211 C13.3668333,26.2851478 13.5526597,26.7515524 13.8928269,27.0929249 C14.2329941,27.4342973 14.6977519,27.6207822 15.1786745,27.6088733 L36,27.6088733 L36,32.2536395 C35.9989264,34.3196162 34.3303028,35.9941521 32.2716206,35.9952296 L3.72889141,35.9952296 C2.74759169,36.0462462 1.78920299,35.6862847 1.08241275,35.0012379 C0.375622512,34.3161911 -0.0161741283,33.3675039 0.000512009135,32.3815488 L0.000512009135,3.74159058 C0.00158563763,1.67561389 1.6702092,0.00107794299 3.72889141,0 L32.2677288,0 C33.2570726,-0.000517543023 34.2061005,0.393393557 34.9060372,1.09507784 C35.6059738,1.79676212 35.999484,2.74874123 36,3.74159058 L36,8.38538033 Z" id="Path_799" fill="#2149B9"></path>
                </g>
            </g>
        </g>
    </g>
</svg>