<svg xmlns="http://www.w3.org/2000/svg" width="44" height="44" viewBox="0 0 44 44">
    <g data-name="Group 335">
        <path data-name="Rectangle 608" style="fill:none" d="M0 0h44v44H0z"/>
        <g data-name="Group 334">
            <path data-name="Path 71" d="M156.4 16.8a2.418 2.418 0 0 0-2.4 2.4v27.438a2.418 2.418 0 0 0 2.4 2.4h19.206a2.418 2.418 0 0 0 2.4-2.4V19.2a2.418 2.418 0 0 0-2.4-2.4zm0 2.058h19.206a.322.322 0 0 1 .343.343v27.438a.322.322 0 0 1-.343.343H156.4a.322.322 0 0 1-.343-.343V19.2a.322.322 0 0 1 .343-.343z" transform="translate(-143.994 -10.421)" style="fill:#e5e8f0"/>
            <path data-name="Path 72" d="M160.519 23.663a1.029 1.029 0 1 0 0 2.058h13.718a1.029 1.029 0 1 0 0-2.058zm0 6.173a1.029 1.029 0 1 0 0 2.058h13.718a1.029 1.029 0 1 0 0-2.058zm0 6.173a1.029 1.029 0 1 0 0 2.058h13.718a1.029 1.029 0 1 0 0-2.058zm0 6.173a1.029 1.029 0 1 0 0 2.058h5.144a1.029 1.029 0 1 0 0-2.058z" transform="translate(-145.734 -11.285)" style="fill:#2a2a2a"/>
        </g>
    </g>
</svg>
