<svg width="22" height="22" viewBox="0 0 22 22" xmlns="http://www.w3.org/2000/svg">
    <g fill="none" fill-rule="evenodd">
        <path d="M0 0h22v22H0z"/>
        <g fill="#FFF" fill-rule="nonzero">
            <path d="M10.485 2a4.63 4.63 0 0 1 3.22 1.318 4.472 4.472 0 0 1 1.328 3.197c0 1.253-.5 2.377-1.327 3.198a4.69 4.69 0 0 1-1.306.907c.261.065.522.151.784.26.26.107.391.388.282.626a.498.498 0 0 1-.652.28 5.39 5.39 0 0 0-1.154-.323 7.249 7.249 0 0 0-1.196-.109 6.47 6.47 0 0 0-4.592 1.902c-1.175 1.166-1.914 2.765-1.914 4.536v.886a.6.6 0 0 0 .174.432.68.68 0 0 0 .478.173h4.44c.282 0 .5.216.5.497a.49.49 0 0 1-.5.497H4.631c-.457 0-.87-.173-1.153-.475A1.54 1.54 0 0 1 3 18.657v-.886c0-2.03.849-3.91 2.198-5.25a7.538 7.538 0 0 1 3.35-1.923 4.457 4.457 0 0 1-1.283-.907 4.472 4.472 0 0 1-1.327-3.197c0-1.253.5-2.377 1.327-3.198A4.708 4.708 0 0 1 10.485 2zm2.503 2.03a3.566 3.566 0 0 0-2.503-1.036c-.979 0-1.871.389-2.502 1.037a3.516 3.516 0 0 0-1.045 2.484c0 .972.392 1.858 1.045 2.485.653.626 1.523 1.037 2.502 1.037.98 0 1.872-.39 2.503-1.037.63-.649 1.044-1.513 1.044-2.485s-.413-1.858-1.044-2.484z" stroke="#FFF" stroke-width=".5"/>
            <path d="M11.022 18.978 11 17.041l4.802-4.803 1.96 1.96L12.959 19l-1.937-.022zm5.06-7.02.76-.759a.684.684 0 0 1 .965 0l.994.994c.265.266.265.7 0 .965l-.76.76-1.959-1.96z"/>
        </g>
    </g>
</svg>
