<?xml version="1.0" encoding="UTF-8"?>
<svg width="40px" height="40px" viewBox="0 0 40 40" version="1.1" xmlns="http://www.w3.org/2000/svg" xmlns:xlink="http://www.w3.org/1999/xlink">
    <title>0448A8C9-014B-48C0-BA57-CC24969D764C</title>
    <g id="Final" stroke="none" stroke-width="1" fill="none" fill-rule="evenodd">
        <g id="Explorer-Assets-2" transform="translate(-384.000000, -720.000000)">
            <g id="Group-20" transform="translate(384.000000, 720.000000)">
                <circle id="Oval-Copy-2" stroke="#EAEAEA" fill="#FFFFFF" cx="20" cy="20" r="19.5"></circle>
                <g id="1628145301622137133_gate.io_logo3" transform="translate(8.000000, 8.000000)" fill="#DE5959" fill-rule="nonzero">
                    <path d="M9.40141034,11.8093368 L9.19146657,11.599393 C9.03293761,11.4408641 8.76300991,11.5522628 8.76300991,11.7750603 L8.76300991,14.7614032 C8.76300991,14.8985093 8.87440864,15.0099081 9.01579934,15.0099081 L12.0021423,15.0099081 C12.2249397,15.0099081 12.3363385,14.7399804 12.1778095,14.5814514 C12.0792645,14.4829064 12.0792645,14.3243774 12.1778095,14.2301169 L15.356958,11.0423994 C15.455503,10.9438543 15.455503,10.7853254 15.356958,10.6910649 L15.0656074,10.4039989 C14.9070785,10.24547 15.0184772,9.97554227 15.2412747,9.97554227 L18.2276176,9.97554227 C18.3647237,9.97554227 18.480407,10.086941 18.480407,10.2240471 L18.480407,13.2103901 C18.480407,13.4331875 18.2104793,13.5445863 18.0519504,13.3860573 L17.8505757,13.1846827 C17.7520307,13.0861376 17.5935017,13.0861376 17.4992413,13.1846827 L12.1392484,18.540391 C12.0407034,18.638936 11.8821744,18.638936 11.7836294,18.540391 L5.22824244,11.985004 C5.1296974,11.886459 5.1296974,11.72793 5.22824244,11.629385 L14.3115237,2.56324199 C14.4100687,2.46469696 14.4100687,2.30616799 14.3115237,2.20762296 L12.1778095,0.0739087744 C12.0792645,-0.0246362581 11.9207355,-0.0246362581 11.8221905,0.0739087744 L0.0739087744,11.8221905 C-0.0246362581,11.9207355 -0.0246362581,12.0792645 0.0739087744,12.1778095 L11.8221905,23.9260912 C11.9207355,24.0246363 12.0792645,24.0246363 12.1778095,23.9260912 L23.9260912,12.1778095 C24.0246363,12.0792645 24.0246363,11.9207355 23.9260912,11.8221905 L17.0108007,4.91546907 C16.9122556,4.81692404 16.7537267,4.81692404 16.6551816,4.91546907 L9.75702937,11.8136214 C9.65848433,11.9078818 9.49995537,11.9078818 9.40141034,11.8093368 L9.40141034,11.8093368 Z" id="Path"></path>
                </g>
            </g>
        </g>
    </g>
</svg>