<svg width="124" height="124" viewBox="0 0 124 124" xmlns="http://www.w3.org/2000/svg" xmlns:xlink="http://www.w3.org/1999/xlink">
    <defs>
        <filter x="-23%" y="-16.8%" width="145.9%" height="145.9%" filterUnits="objectBoundingBox" id="zrbfrn3sqa">
            <feOffset dy="6" in="SourceAlpha" result="shadowOffsetOuter1"/>
            <feGaussianBlur stdDeviation="6.5" in="shadowOffsetOuter1" result="shadowBlurOuter1"/>
            <feColorMatrix values="0 0 0 0 0 0 0 0 0 0 0 0 0 0 0 0 0 0 0.1 0" in="shadowBlurOuter1"/>
        </filter>
        <circle id="78h1jq8znb" cx="49" cy="49" r="49"/>
    </defs>
    <g fill="none" fill-rule="evenodd">
        <g transform="translate(13 7)">
            <use fill="#000" filter="url(#zrbfrn3sqa)" xlink:href="#78h1jq8znb"/>
            <use fill="#FFF" xlink:href="#78h1jq8znb"/>
        </g>
        <path d="M46.923 52.714c-.003.017.072 0-.005 0v15.919h6.123V52.714h-6.118zM53.04 48.429a3.061 3.061 0 1 1-6.122 0 3.061 3.061 0 0 1 6.123 0z" fill="#000" fill-rule="nonzero"/>
        <path d="M63.6 63.96c0 .077.066.138.146.138 1.176 0 3.749-.104 5.587-1.57 1.324-1.046 2.913-3.034 2.913-5.615 0-2.511-1.59-4.116-2.545-5.023-1.837-1.744-4.228-1.988-5.955-1.988-.08 0-.146.062-.146.138v13.92zm.734-18.593c3.235 0 6.654.454 9.668 3.21 2.17 1.988 3.529 4.708 3.529 8.336 0 3.662-1.323 6.313-3.345 8.232-3.383 3.244-7.61 3.488-9.669 3.488H57.94V45.367h6.395z" fill="#000"/>
        <path d="M63.521 27.1c-4.44-.36-8.906.259-13.078 1.812l-.576.215 1.87 4.957c.532 1.412 2.084 2.072 3.476 1.695a22.363 22.363 0 0 1 16.913 2.15 22.155 22.155 0 0 1 7.151 6.5 21.987 21.987 0 0 1 3.105 6.423c.487 1.644 2.1 2.844 3.883 2.54L91 52.584l-.105-.604a29.962 29.962 0 0 0-5.02-12.134 30.202 30.202 0 0 0-9.743-8.855 30.412 30.412 0 0 0-12.61-3.892zM45.5 37.126l-3.052-3.665-.473.388a30.101 30.101 0 0 0-8.094 10.366 29.9 29.9 0 0 0 0 25.607 30.101 30.101 0 0 0 8.094 10.366l.473.389 3.052-3.665c1.158-1.39.916-3.39-.279-4.629a22.066 22.066 0 0 1-4.057-5.868 21.94 21.94 0 0 1 0-18.793 22.066 22.066 0 0 1 4.057-5.868c1.195-1.24 1.437-3.238.279-4.628zm40.765 23.481c-1.782-.304-3.396.896-3.881 2.54a22.016 22.016 0 0 1-3.106 6.423 22.155 22.155 0 0 1-7.152 6.5A22.36 22.36 0 0 1 55.71 78.35c-1.67-.412-3.523.371-4.158 2.056l-1.685 4.467.576.215a30.452 30.452 0 0 0 25.689-2.079 30.19 30.19 0 0 0 9.743-8.855 29.964 29.964 0 0 0 5.021-12.134l.104-.604-4.735-.808z" fill="#0D51FF"/>
    </g>
</svg>
