<svg width="24" height="24" viewBox="0 0 24 24" xmlns="http://www.w3.org/2000/svg">
    <path d="M13.008.04a12.18 12.18 0 0 0-5.23.725L7.546.85l.748 1.983c.213.564.834.828 1.39.677a8.945 8.945 0 0 1 6.765.86 8.862 8.862 0 0 1 2.861 2.6 8.795 8.795 0 0 1 1.242 2.57c.195.657.84 1.137 1.553 1.016L24 10.234l-.042-.242a11.985 11.985 0 0 0-2.008-4.854 12.08 12.08 0 0 0-3.897-3.542A12.165 12.165 0 0 0 13.008.04zM5.8 4.05 4.58 2.586l-.19.155a12.04 12.04 0 0 0-3.238 4.146 11.96 11.96 0 0 0 0 10.243 12.04 12.04 0 0 0 3.238 4.147l.19.155 1.22-1.466c.463-.556.366-1.355-.112-1.851a8.826 8.826 0 0 1-1.623-2.348 8.776 8.776 0 0 1 0-7.517c.411-.866.96-1.658 1.623-2.347.478-.496.575-1.295.112-1.851zm16.306 9.393c-.713-.121-1.358.359-1.553 1.016a8.807 8.807 0 0 1-1.242 2.57 8.862 8.862 0 0 1-2.86 2.6 8.93 8.93 0 0 1-6.567.91c-.668-.164-1.409.15-1.663.823l-.674 1.787.23.086a12.18 12.18 0 0 0 10.276-.831 12.076 12.076 0 0 0 3.897-3.542 11.985 11.985 0 0 0 2.008-4.854l.042-.242-1.894-.323z" fill="#0D51FF" fill-rule="evenodd"/>
</svg>
