<svg width="39" height="39" viewBox="0 0 39 39" xmlns="http://www.w3.org/2000/svg">
    <g fill="none" fill-rule="evenodd">
        <path d="M0 0h39v39H0z"/>
        <path d="M27.243 16.386h-.968V11.9c0-3.805-3.04-6.9-6.775-6.9-3.736 0-6.775 3.096-6.775 6.9v4.486h-.968c-1.52 0-2.757 1.26-2.757 2.807v13C9 33.74 10.237 35 11.757 35h15.486C28.763 35 30 33.74 30 32.192v-13c0-1.547-1.237-2.806-2.757-2.806zM14.35 11.9c0-2.892 2.31-5.244 5.15-5.244 2.84 0 5.15 2.352 5.15 5.244v4.486h-10.3V11.9zm14.024 20.292c0 .635-.508 1.152-1.132 1.152H11.757a1.143 1.143 0 0 1-1.132-1.152v-13c0-.634.508-1.15 1.132-1.15h15.485c.624 0 1.132.516 1.132 1.15v13z" fill="#000" fill-rule="nonzero"/>
    </g>
</svg>
