<?xml version="1.0" encoding="UTF-8"?>
<svg width="40px" height="40px" viewBox="0 0 40 40" version="1.1" xmlns="http://www.w3.org/2000/svg" xmlns:xlink="http://www.w3.org/1999/xlink">
    <title>112FD4D7-2392-472D-A953-DCB5F26995CC</title>
    <g id="Final" stroke="none" stroke-width="1" fill="none" fill-rule="evenodd">
        <g id="Explorer-Assets-2" transform="translate(-499.000000, -720.000000)">
            <g id="Group-22" transform="translate(499.000000, 720.000000)">
                <circle id="Oval-Copy-4" stroke="#EAEAEA" fill="#FFFFFF" cx="20" cy="20" r="19.5"></circle>
                <g id="mercatox" transform="translate(9.000000, 11.000000)" fill-rule="nonzero">
                    <path d="M0,0 C0.246671338,0.269438669 0.477925718,0.553846154 0.740014015,0.823284823 C1.43377715,1.55675676 2.17379117,2.24532225 2.85213735,2.99376299 C3.40714786,3.5027027 3.86965662,4.08648649 4.40925018,4.61039501 C4.71758935,4.90977131 5.02592852,5.22411642 5.31885074,5.52349272 C6.18220042,6.46652807 7.10721794,7.34968815 8.00140154,8.27775468 C8.18640505,8.47234927 8.37140855,8.65197505 8.55641205,8.83160083 C8.52557814,8.96632017 8.54099509,9.13097713 8.43307638,9.23575884 C7.95515067,9.72972973 7.46180799,10.193763 7.01471619,10.7027027 C5.47302032,12.2594595 3.96215837,13.831185 2.43587947,15.4178794 C1.865452,15.9567568 1.35669236,16.5555094 0.786264891,17.0943867 C0.493342677,17.3638254 0.246671338,17.6482328 0.046250876,17.9925156 C1.58794674,17.9925156 3.12964261,18.0074844 4.67133847,17.9925156 C5.75052558,16.824948 6.87596356,15.6873181 8.00140154,14.564657 C8.9110021,13.5467775 9.91310441,12.618711 10.8535389,11.6158004 C10.8843728,11.570894 10.9614576,11.4661123 11.0077085,11.4212058 C11.2697968,11.7056133 11.5318851,11.975052 11.8093903,12.2444906 C11.917309,12.3492723 12.0098108,12.4540541 12.1177295,12.5438669 C12.2410652,12.6935551 12.3798178,12.8282744 12.5031535,12.9779626 C12.5494043,13.0079002 12.6419061,13.0677755 12.688157,13.0827443 L12.6573231,13.2024948 L12.8269096,13.2024948 L12.8114926,13.3072765 C12.9348283,13.4120582 13.042747,13.5168399 13.1660827,13.6216216 C13.782761,14.3251559 14.4919411,14.9239085 15.1086195,15.6424116 C15.1548704,15.6723493 15.2319552,15.7471933 15.278206,15.777131 C15.3244569,15.8370062 15.4323756,15.9567568 15.4786265,16.016632 L15.6173791,16.1513514 C15.7407148,16.2860707 15.8640505,16.4357588 15.9873861,16.5704782 C16.388227,16.9746362 16.8199019,17.3638254 17.1744919,17.8128898 C17.3594954,17.962578 17.5753329,18.0224532 17.8220042,17.9925156 C19.2249474,17.9775468 20.6124737,18.0074844 22,17.9775468 C21.8458304,17.7679834 21.6916608,17.5434511 21.5374912,17.3338877 C21.1058164,16.9446985 20.7049755,16.5255717 20.3041345,16.1214137 C20.0574632,15.8669439 19.7953749,15.612474 19.5487036,15.3580042 C19.3020322,15.043659 19.024527,14.7592516 18.7161878,14.4898129 C18.4849334,14.2203742 18.2382621,13.9659044 17.9607568,13.7114345 C17.6061668,13.3072765 17.2053259,12.9480249 16.8353189,12.5588358 C16.6965662,12.4091476 16.5423966,12.2444906 16.403644,12.0948025 C16.2494744,11.9301455 16.1107218,11.7804574 15.9565522,11.6307692 C15.648213,11.3313929 15.3398739,11.0170478 15.0315347,10.7027027 C14.9390329,10.6128898 14.8465312,10.5081081 14.7540294,10.4182952 C14.6306938,10.2835759 14.5073581,10.1488565 14.3686055,10.029106 L14.2144359,9.87941788 C13.9215137,9.56507277 13.6440084,9.26569647 13.3510862,8.95135135 C14.0602663,8.23284823 14.8156973,7.54428274 15.4786265,6.76590437 L15.5094604,6.76590437 C15.6327961,6.61621622 15.7561317,6.48149688 15.8794674,6.34677755 C15.9257183,6.31683992 16.033637,6.27193347 16.0798879,6.24199584 C16.1878066,6.09230769 16.2957253,5.95758836 16.419061,5.80790021 C16.6811493,5.56839917 16.9278206,5.31392931 17.1744919,5.05945946 C17.4519972,4.81995842 17.6986685,4.55051975 17.9299229,4.26611227 L17.9761738,4.26611227 C18.1457603,4.08648649 18.3307638,3.92182952 18.5003504,3.74220374 L18.4695165,3.68232848 C19.2249474,2.93388773 19.9803784,2.18544699 20.7049755,1.40706861 L20.7358094,1.40706861 C20.9516468,1.10769231 21.2291521,0.838253638 21.5066573,0.598752599 C21.6608269,0.419126819 21.8149965,0.224532225 21.9537491,0.0449064449 C20.3812193,0.0299376299 18.8241065,0.0299376299 17.2515767,0.0299376299 L17.2669937,0.104781705 C17.143658,0.224532225 17.0357393,0.344282744 16.9124036,0.479002079 L16.8661528,0.464033264 C16.1261388,1.37713098 15.2165382,2.12557173 14.4456903,3.00873181 L14.4148563,3.03866944 C14.3686055,3.08357588 14.2761037,3.15841996 14.2298528,3.2033264 C13.5823406,3.96673597 12.8269096,4.64033264 12.1331465,5.38877339 C12.1023125,5.43367983 12.0560617,5.50852391 12.0252278,5.55343035 C11.9635599,5.5983368 11.8402242,5.7031185 11.7785564,5.74802495 C11.5318851,6.03243243 11.2697968,6.28690229 11.0077085,6.57130977 C9.63559916,5.13430353 8.24807288,3.68232848 6.82971268,2.27525988 C6.13594954,1.4968815 5.41135249,0.748440748 4.65592151,0.0299376299 C3.11422565,-0.0299376299 1.55711282,0.0299376299 0,0" id="Path" fill="#FBFDFE"></path>
                    <path d="M0,0.00863579255 C1.52143685,0.0236192314 3.0428737,-0.036314524 4.54924681,0.0386026703 C5.28736964,0.757807735 5.99536501,1.50697968 6.67323291,2.27113506 C8.05909618,3.69456175 9.39976825,5.13297188 10.7555041,6.57138201 C11.433372,7.44042147 12.2468134,8.18959341 13,8.98371567 C12.2468134,9.79282137 11.433372,10.5419933 10.7555041,11.4110328 C10.7253766,11.4559831 10.6500579,11.5608672 10.6048667,11.6058175 C9.68597914,12.6097079 8.72190035,13.5386811 7.81807648,14.5575549 C6.7184241,15.6813128 5.63383546,16.8350376 4.56431054,17.9887624 C3.05793743,18.0037459 1.55156431,18.0037459 0.0451911935,17.9887624 C0.241019699,17.6591268 0.497103129,17.359458 0.76825029,17.0897561 C1.32560834,16.5503523 1.80764774,15.9360313 2.38006952,15.4116109 C3.85631518,13.8383499 8.43568946,9.0736163 8.46581692,8.93876535 C8.28505214,8.75896408 4.60950174,4.92320374 4.30822711,4.62353496 C3.78099652,4.0991146 3.31402086,3.51476049 2.78679027,3.00532356 C2.13904983,2.25615162 1.400927,1.58189687 0.723059096,0.847708369 C0.466975666,0.578006469 0.241019699,0.293321131 0,0.00863579255 Z" id="Path" fill="#2FB900"></path>
                    <path d="M17.2791024,0.00374765771 C18.8527349,0.00374765771 20.4109397,-0.0112429731 21.9845722,0.0187382886 C21.8457223,0.198625859 21.6914446,0.39350406 21.5371669,0.57339163 C21.259467,0.828232355 20.9817672,1.08307308 20.7657784,1.3828857 L20.7349229,1.3828857 C20.0098177,2.1623985 15.6437588,6.6296065 15.5203366,6.76452217 C15.5203366,6.76452217 14.085554,8.21861337 13.3758766,8.95315428 C13.6535764,9.26795753 14.9495091,10.6321049 15.0420757,10.7220487 C15.3506311,11.0218613 16.7082749,12.41599 16.8471248,12.5658963 C17.2019635,12.9706433 17.6030856,13.3304185 17.973352,13.7201749 C18.2356241,13.960025 19.3001403,15.054341 19.5469846,15.3541537 C19.7938289,15.6089944 21.8457223,17.7526546 22,17.9775141 C20.5960729,17.9925047 19.2075736,17.9775141 17.8190743,17.9925047 C17.5876578,18.0224859 17.3562412,17.9625234 17.171108,17.8126171 C16.8162693,17.3628982 12.9130435,13.390381 12.8050491,13.2854466 C12.8050491,13.2854466 11.9102384,12.3110556 11.802244,12.2061212 C11.5245442,11.9362898 11.2468443,11.6664585 11,11.3816365 C11.6942496,10.5121799 12.5273492,9.76264834 13.2987377,8.95315428 C12.5273492,8.15865084 11.6942496,7.39412867 11,6.53966271 C11.2622721,6.26983136 16.9242637,0.453466583 16.9242637,0.453466583 C17.0322581,0.333541537 17.1556802,0.21361649 17.2791024,0.078700812 L17.2791024,0.00374765771 L17.2791024,0.00374765771 Z" id="Path" fill="#000000"></path>
                </g>
            </g>
        </g>
    </g>
</svg>