<svg width="61" height="61" viewBox="0 0 61 61" fill="none" xmlns="http://www.w3.org/2000/svg">
    <path fill-rule="evenodd" clip-rule="evenodd" d="M8.961 51C8.444 51 8 50.56 8 50.055v-8.284c0-7.633 6.387-13.89 14.208-13.89h4.501c7.82 0 14.208 6.257 14.208 13.89v8.284c0 .505-.453.945-.962.945H8.962zm13.247-21.284c-6.795 0-12.36 5.43-12.36 12.055v7.394h29.22v-7.394c0-6.624-5.565-12.055-12.359-12.055h-4.501z" fill="#fff"/>
    <path d="M9.849 49.165h-.4v.4h.4v-.4zm29.22 0v.4h.4v-.4h-.4zm-31.469.89c0 .73.628 1.345 1.361 1.345v-.8c-.302 0-.561-.267-.561-.545h-.8zm0-8.284v8.284h.8v-8.284h-.8zm14.608-14.29C14.175 27.48 7.6 33.908 7.6 41.77h.8c0-7.404 6.2-13.49 13.808-13.49v-.8zm4.501 0h-4.501v.8h4.501v-.8zm14.608 14.29c0-7.863-6.575-14.29-14.608-14.29v.8c7.608 0 13.808 6.086 13.808 13.49h.8zm0 8.284v-8.284h-.8v8.284h.8zM39.956 51.4c.72 0 1.36-.612 1.36-1.345h-.8c0 .276-.265.545-.56.545v.8zm-30.995 0h30.995v-.8H8.96v.8zm1.288-9.63c0-6.393 5.376-11.654 11.959-11.654v-.8c-7.006 0-12.76 5.6-12.76 12.455h.8zm0 7.395v-7.394h-.8v7.394h.8zm28.82-.4H9.848v.8h29.22v-.8zm-.4-6.994v7.394h.8v-7.394h-.8zm-11.96-11.655c6.583 0 11.96 5.261 11.96 11.655h.8c0-6.854-5.754-12.455-12.76-12.455v.8zm-4.501 0h4.501v-.8h-4.501v.8z" fill="#fff"/>
    <path fill-rule="evenodd" clip-rule="evenodd" d="M15.866 19.395c0-4.633 3.8-8.395 8.467-8.395h.24c4.669 0 8.477 3.761 8.477 8.395 0 4.633-3.799 8.394-8.467 8.394h-.25c-4.668 0-8.467-3.762-8.467-8.395zm8.708 6.56c3.651 0 6.618-2.937 6.618-6.56 0-3.624-2.967-6.56-6.618-6.56h-.25c-3.651 0-6.618 2.936-6.618 6.56 0 3.623 2.967 6.56 6.618 6.56h.25z" fill="#fff"/>
    <path d="M24.333 10.6c-4.885 0-8.867 3.937-8.867 8.795h.8c0-4.41 3.617-7.995 8.067-7.995v-.8zm.24 0h-.24v.8h.24v-.8zm8.877 8.795c0-4.858-3.991-8.795-8.876-8.795v.8c4.45 0 8.076 3.586 8.076 7.995h.8zm-8.867 8.794c4.886 0 8.867-3.937 8.867-8.794h-.8c0 4.408-3.616 7.994-8.067 7.994v.8zm-.25 0h.25v-.8h-.25v.8zm-8.867-8.794c0 4.857 3.982 8.794 8.867 8.794v-.8c-4.45 0-8.067-3.586-8.067-7.994h-.8zm15.326 0c0 3.399-2.784 6.16-6.218 6.16v.8c3.868 0 7.018-3.112 7.018-6.96h-.8zm-6.218-6.16c3.434 0 6.218 2.76 6.218 6.16h.8c0-3.849-3.15-6.96-7.018-6.96v.8zm-.25 0h.25v-.8h-.25v.8zm-6.218 6.16c0-3.4 2.784-6.16 6.218-6.16v-.8c-3.868 0-7.018 3.111-7.018 6.96h.8zm6.218 6.16c-3.434 0-6.218-2.761-6.218-6.16h-.8c0 3.848 3.15 6.96 7.018 6.96v-.8zm.25 0h-.25v.8h.25v-.8z" fill="#fff"/>
    <path fill-rule="evenodd" clip-rule="evenodd" d="M33.5 28.107a.994.994 0 0 1 1-1.015H50v2.03H34.5c-.563 0-1-.444-1-1.015zM33 42.569V29.447a1.99 1.99 0 0 0 1.266.674l17.484.016c.693 0 1.25.566 1.25 1.268v2.284h-7.75c-.684 0-1.25.575-1.25 1.269v4.06c0 .693.566 1.268 1.25 1.268H53v2.283c0 .703-.557 1.27-1.25 1.27h-17.5c-.693 0-1.25-.567-1.25-1.27zm12.25-7.865c-.147 0-.25.104-.25.254v4.06c0 .149.103.253.25.253H53v-4.567h-7.75zm3.25 2.283a.756.756 0 0 0-.75-.76c-.414 0-.75.34-.75.76s.336.762.75.762.75-.341.75-.762z" fill="#02ADFF"/>
</svg>
