<svg width="16" height="16" viewBox="0 0 16 16" fill="none" xmlns="http://www.w3.org/2000/svg">
    <path fill-rule="evenodd" clip-rule="evenodd" d="M0 7.946a7.93 7.93 0 1 1 15.86 0 7.93 7.93 0 0 1-15.86 0zm14.869 0A6.947 6.947 0 0 0 7.93 1.007 6.947 6.947 0 0 0 .991 7.946a6.947 6.947 0 0 0 6.939 6.939 6.947 6.947 0 0 0 6.939-6.939z" fill="#767575"/>
    <path fill-rule="evenodd" clip-rule="evenodd" d="M6.22 4.713c-.212.22-.373.487-.481.801a3.196 3.196 0 0 0-.163 1.046h.683a2.464 2.464 0 0 1 .097-.78c.072-.239.18-.446.325-.623.145-.177.329-.316.553-.417a1.85 1.85 0 0 1 .769-.152 1.648 1.648 0 0 1 1.089.406 1.39 1.39 0 0 1 .46 1.057c0 .281-.067.538-.2.769a2.68 2.68 0 0 1-.504.628c-.231.21-.428.397-.59.563-.163.166-.293.34-.39.52a2.11 2.11 0 0 0-.212.607 4.018 4.018 0 0 0-.054.834h.682c.008-.332.022-.586.044-.763.022-.177.065-.327.13-.45s.164-.248.298-.374c.133-.126.312-.301.536-.525.275-.26.5-.531.677-.813.177-.281.265-.624.265-1.029 0-.318-.057-.6-.173-.845a1.866 1.866 0 0 0-.477-.628 2.124 2.124 0 0 0-.698-.396 2.614 2.614 0 0 0-.85-.135c-.39 0-.737.062-1.04.184a2.221 2.221 0 0 0-.775.515zm2.184 7.198v-1.148h-.91v1.148h.91z" fill="#767575"/>
</svg>
