<svg width="20" height="20" viewBox="0 0 20 20" xmlns="http://www.w3.org/2000/svg">
    <g fill="#3763DD" fill-rule="nonzero">
        <path d="M10 6.144a3.856 3.856 0 1 0 0 7.712 3.856 3.856 0 0 0 0-7.712zm0 6.17a2.314 2.314 0 1 1 0-4.629 2.314 2.314 0 0 1 0 4.629z"/>
        <path d="m19.373 7.513-2.258-.423a2.405 2.405 0 0 0-.026-.062l1.296-1.897a.77.77 0 0 0-.09-.977l-2.449-2.449a.77.77 0 0 0-.977-.09l-1.896 1.297-.063-.026-.424-2.259A.769.769 0 0 0 11.731 0H8.269a.768.768 0 0 0-.755.627L7.09 2.885l-.063.026-1.896-1.296a.77.77 0 0 0-.977.09L1.705 4.154a.77.77 0 0 0-.09.977l1.297 1.897-.026.062-2.258.423A.77.77 0 0 0 0 8.27v3.462a.77.77 0 0 0 .627.756l2.258.423.026.062-1.296 1.897a.77.77 0 0 0 .09.977l2.449 2.449a.77.77 0 0 0 .977.09l1.896-1.297.063.026.424 2.258a.77.77 0 0 0 .755.628h3.462a.768.768 0 0 0 .755-.627l.424-2.258.063-.026 1.896 1.296a.77.77 0 0 0 .979-.091l2.447-2.448a.77.77 0 0 0 .09-.977l-1.297-1.897.026-.062 2.258-.423A.77.77 0 0 0 20 11.73V8.269a.77.77 0 0 0-.627-.756zm-.911 3.58-2.057.384a.769.769 0 0 0-.586.508 6.254 6.254 0 0 1-.3.723.768.768 0 0 0 .055.774l1.181 1.728-1.544 1.545-1.728-1.182a.77.77 0 0 0-.774-.056 6.174 6.174 0 0 1-.724.302.77.77 0 0 0-.507.586l-.386 2.057H8.908l-.385-2.056a.77.77 0 0 0-.507-.586 6.176 6.176 0 0 1-.724-.302.767.767 0 0 0-.774.056L4.79 16.755l-1.544-1.544 1.181-1.728a.77.77 0 0 0 .055-.774 6.256 6.256 0 0 1-.3-.723.77.77 0 0 0-.586-.508l-2.057-.386V8.908l2.057-.385a.769.769 0 0 0 .586-.508c.085-.247.185-.489.3-.723a.768.768 0 0 0-.055-.774L3.245 4.789l1.544-1.544 1.728 1.181a.768.768 0 0 0 .774.056c.234-.116.476-.217.724-.302a.77.77 0 0 0 .506-.586l.387-2.056h2.184l.385 2.056a.77.77 0 0 0 .507.586c.247.085.489.186.724.302a.767.767 0 0 0 .773-.056l1.728-1.181 1.545 1.544-1.182 1.728a.77.77 0 0 0-.055.774c.115.234.216.476.3.723a.771.771 0 0 0 .587.508l2.056.385.002 2.185z"/>
    </g>
</svg>
