<svg width="22" height="20" viewBox="0 0 22 20" xmlns="http://www.w3.org/2000/svg">
    <g fill="none" fill-rule="evenodd">
        <path d="M0 0h22v20H0z"/>
        <g fill="#C7CDD9" fill-rule="nonzero">
            <path d="M20.488 9.09C18.35 5.898 14.757 4 10.881 4c-3.875 0-7.468 1.899-9.6 5.09a1.63 1.63 0 0 0-.007 1.82C3.414 14.102 7.006 16 10.881 16c3.876 0 7.468-1.899 9.607-5.09.367-.55.367-1.27 0-1.82zm-9.628 5.068c-2.315 0-4.2-1.857-4.2-4.137 0-2.28 1.885-4.136 4.2-4.136 2.315 0 4.207 1.856 4.207 4.136 0 2.28-1.892 4.137-4.207 4.137z"/>
            <path d="M10.86 7.297c-1.539 0-2.788 1.22-2.788 2.724 0 1.504 1.25 2.725 2.788 2.725 1.539 0 2.795-1.221 2.795-2.725 0-1.503-1.256-2.724-2.795-2.724z"/>
        </g>
    </g>
</svg>
