<svg width="44" height="44" viewBox="0 0 44 44" xmlns="http://www.w3.org/2000/svg">
    <g fill="none" fill-rule="evenodd">
        <path fill="transparent" d="M-368-626h1920v2526H-368z"/>
        <path d="M0 0h44v44H0z"/>
        <g fill-rule="nonzero">
            <path d="M34 14.986c0-.78-.616-1.415-1.372-1.415H14.71l2.996-3.146c.532-.549.532-1.444 0-2.02a1.308 1.308 0 0 0-.98-.405c-.364 0-.7.144-.98.404L10.4 13.975a1.442 1.442 0 0 0 0 1.992l5.375 5.6c.252.26.616.433.98.433s.7-.144.98-.404c.252-.26.42-.635.42-1.01 0-.376-.14-.75-.392-1.01L14.654 16.4H32.6c.784 0 1.4-.635 1.4-1.414z" fill="#4874F4"/>
            <path d="M28.246 36c.364 0 .728-.145.98-.434l5.375-5.608a1.446 1.446 0 0 0 0-1.995l-5.375-5.551c-.532-.55-1.4-.55-1.96 0-.532.55-.532 1.446 0 2.024l3.024 3.122H12.372c-.756 0-1.372.636-1.372 1.417 0 .78.616 1.416 1.372 1.416h17.946l-3.052 3.18a1.47 1.47 0 0 0-.392 1.012c0 .376.14.723.42 1.012.252.26.588.405.952.405z" fill="#E5E8F0"/>
        </g>
    </g>
</svg>
