<?xml version="1.0" encoding="UTF-8"?>
<svg width="32px" height="13px" viewBox="0 0 32 13" version="1.1" xmlns="http://www.w3.org/2000/svg" xmlns:xlink="http://www.w3.org/1999/xlink">
    <title>B53EDB8D-24F7-49A5-B494-FBA06911AF00</title>
    <defs>
        <path d="M3.81468231,9.23529412 C4.32771364,9.23529412 4.74913223,9.15269321 5.07893809,8.98749138 C5.40874394,8.82228956 5.65286494,8.59784295 5.81130109,8.31415154 C5.96973723,8.03046013 6.04895531,7.70974073 6.04895531,7.35199334 C6.04895531,6.98968865 5.9799763,6.68207146 5.8420183,6.42914177 C5.70406029,6.17621209 5.52999609,5.98081821 5.3198257,5.84296013 C5.1096553,5.70510206 4.89463482,5.63047641 4.67476425,5.61908318 L4.67476425,5.61908318 L4.67476425,5.55072381 C4.87739006,5.49603631 5.06331003,5.4088781 5.23252415,5.2892492 C5.40173826,5.16962029 5.53700177,5.01011508 5.63831468,4.81073357 C5.73962759,4.61135206 5.79028405,4.36582797 5.79028405,4.07416131 C5.79028405,3.72780714 5.71376047,3.41620232 5.56071331,3.13934685 C5.40766614,2.86249138 5.17701761,2.64260206 4.86876769,2.47967888 C4.56051777,2.31675571 4.17143309,2.23529412 3.70151364,2.23529412 L3.70151364,2.23529412 L1.27647059,2.23529412 L1.27647059,9.23529412 L3.81468231,9.23529412 Z M3.61421209,5.26361443 L2.27558832,5.26361443 L2.27558832,3.1342199 L3.64007921,3.1342199 C4.03670847,3.1342199 4.33094703,3.23220167 4.52279488,3.42816521 C4.71464273,3.62412875 4.81056666,3.86680453 4.81056666,4.15619256 C4.81056666,4.38177849 4.75721571,4.57717237 4.65051382,4.7423742 C4.54381192,4.90757602 4.40046493,5.03574985 4.22047285,5.12689568 C4.04048076,5.21804151 3.83839384,5.26361443 3.61421209,5.26361443 L3.61421209,5.26361443 Z M3.71768059,8.3295324 L2.27558832,8.3295324 L2.27558832,6.0873449 L3.75324789,6.0873449 C4.02054152,6.0873449 4.25172896,6.1420324 4.4468102,6.2514074 C4.64189144,6.3607824 4.79224411,6.50775506 4.89786821,6.69232537 C5.0034923,6.87689568 5.05630435,7.07969516 5.05630435,7.30072381 C5.05630435,7.59466912 4.95283585,7.83962354 4.74589884,8.03558709 C4.53896183,8.23155063 4.19622242,8.3295324 3.71768059,8.3295324 L3.71768059,8.3295324 Z M11.4215592,9.23529412 L11.4215592,8.32611443 L8.23020259,8.32611443 L8.23020259,6.18304802 L11.1661214,6.18304802 L11.1661214,5.27728631 L8.23020259,5.27728631 L8.23020259,3.14447381 L11.3827585,3.14447381 L11.3827585,2.23529412 L7.23108485,2.23529412 L7.23108485,9.23529412 L11.4215592,9.23529412 Z M15.4523068,9.23529412 L15.4523068,3.14447381 L17.5184435,3.14447381 L17.5184435,2.23529412 L12.3935192,2.23529412 L12.3935192,3.14447381 L14.4564225,3.14447381 L14.4564225,9.23529412 L15.4523068,9.23529412 Z M18.4166843,9.23529412 L19.0227071,7.3832837 L21.6101095,7.3832837 L22.2159184,9.23529412 L23.2764706,9.23529412 L20.8934616,2.23529412 L19.7391411,2.23529412 L17.3561322,9.23529412 L18.4166843,9.23529412 Z M21.3202597,6.49457537 L19.3133157,6.49457537 L20.2920509,3.50677849 L20.3437852,3.50677849 L21.3202597,6.49457537 Z" id="path-1"></path>
    </defs>
    <g id="Final" stroke="none" stroke-width="1" fill="none" fill-rule="evenodd">
        <g id="Explorer-Assets-2" transform="translate(-285.000000, -931.000000)" fill-rule="nonzero">
            <g id="Group-28" transform="translate(285.900000, 931.000000)">
                <rect id="Rectangle_38" fill="#4878FF" x="0" y="0" width="30.5882353" height="13" rx="4"></rect>
                <g id="BETA" transform="translate(3.823529, 0.764706)">
                    <use fill="#000000" xlink:href="#path-1"></use>
                    <use fill="#FFFFFF" xlink:href="#path-1"></use>
                </g>
            </g>
        </g>
    </g>
</svg>